M48
; DRILL file {KiCad (5.1.10)-1} date 07/01/21 21:18:48
; FORMAT={-:-/ absolute / inch / decimal}
; #@! TF.CreationDate,2021-07-01T21:18:48-05:00
; #@! TF.GenerationSoftware,Kicad,Pcbnew,(5.1.10)-1
FMAT,2
INCH
T1C0.0157
T2C0.0350
T3C0.0394
T4C0.0423
T5C0.0791
%
G90
G05
T1
X5.23Y-4.48
X5.23Y-4.66
X5.275Y-4.935
X5.335Y-4.82
X5.348Y-4.676
X5.362Y-4.439
X5.37Y-4.9225
X5.43Y-4.245
X5.455Y-5.53
X5.49Y-4.985
X5.497Y-4.611
X5.523Y-4.646
X5.543Y-4.036
X5.57Y-5.2
X5.596Y-5.493
X5.597Y-4.926
X5.601Y-5.011
X5.639Y-4.92
X5.6619Y-4.7486
X5.68Y-4.1
X5.68Y-4.153
X5.68Y-5.2
X5.684Y-4.204
X5.729Y-4.153
X5.73Y-4.103
X5.75Y-4.572
X5.764Y-4.885
X5.79Y-5.2
X5.813Y-4.522
X5.814Y-4.809
X5.882Y-4.504
X5.886Y-4.821
X5.9Y-5.2
X5.909Y-4.335
X5.919Y-4.993
X5.919Y-5.506
T2
X5.47Y-3.878
X5.57Y-3.878
T3
X5.326Y-5.7
X5.426Y-5.7
X5.526Y-5.7
X5.626Y-5.7
X5.726Y-5.7
X5.826Y-5.7
T4
X5.382Y-5.106
X5.382Y-5.206
X5.382Y-5.306
X5.382Y-5.406
T5
X5.37Y-3.678
X5.77Y-3.678
T0
M30
