%TF.GenerationSoftware,KiCad,Pcbnew,(5.1.10)-1*%
%TF.CreationDate,2021-07-01T21:18:45-05:00*%
%TF.ProjectId,orpMeter,6f72704d-6574-4657-922e-6b696361645f,A0*%
%TF.SameCoordinates,Original*%
%TF.FileFunction,Soldermask,Top*%
%TF.FilePolarity,Negative*%
%FSLAX46Y46*%
G04 Gerber Fmt 4.6, Leading zero omitted, Abs format (unit mm)*
G04 Created by KiCad (PCBNEW (5.1.10)-1) date 2021-07-01 21:18:45*
%MOMM*%
%LPD*%
G01*
G04 APERTURE LIST*
%ADD10O,3.500000X7.000000*%
%ADD11O,1.600000X2.500000*%
%ADD12R,0.300000X1.400000*%
%ADD13R,0.800000X0.900000*%
%ADD14O,2.250000X1.750000*%
%ADD15R,2.250000X1.750000*%
%ADD16R,0.650000X1.060000*%
%ADD17R,1.700000X1.700000*%
%ADD18O,1.700000X1.700000*%
G04 APERTURE END LIST*
D10*
%TO.C,J1*%
X136398000Y-93421200D03*
X146558000Y-93421200D03*
D11*
X141478000Y-98501200D03*
X138938000Y-98501200D03*
%TD*%
%TO.C,C1*%
G36*
G01*
X147931850Y-118065000D02*
X147419350Y-118065000D01*
G75*
G02*
X147200600Y-117846250I0J218750D01*
G01*
X147200600Y-117408750D01*
G75*
G02*
X147419350Y-117190000I218750J0D01*
G01*
X147931850Y-117190000D01*
G75*
G02*
X148150600Y-117408750I0J-218750D01*
G01*
X148150600Y-117846250D01*
G75*
G02*
X147931850Y-118065000I-218750J0D01*
G01*
G37*
G36*
G01*
X147931850Y-116490000D02*
X147419350Y-116490000D01*
G75*
G02*
X147200600Y-116271250I0J218750D01*
G01*
X147200600Y-115833750D01*
G75*
G02*
X147419350Y-115615000I218750J0D01*
G01*
X147931850Y-115615000D01*
G75*
G02*
X148150600Y-115833750I0J-218750D01*
G01*
X148150600Y-116271250D01*
G75*
G02*
X147931850Y-116490000I-218750J0D01*
G01*
G37*
%TD*%
%TO.C,C3*%
G36*
G01*
X147419350Y-120390400D02*
X147931850Y-120390400D01*
G75*
G02*
X148150600Y-120609150I0J-218750D01*
G01*
X148150600Y-121046650D01*
G75*
G02*
X147931850Y-121265400I-218750J0D01*
G01*
X147419350Y-121265400D01*
G75*
G02*
X147200600Y-121046650I0J218750D01*
G01*
X147200600Y-120609150D01*
G75*
G02*
X147419350Y-120390400I218750J0D01*
G01*
G37*
G36*
G01*
X147419350Y-118815400D02*
X147931850Y-118815400D01*
G75*
G02*
X148150600Y-119034150I0J-218750D01*
G01*
X148150600Y-119471650D01*
G75*
G02*
X147931850Y-119690400I-218750J0D01*
G01*
X147419350Y-119690400D01*
G75*
G02*
X147200600Y-119471650I0J218750D01*
G01*
X147200600Y-119034150D01*
G75*
G02*
X147419350Y-118815400I218750J0D01*
G01*
G37*
%TD*%
%TO.C,C5*%
G36*
G01*
X144063000Y-117705850D02*
X144063000Y-117193350D01*
G75*
G02*
X144281750Y-116974600I218750J0D01*
G01*
X144719250Y-116974600D01*
G75*
G02*
X144938000Y-117193350I0J-218750D01*
G01*
X144938000Y-117705850D01*
G75*
G02*
X144719250Y-117924600I-218750J0D01*
G01*
X144281750Y-117924600D01*
G75*
G02*
X144063000Y-117705850I0J218750D01*
G01*
G37*
G36*
G01*
X145638000Y-117705850D02*
X145638000Y-117193350D01*
G75*
G02*
X145856750Y-116974600I218750J0D01*
G01*
X146294250Y-116974600D01*
G75*
G02*
X146513000Y-117193350I0J-218750D01*
G01*
X146513000Y-117705850D01*
G75*
G02*
X146294250Y-117924600I-218750J0D01*
G01*
X145856750Y-117924600D01*
G75*
G02*
X145638000Y-117705850I0J218750D01*
G01*
G37*
%TD*%
%TO.C,C6*%
G36*
G01*
X141940800Y-117193350D02*
X141940800Y-117705850D01*
G75*
G02*
X141722050Y-117924600I-218750J0D01*
G01*
X141284550Y-117924600D01*
G75*
G02*
X141065800Y-117705850I0J218750D01*
G01*
X141065800Y-117193350D01*
G75*
G02*
X141284550Y-116974600I218750J0D01*
G01*
X141722050Y-116974600D01*
G75*
G02*
X141940800Y-117193350I0J-218750D01*
G01*
G37*
G36*
G01*
X143515800Y-117193350D02*
X143515800Y-117705850D01*
G75*
G02*
X143297050Y-117924600I-218750J0D01*
G01*
X142859550Y-117924600D01*
G75*
G02*
X142640800Y-117705850I0J218750D01*
G01*
X142640800Y-117193350D01*
G75*
G02*
X142859550Y-116974600I218750J0D01*
G01*
X143297050Y-116974600D01*
G75*
G02*
X143515800Y-117193350I0J-218750D01*
G01*
G37*
%TD*%
%TO.C,C7*%
G36*
G01*
X149788199Y-106195200D02*
X150338201Y-106195200D01*
G75*
G02*
X150588200Y-106445199I0J-249999D01*
G01*
X150588200Y-107070201D01*
G75*
G02*
X150338201Y-107320200I-249999J0D01*
G01*
X149788199Y-107320200D01*
G75*
G02*
X149538200Y-107070201I0J249999D01*
G01*
X149538200Y-106445199D01*
G75*
G02*
X149788199Y-106195200I249999J0D01*
G01*
G37*
G36*
G01*
X149788199Y-107970200D02*
X150338201Y-107970200D01*
G75*
G02*
X150588200Y-108220199I0J-249999D01*
G01*
X150588200Y-108845201D01*
G75*
G02*
X150338201Y-109095200I-249999J0D01*
G01*
X149788199Y-109095200D01*
G75*
G02*
X149538200Y-108845201I0J249999D01*
G01*
X149538200Y-108220199D01*
G75*
G02*
X149788199Y-107970200I249999J0D01*
G01*
G37*
%TD*%
%TO.C,C8*%
G36*
G01*
X139110600Y-102433801D02*
X139110600Y-101883799D01*
G75*
G02*
X139360599Y-101633800I249999J0D01*
G01*
X139985601Y-101633800D01*
G75*
G02*
X140235600Y-101883799I0J-249999D01*
G01*
X140235600Y-102433801D01*
G75*
G02*
X139985601Y-102683800I-249999J0D01*
G01*
X139360599Y-102683800D01*
G75*
G02*
X139110600Y-102433801I0J249999D01*
G01*
G37*
G36*
G01*
X137335600Y-102433801D02*
X137335600Y-101883799D01*
G75*
G02*
X137585599Y-101633800I249999J0D01*
G01*
X138210601Y-101633800D01*
G75*
G02*
X138460600Y-101883799I0J-249999D01*
G01*
X138460600Y-102433801D01*
G75*
G02*
X138210601Y-102683800I-249999J0D01*
G01*
X137585599Y-102683800D01*
G75*
G02*
X137335600Y-102433801I0J249999D01*
G01*
G37*
%TD*%
%TO.C,C9*%
G36*
G01*
X141015000Y-126646650D02*
X141015000Y-126134150D01*
G75*
G02*
X141233750Y-125915400I218750J0D01*
G01*
X141671250Y-125915400D01*
G75*
G02*
X141890000Y-126134150I0J-218750D01*
G01*
X141890000Y-126646650D01*
G75*
G02*
X141671250Y-126865400I-218750J0D01*
G01*
X141233750Y-126865400D01*
G75*
G02*
X141015000Y-126646650I0J218750D01*
G01*
G37*
G36*
G01*
X142590000Y-126646650D02*
X142590000Y-126134150D01*
G75*
G02*
X142808750Y-125915400I218750J0D01*
G01*
X143246250Y-125915400D01*
G75*
G02*
X143465000Y-126134150I0J-218750D01*
G01*
X143465000Y-126646650D01*
G75*
G02*
X143246250Y-126865400I-218750J0D01*
G01*
X142808750Y-126865400D01*
G75*
G02*
X142590000Y-126646650I0J218750D01*
G01*
G37*
%TD*%
%TO.C,C10*%
G36*
G01*
X141814000Y-140205750D02*
X141814000Y-140718250D01*
G75*
G02*
X141595250Y-140937000I-218750J0D01*
G01*
X141157750Y-140937000D01*
G75*
G02*
X140939000Y-140718250I0J218750D01*
G01*
X140939000Y-140205750D01*
G75*
G02*
X141157750Y-139987000I218750J0D01*
G01*
X141595250Y-139987000D01*
G75*
G02*
X141814000Y-140205750I0J-218750D01*
G01*
G37*
G36*
G01*
X140239000Y-140205750D02*
X140239000Y-140718250D01*
G75*
G02*
X140020250Y-140937000I-218750J0D01*
G01*
X139582750Y-140937000D01*
G75*
G02*
X139364000Y-140718250I0J218750D01*
G01*
X139364000Y-140205750D01*
G75*
G02*
X139582750Y-139987000I218750J0D01*
G01*
X140020250Y-139987000D01*
G75*
G02*
X140239000Y-140205750I0J-218750D01*
G01*
G37*
%TD*%
%TO.C,C11*%
G36*
G01*
X136469801Y-116258000D02*
X135919799Y-116258000D01*
G75*
G02*
X135669800Y-116008001I0J249999D01*
G01*
X135669800Y-115382999D01*
G75*
G02*
X135919799Y-115133000I249999J0D01*
G01*
X136469801Y-115133000D01*
G75*
G02*
X136719800Y-115382999I0J-249999D01*
G01*
X136719800Y-116008001D01*
G75*
G02*
X136469801Y-116258000I-249999J0D01*
G01*
G37*
G36*
G01*
X136469801Y-114483000D02*
X135919799Y-114483000D01*
G75*
G02*
X135669800Y-114233001I0J249999D01*
G01*
X135669800Y-113607999D01*
G75*
G02*
X135919799Y-113358000I249999J0D01*
G01*
X136469801Y-113358000D01*
G75*
G02*
X136719800Y-113607999I0J-249999D01*
G01*
X136719800Y-114233001D01*
G75*
G02*
X136469801Y-114483000I-249999J0D01*
G01*
G37*
%TD*%
%TO.C,R1*%
G36*
G01*
X140713750Y-120390200D02*
X141226250Y-120390200D01*
G75*
G02*
X141445000Y-120608950I0J-218750D01*
G01*
X141445000Y-121046450D01*
G75*
G02*
X141226250Y-121265200I-218750J0D01*
G01*
X140713750Y-121265200D01*
G75*
G02*
X140495000Y-121046450I0J218750D01*
G01*
X140495000Y-120608950D01*
G75*
G02*
X140713750Y-120390200I218750J0D01*
G01*
G37*
G36*
G01*
X140713750Y-121965200D02*
X141226250Y-121965200D01*
G75*
G02*
X141445000Y-122183950I0J-218750D01*
G01*
X141445000Y-122621450D01*
G75*
G02*
X141226250Y-122840200I-218750J0D01*
G01*
X140713750Y-122840200D01*
G75*
G02*
X140495000Y-122621450I0J218750D01*
G01*
X140495000Y-122183950D01*
G75*
G02*
X140713750Y-121965200I218750J0D01*
G01*
G37*
%TD*%
%TO.C,R2*%
G36*
G01*
X144833050Y-114813600D02*
X144320550Y-114813600D01*
G75*
G02*
X144101800Y-114594850I0J218750D01*
G01*
X144101800Y-114157350D01*
G75*
G02*
X144320550Y-113938600I218750J0D01*
G01*
X144833050Y-113938600D01*
G75*
G02*
X145051800Y-114157350I0J-218750D01*
G01*
X145051800Y-114594850D01*
G75*
G02*
X144833050Y-114813600I-218750J0D01*
G01*
G37*
G36*
G01*
X144833050Y-116388600D02*
X144320550Y-116388600D01*
G75*
G02*
X144101800Y-116169850I0J218750D01*
G01*
X144101800Y-115732350D01*
G75*
G02*
X144320550Y-115513600I218750J0D01*
G01*
X144833050Y-115513600D01*
G75*
G02*
X145051800Y-115732350I0J-218750D01*
G01*
X145051800Y-116169850D01*
G75*
G02*
X144833050Y-116388600I-218750J0D01*
G01*
G37*
%TD*%
%TO.C,R3*%
G36*
G01*
X143258250Y-116388600D02*
X142745750Y-116388600D01*
G75*
G02*
X142527000Y-116169850I0J218750D01*
G01*
X142527000Y-115732350D01*
G75*
G02*
X142745750Y-115513600I218750J0D01*
G01*
X143258250Y-115513600D01*
G75*
G02*
X143477000Y-115732350I0J-218750D01*
G01*
X143477000Y-116169850D01*
G75*
G02*
X143258250Y-116388600I-218750J0D01*
G01*
G37*
G36*
G01*
X143258250Y-114813600D02*
X142745750Y-114813600D01*
G75*
G02*
X142527000Y-114594850I0J218750D01*
G01*
X142527000Y-114157350D01*
G75*
G02*
X142745750Y-113938600I218750J0D01*
G01*
X143258250Y-113938600D01*
G75*
G02*
X143477000Y-114157350I0J-218750D01*
G01*
X143477000Y-114594850D01*
G75*
G02*
X143258250Y-114813600I-218750J0D01*
G01*
G37*
%TD*%
%TO.C,R4*%
G36*
G01*
X136036600Y-121566650D02*
X136036600Y-121054150D01*
G75*
G02*
X136255350Y-120835400I218750J0D01*
G01*
X136692850Y-120835400D01*
G75*
G02*
X136911600Y-121054150I0J-218750D01*
G01*
X136911600Y-121566650D01*
G75*
G02*
X136692850Y-121785400I-218750J0D01*
G01*
X136255350Y-121785400D01*
G75*
G02*
X136036600Y-121566650I0J218750D01*
G01*
G37*
G36*
G01*
X137611600Y-121566650D02*
X137611600Y-121054150D01*
G75*
G02*
X137830350Y-120835400I218750J0D01*
G01*
X138267850Y-120835400D01*
G75*
G02*
X138486600Y-121054150I0J-218750D01*
G01*
X138486600Y-121566650D01*
G75*
G02*
X138267850Y-121785400I-218750J0D01*
G01*
X137830350Y-121785400D01*
G75*
G02*
X137611600Y-121566650I0J218750D01*
G01*
G37*
%TD*%
%TO.C,R5*%
G36*
G01*
X138279850Y-116337800D02*
X137767350Y-116337800D01*
G75*
G02*
X137548600Y-116119050I0J218750D01*
G01*
X137548600Y-115681550D01*
G75*
G02*
X137767350Y-115462800I218750J0D01*
G01*
X138279850Y-115462800D01*
G75*
G02*
X138498600Y-115681550I0J-218750D01*
G01*
X138498600Y-116119050D01*
G75*
G02*
X138279850Y-116337800I-218750J0D01*
G01*
G37*
G36*
G01*
X138279850Y-114762800D02*
X137767350Y-114762800D01*
G75*
G02*
X137548600Y-114544050I0J218750D01*
G01*
X137548600Y-114106550D01*
G75*
G02*
X137767350Y-113887800I218750J0D01*
G01*
X138279850Y-113887800D01*
G75*
G02*
X138498600Y-114106550I0J-218750D01*
G01*
X138498600Y-114544050D01*
G75*
G02*
X138279850Y-114762800I-218750J0D01*
G01*
G37*
%TD*%
%TO.C,R6*%
G36*
G01*
X139392950Y-115462800D02*
X139905450Y-115462800D01*
G75*
G02*
X140124200Y-115681550I0J-218750D01*
G01*
X140124200Y-116119050D01*
G75*
G02*
X139905450Y-116337800I-218750J0D01*
G01*
X139392950Y-116337800D01*
G75*
G02*
X139174200Y-116119050I0J218750D01*
G01*
X139174200Y-115681550D01*
G75*
G02*
X139392950Y-115462800I218750J0D01*
G01*
G37*
G36*
G01*
X139392950Y-113887800D02*
X139905450Y-113887800D01*
G75*
G02*
X140124200Y-114106550I0J-218750D01*
G01*
X140124200Y-114544050D01*
G75*
G02*
X139905450Y-114762800I-218750J0D01*
G01*
X139392950Y-114762800D01*
G75*
G02*
X139174200Y-114544050I0J218750D01*
G01*
X139174200Y-114106550D01*
G75*
G02*
X139392950Y-113887800I218750J0D01*
G01*
G37*
%TD*%
D12*
%TO.C,U1*%
X145475200Y-119313600D03*
X144975200Y-119313600D03*
X144475200Y-119313600D03*
X143975200Y-119313600D03*
X143475200Y-119313600D03*
X143475200Y-123713600D03*
X143975200Y-123713600D03*
X144475200Y-123713600D03*
X144975200Y-123713600D03*
X145475200Y-123713600D03*
%TD*%
%TO.C,U2*%
G36*
G01*
X146483200Y-104366200D02*
X146483200Y-104066200D01*
G75*
G02*
X146633200Y-103916200I150000J0D01*
G01*
X148283200Y-103916200D01*
G75*
G02*
X148433200Y-104066200I0J-150000D01*
G01*
X148433200Y-104366200D01*
G75*
G02*
X148283200Y-104516200I-150000J0D01*
G01*
X146633200Y-104516200D01*
G75*
G02*
X146483200Y-104366200I0J150000D01*
G01*
G37*
G36*
G01*
X146483200Y-105636200D02*
X146483200Y-105336200D01*
G75*
G02*
X146633200Y-105186200I150000J0D01*
G01*
X148283200Y-105186200D01*
G75*
G02*
X148433200Y-105336200I0J-150000D01*
G01*
X148433200Y-105636200D01*
G75*
G02*
X148283200Y-105786200I-150000J0D01*
G01*
X146633200Y-105786200D01*
G75*
G02*
X146483200Y-105636200I0J150000D01*
G01*
G37*
G36*
G01*
X146483200Y-106906200D02*
X146483200Y-106606200D01*
G75*
G02*
X146633200Y-106456200I150000J0D01*
G01*
X148283200Y-106456200D01*
G75*
G02*
X148433200Y-106606200I0J-150000D01*
G01*
X148433200Y-106906200D01*
G75*
G02*
X148283200Y-107056200I-150000J0D01*
G01*
X146633200Y-107056200D01*
G75*
G02*
X146483200Y-106906200I0J150000D01*
G01*
G37*
G36*
G01*
X146483200Y-108176200D02*
X146483200Y-107876200D01*
G75*
G02*
X146633200Y-107726200I150000J0D01*
G01*
X148283200Y-107726200D01*
G75*
G02*
X148433200Y-107876200I0J-150000D01*
G01*
X148433200Y-108176200D01*
G75*
G02*
X148283200Y-108326200I-150000J0D01*
G01*
X146633200Y-108326200D01*
G75*
G02*
X146483200Y-108176200I0J150000D01*
G01*
G37*
G36*
G01*
X141533200Y-108176200D02*
X141533200Y-107876200D01*
G75*
G02*
X141683200Y-107726200I150000J0D01*
G01*
X143333200Y-107726200D01*
G75*
G02*
X143483200Y-107876200I0J-150000D01*
G01*
X143483200Y-108176200D01*
G75*
G02*
X143333200Y-108326200I-150000J0D01*
G01*
X141683200Y-108326200D01*
G75*
G02*
X141533200Y-108176200I0J150000D01*
G01*
G37*
G36*
G01*
X141533200Y-106906200D02*
X141533200Y-106606200D01*
G75*
G02*
X141683200Y-106456200I150000J0D01*
G01*
X143333200Y-106456200D01*
G75*
G02*
X143483200Y-106606200I0J-150000D01*
G01*
X143483200Y-106906200D01*
G75*
G02*
X143333200Y-107056200I-150000J0D01*
G01*
X141683200Y-107056200D01*
G75*
G02*
X141533200Y-106906200I0J150000D01*
G01*
G37*
G36*
G01*
X141533200Y-105636200D02*
X141533200Y-105336200D01*
G75*
G02*
X141683200Y-105186200I150000J0D01*
G01*
X143333200Y-105186200D01*
G75*
G02*
X143483200Y-105336200I0J-150000D01*
G01*
X143483200Y-105636200D01*
G75*
G02*
X143333200Y-105786200I-150000J0D01*
G01*
X141683200Y-105786200D01*
G75*
G02*
X141533200Y-105636200I0J150000D01*
G01*
G37*
G36*
G01*
X141533200Y-104366200D02*
X141533200Y-104066200D01*
G75*
G02*
X141683200Y-103916200I150000J0D01*
G01*
X143333200Y-103916200D01*
G75*
G02*
X143483200Y-104066200I0J-150000D01*
G01*
X143483200Y-104366200D01*
G75*
G02*
X143333200Y-104516200I-150000J0D01*
G01*
X141683200Y-104516200D01*
G75*
G02*
X141533200Y-104366200I0J150000D01*
G01*
G37*
%TD*%
%TO.C,U3*%
G36*
G01*
X135506600Y-110587200D02*
X135206600Y-110587200D01*
G75*
G02*
X135056600Y-110437200I0J150000D01*
G01*
X135056600Y-108787200D01*
G75*
G02*
X135206600Y-108637200I150000J0D01*
G01*
X135506600Y-108637200D01*
G75*
G02*
X135656600Y-108787200I0J-150000D01*
G01*
X135656600Y-110437200D01*
G75*
G02*
X135506600Y-110587200I-150000J0D01*
G01*
G37*
G36*
G01*
X136776600Y-110587200D02*
X136476600Y-110587200D01*
G75*
G02*
X136326600Y-110437200I0J150000D01*
G01*
X136326600Y-108787200D01*
G75*
G02*
X136476600Y-108637200I150000J0D01*
G01*
X136776600Y-108637200D01*
G75*
G02*
X136926600Y-108787200I0J-150000D01*
G01*
X136926600Y-110437200D01*
G75*
G02*
X136776600Y-110587200I-150000J0D01*
G01*
G37*
G36*
G01*
X138046600Y-110587200D02*
X137746600Y-110587200D01*
G75*
G02*
X137596600Y-110437200I0J150000D01*
G01*
X137596600Y-108787200D01*
G75*
G02*
X137746600Y-108637200I150000J0D01*
G01*
X138046600Y-108637200D01*
G75*
G02*
X138196600Y-108787200I0J-150000D01*
G01*
X138196600Y-110437200D01*
G75*
G02*
X138046600Y-110587200I-150000J0D01*
G01*
G37*
G36*
G01*
X139316600Y-110587200D02*
X139016600Y-110587200D01*
G75*
G02*
X138866600Y-110437200I0J150000D01*
G01*
X138866600Y-108787200D01*
G75*
G02*
X139016600Y-108637200I150000J0D01*
G01*
X139316600Y-108637200D01*
G75*
G02*
X139466600Y-108787200I0J-150000D01*
G01*
X139466600Y-110437200D01*
G75*
G02*
X139316600Y-110587200I-150000J0D01*
G01*
G37*
G36*
G01*
X139316600Y-105637200D02*
X139016600Y-105637200D01*
G75*
G02*
X138866600Y-105487200I0J150000D01*
G01*
X138866600Y-103837200D01*
G75*
G02*
X139016600Y-103687200I150000J0D01*
G01*
X139316600Y-103687200D01*
G75*
G02*
X139466600Y-103837200I0J-150000D01*
G01*
X139466600Y-105487200D01*
G75*
G02*
X139316600Y-105637200I-150000J0D01*
G01*
G37*
G36*
G01*
X138046600Y-105637200D02*
X137746600Y-105637200D01*
G75*
G02*
X137596600Y-105487200I0J150000D01*
G01*
X137596600Y-103837200D01*
G75*
G02*
X137746600Y-103687200I150000J0D01*
G01*
X138046600Y-103687200D01*
G75*
G02*
X138196600Y-103837200I0J-150000D01*
G01*
X138196600Y-105487200D01*
G75*
G02*
X138046600Y-105637200I-150000J0D01*
G01*
G37*
G36*
G01*
X136776600Y-105637200D02*
X136476600Y-105637200D01*
G75*
G02*
X136326600Y-105487200I0J150000D01*
G01*
X136326600Y-103837200D01*
G75*
G02*
X136476600Y-103687200I150000J0D01*
G01*
X136776600Y-103687200D01*
G75*
G02*
X136926600Y-103837200I0J-150000D01*
G01*
X136926600Y-105487200D01*
G75*
G02*
X136776600Y-105637200I-150000J0D01*
G01*
G37*
G36*
G01*
X135506600Y-105637200D02*
X135206600Y-105637200D01*
G75*
G02*
X135056600Y-105487200I0J150000D01*
G01*
X135056600Y-103837200D01*
G75*
G02*
X135206600Y-103687200I150000J0D01*
G01*
X135506600Y-103687200D01*
G75*
G02*
X135656600Y-103837200I0J-150000D01*
G01*
X135656600Y-105487200D01*
G75*
G02*
X135506600Y-105637200I-150000J0D01*
G01*
G37*
%TD*%
%TO.C,U4*%
G36*
G01*
X141602600Y-139075800D02*
X141302600Y-139075800D01*
G75*
G02*
X141152600Y-138925800I0J150000D01*
G01*
X141152600Y-137175800D01*
G75*
G02*
X141302600Y-137025800I150000J0D01*
G01*
X141602600Y-137025800D01*
G75*
G02*
X141752600Y-137175800I0J-150000D01*
G01*
X141752600Y-138925800D01*
G75*
G02*
X141602600Y-139075800I-150000J0D01*
G01*
G37*
G36*
G01*
X142872600Y-139075800D02*
X142572600Y-139075800D01*
G75*
G02*
X142422600Y-138925800I0J150000D01*
G01*
X142422600Y-137175800D01*
G75*
G02*
X142572600Y-137025800I150000J0D01*
G01*
X142872600Y-137025800D01*
G75*
G02*
X143022600Y-137175800I0J-150000D01*
G01*
X143022600Y-138925800D01*
G75*
G02*
X142872600Y-139075800I-150000J0D01*
G01*
G37*
G36*
G01*
X144142600Y-139075800D02*
X143842600Y-139075800D01*
G75*
G02*
X143692600Y-138925800I0J150000D01*
G01*
X143692600Y-137175800D01*
G75*
G02*
X143842600Y-137025800I150000J0D01*
G01*
X144142600Y-137025800D01*
G75*
G02*
X144292600Y-137175800I0J-150000D01*
G01*
X144292600Y-138925800D01*
G75*
G02*
X144142600Y-139075800I-150000J0D01*
G01*
G37*
G36*
G01*
X145412600Y-139075800D02*
X145112600Y-139075800D01*
G75*
G02*
X144962600Y-138925800I0J150000D01*
G01*
X144962600Y-137175800D01*
G75*
G02*
X145112600Y-137025800I150000J0D01*
G01*
X145412600Y-137025800D01*
G75*
G02*
X145562600Y-137175800I0J-150000D01*
G01*
X145562600Y-138925800D01*
G75*
G02*
X145412600Y-139075800I-150000J0D01*
G01*
G37*
G36*
G01*
X146682600Y-139075800D02*
X146382600Y-139075800D01*
G75*
G02*
X146232600Y-138925800I0J150000D01*
G01*
X146232600Y-137175800D01*
G75*
G02*
X146382600Y-137025800I150000J0D01*
G01*
X146682600Y-137025800D01*
G75*
G02*
X146832600Y-137175800I0J-150000D01*
G01*
X146832600Y-138925800D01*
G75*
G02*
X146682600Y-139075800I-150000J0D01*
G01*
G37*
G36*
G01*
X147952600Y-139075800D02*
X147652600Y-139075800D01*
G75*
G02*
X147502600Y-138925800I0J150000D01*
G01*
X147502600Y-137175800D01*
G75*
G02*
X147652600Y-137025800I150000J0D01*
G01*
X147952600Y-137025800D01*
G75*
G02*
X148102600Y-137175800I0J-150000D01*
G01*
X148102600Y-138925800D01*
G75*
G02*
X147952600Y-139075800I-150000J0D01*
G01*
G37*
G36*
G01*
X149222600Y-139075800D02*
X148922600Y-139075800D01*
G75*
G02*
X148772600Y-138925800I0J150000D01*
G01*
X148772600Y-137175800D01*
G75*
G02*
X148922600Y-137025800I150000J0D01*
G01*
X149222600Y-137025800D01*
G75*
G02*
X149372600Y-137175800I0J-150000D01*
G01*
X149372600Y-138925800D01*
G75*
G02*
X149222600Y-139075800I-150000J0D01*
G01*
G37*
G36*
G01*
X150492600Y-139075800D02*
X150192600Y-139075800D01*
G75*
G02*
X150042600Y-138925800I0J150000D01*
G01*
X150042600Y-137175800D01*
G75*
G02*
X150192600Y-137025800I150000J0D01*
G01*
X150492600Y-137025800D01*
G75*
G02*
X150642600Y-137175800I0J-150000D01*
G01*
X150642600Y-138925800D01*
G75*
G02*
X150492600Y-139075800I-150000J0D01*
G01*
G37*
G36*
G01*
X150492600Y-129775800D02*
X150192600Y-129775800D01*
G75*
G02*
X150042600Y-129625800I0J150000D01*
G01*
X150042600Y-127875800D01*
G75*
G02*
X150192600Y-127725800I150000J0D01*
G01*
X150492600Y-127725800D01*
G75*
G02*
X150642600Y-127875800I0J-150000D01*
G01*
X150642600Y-129625800D01*
G75*
G02*
X150492600Y-129775800I-150000J0D01*
G01*
G37*
G36*
G01*
X149222600Y-129775800D02*
X148922600Y-129775800D01*
G75*
G02*
X148772600Y-129625800I0J150000D01*
G01*
X148772600Y-127875800D01*
G75*
G02*
X148922600Y-127725800I150000J0D01*
G01*
X149222600Y-127725800D01*
G75*
G02*
X149372600Y-127875800I0J-150000D01*
G01*
X149372600Y-129625800D01*
G75*
G02*
X149222600Y-129775800I-150000J0D01*
G01*
G37*
G36*
G01*
X147952600Y-129775800D02*
X147652600Y-129775800D01*
G75*
G02*
X147502600Y-129625800I0J150000D01*
G01*
X147502600Y-127875800D01*
G75*
G02*
X147652600Y-127725800I150000J0D01*
G01*
X147952600Y-127725800D01*
G75*
G02*
X148102600Y-127875800I0J-150000D01*
G01*
X148102600Y-129625800D01*
G75*
G02*
X147952600Y-129775800I-150000J0D01*
G01*
G37*
G36*
G01*
X146682600Y-129775800D02*
X146382600Y-129775800D01*
G75*
G02*
X146232600Y-129625800I0J150000D01*
G01*
X146232600Y-127875800D01*
G75*
G02*
X146382600Y-127725800I150000J0D01*
G01*
X146682600Y-127725800D01*
G75*
G02*
X146832600Y-127875800I0J-150000D01*
G01*
X146832600Y-129625800D01*
G75*
G02*
X146682600Y-129775800I-150000J0D01*
G01*
G37*
G36*
G01*
X145412600Y-129775800D02*
X145112600Y-129775800D01*
G75*
G02*
X144962600Y-129625800I0J150000D01*
G01*
X144962600Y-127875800D01*
G75*
G02*
X145112600Y-127725800I150000J0D01*
G01*
X145412600Y-127725800D01*
G75*
G02*
X145562600Y-127875800I0J-150000D01*
G01*
X145562600Y-129625800D01*
G75*
G02*
X145412600Y-129775800I-150000J0D01*
G01*
G37*
G36*
G01*
X144142600Y-129775800D02*
X143842600Y-129775800D01*
G75*
G02*
X143692600Y-129625800I0J150000D01*
G01*
X143692600Y-127875800D01*
G75*
G02*
X143842600Y-127725800I150000J0D01*
G01*
X144142600Y-127725800D01*
G75*
G02*
X144292600Y-127875800I0J-150000D01*
G01*
X144292600Y-129625800D01*
G75*
G02*
X144142600Y-129775800I-150000J0D01*
G01*
G37*
G36*
G01*
X142872600Y-129775800D02*
X142572600Y-129775800D01*
G75*
G02*
X142422600Y-129625800I0J150000D01*
G01*
X142422600Y-127875800D01*
G75*
G02*
X142572600Y-127725800I150000J0D01*
G01*
X142872600Y-127725800D01*
G75*
G02*
X143022600Y-127875800I0J-150000D01*
G01*
X143022600Y-129625800D01*
G75*
G02*
X142872600Y-129775800I-150000J0D01*
G01*
G37*
G36*
G01*
X141602600Y-129775800D02*
X141302600Y-129775800D01*
G75*
G02*
X141152600Y-129625800I0J150000D01*
G01*
X141152600Y-127875800D01*
G75*
G02*
X141302600Y-127725800I150000J0D01*
G01*
X141602600Y-127725800D01*
G75*
G02*
X141752600Y-127875800I0J-150000D01*
G01*
X141752600Y-129625800D01*
G75*
G02*
X141602600Y-129775800I-150000J0D01*
G01*
G37*
%TD*%
D13*
%TO.C,U5*%
X138059200Y-117567200D03*
X136159200Y-117567200D03*
X137109200Y-119567200D03*
%TD*%
D14*
%TO.C,U6*%
X136702800Y-129692400D03*
X136702800Y-132232400D03*
X136702800Y-134772400D03*
D15*
X136702800Y-137312400D03*
%TD*%
%TO.C,C12*%
G36*
G01*
X133954000Y-122684250D02*
X133954000Y-122171750D01*
G75*
G02*
X134172750Y-121953000I218750J0D01*
G01*
X134610250Y-121953000D01*
G75*
G02*
X134829000Y-122171750I0J-218750D01*
G01*
X134829000Y-122684250D01*
G75*
G02*
X134610250Y-122903000I-218750J0D01*
G01*
X134172750Y-122903000D01*
G75*
G02*
X133954000Y-122684250I0J218750D01*
G01*
G37*
G36*
G01*
X132379000Y-122684250D02*
X132379000Y-122171750D01*
G75*
G02*
X132597750Y-121953000I218750J0D01*
G01*
X133035250Y-121953000D01*
G75*
G02*
X133254000Y-122171750I0J-218750D01*
G01*
X133254000Y-122684250D01*
G75*
G02*
X133035250Y-122903000I-218750J0D01*
G01*
X132597750Y-122903000D01*
G75*
G02*
X132379000Y-122684250I0J218750D01*
G01*
G37*
%TD*%
%TO.C,C13*%
G36*
G01*
X136189000Y-126875250D02*
X136189000Y-126362750D01*
G75*
G02*
X136407750Y-126144000I218750J0D01*
G01*
X136845250Y-126144000D01*
G75*
G02*
X137064000Y-126362750I0J-218750D01*
G01*
X137064000Y-126875250D01*
G75*
G02*
X136845250Y-127094000I-218750J0D01*
G01*
X136407750Y-127094000D01*
G75*
G02*
X136189000Y-126875250I0J218750D01*
G01*
G37*
G36*
G01*
X137764000Y-126875250D02*
X137764000Y-126362750D01*
G75*
G02*
X137982750Y-126144000I218750J0D01*
G01*
X138420250Y-126144000D01*
G75*
G02*
X138639000Y-126362750I0J-218750D01*
G01*
X138639000Y-126875250D01*
G75*
G02*
X138420250Y-127094000I-218750J0D01*
G01*
X137982750Y-127094000D01*
G75*
G02*
X137764000Y-126875250I0J218750D01*
G01*
G37*
%TD*%
D16*
%TO.C,U7*%
X133035000Y-126576000D03*
X133985000Y-126576000D03*
X134935000Y-126576000D03*
X134935000Y-124376000D03*
X133035000Y-124376000D03*
%TD*%
D17*
%TO.C,J2*%
X135280400Y-144780000D03*
D18*
X137820400Y-144780000D03*
X140360400Y-144780000D03*
X142900400Y-144780000D03*
X145440400Y-144780000D03*
X147980400Y-144780000D03*
%TD*%
%TO.C,C2*%
G36*
G01*
X149728601Y-118086800D02*
X149178599Y-118086800D01*
G75*
G02*
X148928600Y-117836801I0J249999D01*
G01*
X148928600Y-117211799D01*
G75*
G02*
X149178599Y-116961800I249999J0D01*
G01*
X149728601Y-116961800D01*
G75*
G02*
X149978600Y-117211799I0J-249999D01*
G01*
X149978600Y-117836801D01*
G75*
G02*
X149728601Y-118086800I-249999J0D01*
G01*
G37*
G36*
G01*
X149728601Y-116311800D02*
X149178599Y-116311800D01*
G75*
G02*
X148928600Y-116061801I0J249999D01*
G01*
X148928600Y-115436799D01*
G75*
G02*
X149178599Y-115186800I249999J0D01*
G01*
X149728601Y-115186800D01*
G75*
G02*
X149978600Y-115436799I0J-249999D01*
G01*
X149978600Y-116061801D01*
G75*
G02*
X149728601Y-116311800I-249999J0D01*
G01*
G37*
%TD*%
%TO.C,C4*%
G36*
G01*
X149178599Y-120568600D02*
X149728601Y-120568600D01*
G75*
G02*
X149978600Y-120818599I0J-249999D01*
G01*
X149978600Y-121443601D01*
G75*
G02*
X149728601Y-121693600I-249999J0D01*
G01*
X149178599Y-121693600D01*
G75*
G02*
X148928600Y-121443601I0J249999D01*
G01*
X148928600Y-120818599D01*
G75*
G02*
X149178599Y-120568600I249999J0D01*
G01*
G37*
G36*
G01*
X149178599Y-118793600D02*
X149728601Y-118793600D01*
G75*
G02*
X149978600Y-119043599I0J-249999D01*
G01*
X149978600Y-119668601D01*
G75*
G02*
X149728601Y-119918600I-249999J0D01*
G01*
X149178599Y-119918600D01*
G75*
G02*
X148928600Y-119668601I0J249999D01*
G01*
X148928600Y-119043599D01*
G75*
G02*
X149178599Y-118793600I249999J0D01*
G01*
G37*
%TD*%
M02*
