%TF.GenerationSoftware,KiCad,Pcbnew,(5.1.10)-1*%
%TF.CreationDate,2021-07-01T21:18:45-05:00*%
%TF.ProjectId,orpMeter,6f72704d-6574-4657-922e-6b696361645f,A0*%
%TF.SameCoordinates,Original*%
%TF.FileFunction,Copper,L1,Top*%
%TF.FilePolarity,Positive*%
%FSLAX46Y46*%
G04 Gerber Fmt 4.6, Leading zero omitted, Abs format (unit mm)*
G04 Created by KiCad (PCBNEW (5.1.10)-1) date 2021-07-01 21:18:45*
%MOMM*%
%LPD*%
G01*
G04 APERTURE LIST*
%TA.AperFunction,ComponentPad*%
%ADD10O,3.500000X7.000000*%
%TD*%
%TA.AperFunction,ComponentPad*%
%ADD11O,1.600000X2.500000*%
%TD*%
%TA.AperFunction,SMDPad,CuDef*%
%ADD12R,0.300000X1.400000*%
%TD*%
%TA.AperFunction,SMDPad,CuDef*%
%ADD13R,0.800000X0.900000*%
%TD*%
%TA.AperFunction,ComponentPad*%
%ADD14O,2.250000X1.750000*%
%TD*%
%TA.AperFunction,ComponentPad*%
%ADD15R,2.250000X1.750000*%
%TD*%
%TA.AperFunction,SMDPad,CuDef*%
%ADD16R,0.650000X1.060000*%
%TD*%
%TA.AperFunction,ComponentPad*%
%ADD17R,1.700000X1.700000*%
%TD*%
%TA.AperFunction,ComponentPad*%
%ADD18O,1.700000X1.700000*%
%TD*%
%TA.AperFunction,ViaPad*%
%ADD19C,0.800000*%
%TD*%
%TA.AperFunction,Conductor*%
%ADD20C,0.250000*%
%TD*%
%TA.AperFunction,Conductor*%
%ADD21C,0.254000*%
%TD*%
%TA.AperFunction,Conductor*%
%ADD22C,0.100000*%
%TD*%
G04 APERTURE END LIST*
D10*
%TO.P,J1,MP*%
%TO.N,N/C*%
X136398000Y-93421200D03*
X146558000Y-93421200D03*
D11*
%TO.P,J1,1*%
%TO.N,Net-(J1-Pad1)*%
X141478000Y-98501200D03*
%TO.P,J1,2*%
%TO.N,Net-(J1-Pad2)*%
X138938000Y-98501200D03*
%TD*%
%TO.P,C1,1*%
%TO.N,/REF_V*%
%TA.AperFunction,SMDPad,CuDef*%
G36*
G01*
X147931850Y-118065000D02*
X147419350Y-118065000D01*
G75*
G02*
X147200600Y-117846250I0J218750D01*
G01*
X147200600Y-117408750D01*
G75*
G02*
X147419350Y-117190000I218750J0D01*
G01*
X147931850Y-117190000D01*
G75*
G02*
X148150600Y-117408750I0J-218750D01*
G01*
X148150600Y-117846250D01*
G75*
G02*
X147931850Y-118065000I-218750J0D01*
G01*
G37*
%TD.AperFunction*%
%TO.P,C1,2*%
%TO.N,GNDA*%
%TA.AperFunction,SMDPad,CuDef*%
G36*
G01*
X147931850Y-116490000D02*
X147419350Y-116490000D01*
G75*
G02*
X147200600Y-116271250I0J218750D01*
G01*
X147200600Y-115833750D01*
G75*
G02*
X147419350Y-115615000I218750J0D01*
G01*
X147931850Y-115615000D01*
G75*
G02*
X148150600Y-115833750I0J-218750D01*
G01*
X148150600Y-116271250D01*
G75*
G02*
X147931850Y-116490000I-218750J0D01*
G01*
G37*
%TD.AperFunction*%
%TD*%
%TO.P,C3,2*%
%TO.N,GNDA*%
%TA.AperFunction,SMDPad,CuDef*%
G36*
G01*
X147419350Y-120390400D02*
X147931850Y-120390400D01*
G75*
G02*
X148150600Y-120609150I0J-218750D01*
G01*
X148150600Y-121046650D01*
G75*
G02*
X147931850Y-121265400I-218750J0D01*
G01*
X147419350Y-121265400D01*
G75*
G02*
X147200600Y-121046650I0J218750D01*
G01*
X147200600Y-120609150D01*
G75*
G02*
X147419350Y-120390400I218750J0D01*
G01*
G37*
%TD.AperFunction*%
%TO.P,C3,1*%
%TO.N,VDDA*%
%TA.AperFunction,SMDPad,CuDef*%
G36*
G01*
X147419350Y-118815400D02*
X147931850Y-118815400D01*
G75*
G02*
X148150600Y-119034150I0J-218750D01*
G01*
X148150600Y-119471650D01*
G75*
G02*
X147931850Y-119690400I-218750J0D01*
G01*
X147419350Y-119690400D01*
G75*
G02*
X147200600Y-119471650I0J218750D01*
G01*
X147200600Y-119034150D01*
G75*
G02*
X147419350Y-118815400I218750J0D01*
G01*
G37*
%TD.AperFunction*%
%TD*%
%TO.P,C5,1*%
%TO.N,Net-(C5-Pad1)*%
%TA.AperFunction,SMDPad,CuDef*%
G36*
G01*
X144063000Y-117705850D02*
X144063000Y-117193350D01*
G75*
G02*
X144281750Y-116974600I218750J0D01*
G01*
X144719250Y-116974600D01*
G75*
G02*
X144938000Y-117193350I0J-218750D01*
G01*
X144938000Y-117705850D01*
G75*
G02*
X144719250Y-117924600I-218750J0D01*
G01*
X144281750Y-117924600D01*
G75*
G02*
X144063000Y-117705850I0J218750D01*
G01*
G37*
%TD.AperFunction*%
%TO.P,C5,2*%
%TO.N,GNDA*%
%TA.AperFunction,SMDPad,CuDef*%
G36*
G01*
X145638000Y-117705850D02*
X145638000Y-117193350D01*
G75*
G02*
X145856750Y-116974600I218750J0D01*
G01*
X146294250Y-116974600D01*
G75*
G02*
X146513000Y-117193350I0J-218750D01*
G01*
X146513000Y-117705850D01*
G75*
G02*
X146294250Y-117924600I-218750J0D01*
G01*
X145856750Y-117924600D01*
G75*
G02*
X145638000Y-117705850I0J218750D01*
G01*
G37*
%TD.AperFunction*%
%TD*%
%TO.P,C6,2*%
%TO.N,GNDA*%
%TA.AperFunction,SMDPad,CuDef*%
G36*
G01*
X141940800Y-117193350D02*
X141940800Y-117705850D01*
G75*
G02*
X141722050Y-117924600I-218750J0D01*
G01*
X141284550Y-117924600D01*
G75*
G02*
X141065800Y-117705850I0J218750D01*
G01*
X141065800Y-117193350D01*
G75*
G02*
X141284550Y-116974600I218750J0D01*
G01*
X141722050Y-116974600D01*
G75*
G02*
X141940800Y-117193350I0J-218750D01*
G01*
G37*
%TD.AperFunction*%
%TO.P,C6,1*%
%TO.N,Net-(C6-Pad1)*%
%TA.AperFunction,SMDPad,CuDef*%
G36*
G01*
X143515800Y-117193350D02*
X143515800Y-117705850D01*
G75*
G02*
X143297050Y-117924600I-218750J0D01*
G01*
X142859550Y-117924600D01*
G75*
G02*
X142640800Y-117705850I0J218750D01*
G01*
X142640800Y-117193350D01*
G75*
G02*
X142859550Y-116974600I218750J0D01*
G01*
X143297050Y-116974600D01*
G75*
G02*
X143515800Y-117193350I0J-218750D01*
G01*
G37*
%TD.AperFunction*%
%TD*%
%TO.P,C7,1*%
%TO.N,VDDA*%
%TA.AperFunction,SMDPad,CuDef*%
G36*
G01*
X149788199Y-106195200D02*
X150338201Y-106195200D01*
G75*
G02*
X150588200Y-106445199I0J-249999D01*
G01*
X150588200Y-107070201D01*
G75*
G02*
X150338201Y-107320200I-249999J0D01*
G01*
X149788199Y-107320200D01*
G75*
G02*
X149538200Y-107070201I0J249999D01*
G01*
X149538200Y-106445199D01*
G75*
G02*
X149788199Y-106195200I249999J0D01*
G01*
G37*
%TD.AperFunction*%
%TO.P,C7,2*%
%TO.N,GNDA*%
%TA.AperFunction,SMDPad,CuDef*%
G36*
G01*
X149788199Y-107970200D02*
X150338201Y-107970200D01*
G75*
G02*
X150588200Y-108220199I0J-249999D01*
G01*
X150588200Y-108845201D01*
G75*
G02*
X150338201Y-109095200I-249999J0D01*
G01*
X149788199Y-109095200D01*
G75*
G02*
X149538200Y-108845201I0J249999D01*
G01*
X149538200Y-108220199D01*
G75*
G02*
X149788199Y-107970200I249999J0D01*
G01*
G37*
%TD.AperFunction*%
%TD*%
%TO.P,C8,2*%
%TO.N,GNDA*%
%TA.AperFunction,SMDPad,CuDef*%
G36*
G01*
X139110600Y-102433801D02*
X139110600Y-101883799D01*
G75*
G02*
X139360599Y-101633800I249999J0D01*
G01*
X139985601Y-101633800D01*
G75*
G02*
X140235600Y-101883799I0J-249999D01*
G01*
X140235600Y-102433801D01*
G75*
G02*
X139985601Y-102683800I-249999J0D01*
G01*
X139360599Y-102683800D01*
G75*
G02*
X139110600Y-102433801I0J249999D01*
G01*
G37*
%TD.AperFunction*%
%TO.P,C8,1*%
%TO.N,VDDA*%
%TA.AperFunction,SMDPad,CuDef*%
G36*
G01*
X137335600Y-102433801D02*
X137335600Y-101883799D01*
G75*
G02*
X137585599Y-101633800I249999J0D01*
G01*
X138210601Y-101633800D01*
G75*
G02*
X138460600Y-101883799I0J-249999D01*
G01*
X138460600Y-102433801D01*
G75*
G02*
X138210601Y-102683800I-249999J0D01*
G01*
X137585599Y-102683800D01*
G75*
G02*
X137335600Y-102433801I0J249999D01*
G01*
G37*
%TD.AperFunction*%
%TD*%
%TO.P,C9,1*%
%TO.N,VDDA*%
%TA.AperFunction,SMDPad,CuDef*%
G36*
G01*
X141015000Y-126646650D02*
X141015000Y-126134150D01*
G75*
G02*
X141233750Y-125915400I218750J0D01*
G01*
X141671250Y-125915400D01*
G75*
G02*
X141890000Y-126134150I0J-218750D01*
G01*
X141890000Y-126646650D01*
G75*
G02*
X141671250Y-126865400I-218750J0D01*
G01*
X141233750Y-126865400D01*
G75*
G02*
X141015000Y-126646650I0J218750D01*
G01*
G37*
%TD.AperFunction*%
%TO.P,C9,2*%
%TO.N,GNDA*%
%TA.AperFunction,SMDPad,CuDef*%
G36*
G01*
X142590000Y-126646650D02*
X142590000Y-126134150D01*
G75*
G02*
X142808750Y-125915400I218750J0D01*
G01*
X143246250Y-125915400D01*
G75*
G02*
X143465000Y-126134150I0J-218750D01*
G01*
X143465000Y-126646650D01*
G75*
G02*
X143246250Y-126865400I-218750J0D01*
G01*
X142808750Y-126865400D01*
G75*
G02*
X142590000Y-126646650I0J218750D01*
G01*
G37*
%TD.AperFunction*%
%TD*%
%TO.P,C10,1*%
%TO.N,VDD*%
%TA.AperFunction,SMDPad,CuDef*%
G36*
G01*
X141814000Y-140205750D02*
X141814000Y-140718250D01*
G75*
G02*
X141595250Y-140937000I-218750J0D01*
G01*
X141157750Y-140937000D01*
G75*
G02*
X140939000Y-140718250I0J218750D01*
G01*
X140939000Y-140205750D01*
G75*
G02*
X141157750Y-139987000I218750J0D01*
G01*
X141595250Y-139987000D01*
G75*
G02*
X141814000Y-140205750I0J-218750D01*
G01*
G37*
%TD.AperFunction*%
%TO.P,C10,2*%
%TO.N,GND*%
%TA.AperFunction,SMDPad,CuDef*%
G36*
G01*
X140239000Y-140205750D02*
X140239000Y-140718250D01*
G75*
G02*
X140020250Y-140937000I-218750J0D01*
G01*
X139582750Y-140937000D01*
G75*
G02*
X139364000Y-140718250I0J218750D01*
G01*
X139364000Y-140205750D01*
G75*
G02*
X139582750Y-139987000I218750J0D01*
G01*
X140020250Y-139987000D01*
G75*
G02*
X140239000Y-140205750I0J-218750D01*
G01*
G37*
%TD.AperFunction*%
%TD*%
%TO.P,C11,1*%
%TO.N,/REF_V*%
%TA.AperFunction,SMDPad,CuDef*%
G36*
G01*
X136469801Y-116258000D02*
X135919799Y-116258000D01*
G75*
G02*
X135669800Y-116008001I0J249999D01*
G01*
X135669800Y-115382999D01*
G75*
G02*
X135919799Y-115133000I249999J0D01*
G01*
X136469801Y-115133000D01*
G75*
G02*
X136719800Y-115382999I0J-249999D01*
G01*
X136719800Y-116008001D01*
G75*
G02*
X136469801Y-116258000I-249999J0D01*
G01*
G37*
%TD.AperFunction*%
%TO.P,C11,2*%
%TO.N,GNDA*%
%TA.AperFunction,SMDPad,CuDef*%
G36*
G01*
X136469801Y-114483000D02*
X135919799Y-114483000D01*
G75*
G02*
X135669800Y-114233001I0J249999D01*
G01*
X135669800Y-113607999D01*
G75*
G02*
X135919799Y-113358000I249999J0D01*
G01*
X136469801Y-113358000D01*
G75*
G02*
X136719800Y-113607999I0J-249999D01*
G01*
X136719800Y-114233001D01*
G75*
G02*
X136469801Y-114483000I-249999J0D01*
G01*
G37*
%TD.AperFunction*%
%TD*%
%TO.P,R1,1*%
%TO.N,VDDA*%
%TA.AperFunction,SMDPad,CuDef*%
G36*
G01*
X140713750Y-120390200D02*
X141226250Y-120390200D01*
G75*
G02*
X141445000Y-120608950I0J-218750D01*
G01*
X141445000Y-121046450D01*
G75*
G02*
X141226250Y-121265200I-218750J0D01*
G01*
X140713750Y-121265200D01*
G75*
G02*
X140495000Y-121046450I0J218750D01*
G01*
X140495000Y-120608950D01*
G75*
G02*
X140713750Y-120390200I218750J0D01*
G01*
G37*
%TD.AperFunction*%
%TO.P,R1,2*%
%TO.N,/CS_ISO*%
%TA.AperFunction,SMDPad,CuDef*%
G36*
G01*
X140713750Y-121965200D02*
X141226250Y-121965200D01*
G75*
G02*
X141445000Y-122183950I0J-218750D01*
G01*
X141445000Y-122621450D01*
G75*
G02*
X141226250Y-122840200I-218750J0D01*
G01*
X140713750Y-122840200D01*
G75*
G02*
X140495000Y-122621450I0J218750D01*
G01*
X140495000Y-122183950D01*
G75*
G02*
X140713750Y-121965200I218750J0D01*
G01*
G37*
%TD.AperFunction*%
%TD*%
%TO.P,R2,2*%
%TO.N,/PROBE_V*%
%TA.AperFunction,SMDPad,CuDef*%
G36*
G01*
X144833050Y-114813600D02*
X144320550Y-114813600D01*
G75*
G02*
X144101800Y-114594850I0J218750D01*
G01*
X144101800Y-114157350D01*
G75*
G02*
X144320550Y-113938600I218750J0D01*
G01*
X144833050Y-113938600D01*
G75*
G02*
X145051800Y-114157350I0J-218750D01*
G01*
X145051800Y-114594850D01*
G75*
G02*
X144833050Y-114813600I-218750J0D01*
G01*
G37*
%TD.AperFunction*%
%TO.P,R2,1*%
%TO.N,Net-(C5-Pad1)*%
%TA.AperFunction,SMDPad,CuDef*%
G36*
G01*
X144833050Y-116388600D02*
X144320550Y-116388600D01*
G75*
G02*
X144101800Y-116169850I0J218750D01*
G01*
X144101800Y-115732350D01*
G75*
G02*
X144320550Y-115513600I218750J0D01*
G01*
X144833050Y-115513600D01*
G75*
G02*
X145051800Y-115732350I0J-218750D01*
G01*
X145051800Y-116169850D01*
G75*
G02*
X144833050Y-116388600I-218750J0D01*
G01*
G37*
%TD.AperFunction*%
%TD*%
%TO.P,R3,1*%
%TO.N,Net-(C6-Pad1)*%
%TA.AperFunction,SMDPad,CuDef*%
G36*
G01*
X143258250Y-116388600D02*
X142745750Y-116388600D01*
G75*
G02*
X142527000Y-116169850I0J218750D01*
G01*
X142527000Y-115732350D01*
G75*
G02*
X142745750Y-115513600I218750J0D01*
G01*
X143258250Y-115513600D01*
G75*
G02*
X143477000Y-115732350I0J-218750D01*
G01*
X143477000Y-116169850D01*
G75*
G02*
X143258250Y-116388600I-218750J0D01*
G01*
G37*
%TD.AperFunction*%
%TO.P,R3,2*%
%TO.N,/BIAS_V*%
%TA.AperFunction,SMDPad,CuDef*%
G36*
G01*
X143258250Y-114813600D02*
X142745750Y-114813600D01*
G75*
G02*
X142527000Y-114594850I0J218750D01*
G01*
X142527000Y-114157350D01*
G75*
G02*
X142745750Y-113938600I218750J0D01*
G01*
X143258250Y-113938600D01*
G75*
G02*
X143477000Y-114157350I0J-218750D01*
G01*
X143477000Y-114594850D01*
G75*
G02*
X143258250Y-114813600I-218750J0D01*
G01*
G37*
%TD.AperFunction*%
%TD*%
%TO.P,R4,1*%
%TO.N,VDDA*%
%TA.AperFunction,SMDPad,CuDef*%
G36*
G01*
X136036600Y-121566650D02*
X136036600Y-121054150D01*
G75*
G02*
X136255350Y-120835400I218750J0D01*
G01*
X136692850Y-120835400D01*
G75*
G02*
X136911600Y-121054150I0J-218750D01*
G01*
X136911600Y-121566650D01*
G75*
G02*
X136692850Y-121785400I-218750J0D01*
G01*
X136255350Y-121785400D01*
G75*
G02*
X136036600Y-121566650I0J218750D01*
G01*
G37*
%TD.AperFunction*%
%TO.P,R4,2*%
%TO.N,/REF_V*%
%TA.AperFunction,SMDPad,CuDef*%
G36*
G01*
X137611600Y-121566650D02*
X137611600Y-121054150D01*
G75*
G02*
X137830350Y-120835400I218750J0D01*
G01*
X138267850Y-120835400D01*
G75*
G02*
X138486600Y-121054150I0J-218750D01*
G01*
X138486600Y-121566650D01*
G75*
G02*
X138267850Y-121785400I-218750J0D01*
G01*
X137830350Y-121785400D01*
G75*
G02*
X137611600Y-121566650I0J218750D01*
G01*
G37*
%TD.AperFunction*%
%TD*%
%TO.P,R5,1*%
%TO.N,/REF_V*%
%TA.AperFunction,SMDPad,CuDef*%
G36*
G01*
X138279850Y-116337800D02*
X137767350Y-116337800D01*
G75*
G02*
X137548600Y-116119050I0J218750D01*
G01*
X137548600Y-115681550D01*
G75*
G02*
X137767350Y-115462800I218750J0D01*
G01*
X138279850Y-115462800D01*
G75*
G02*
X138498600Y-115681550I0J-218750D01*
G01*
X138498600Y-116119050D01*
G75*
G02*
X138279850Y-116337800I-218750J0D01*
G01*
G37*
%TD.AperFunction*%
%TO.P,R5,2*%
%TO.N,/BIAS_V*%
%TA.AperFunction,SMDPad,CuDef*%
G36*
G01*
X138279850Y-114762800D02*
X137767350Y-114762800D01*
G75*
G02*
X137548600Y-114544050I0J218750D01*
G01*
X137548600Y-114106550D01*
G75*
G02*
X137767350Y-113887800I218750J0D01*
G01*
X138279850Y-113887800D01*
G75*
G02*
X138498600Y-114106550I0J-218750D01*
G01*
X138498600Y-114544050D01*
G75*
G02*
X138279850Y-114762800I-218750J0D01*
G01*
G37*
%TD.AperFunction*%
%TD*%
%TO.P,R6,2*%
%TO.N,GNDA*%
%TA.AperFunction,SMDPad,CuDef*%
G36*
G01*
X139392950Y-115462800D02*
X139905450Y-115462800D01*
G75*
G02*
X140124200Y-115681550I0J-218750D01*
G01*
X140124200Y-116119050D01*
G75*
G02*
X139905450Y-116337800I-218750J0D01*
G01*
X139392950Y-116337800D01*
G75*
G02*
X139174200Y-116119050I0J218750D01*
G01*
X139174200Y-115681550D01*
G75*
G02*
X139392950Y-115462800I218750J0D01*
G01*
G37*
%TD.AperFunction*%
%TO.P,R6,1*%
%TO.N,/BIAS_V*%
%TA.AperFunction,SMDPad,CuDef*%
G36*
G01*
X139392950Y-113887800D02*
X139905450Y-113887800D01*
G75*
G02*
X140124200Y-114106550I0J-218750D01*
G01*
X140124200Y-114544050D01*
G75*
G02*
X139905450Y-114762800I-218750J0D01*
G01*
X139392950Y-114762800D01*
G75*
G02*
X139174200Y-114544050I0J218750D01*
G01*
X139174200Y-114106550D01*
G75*
G02*
X139392950Y-113887800I218750J0D01*
G01*
G37*
%TD.AperFunction*%
%TD*%
D12*
%TO.P,U1,1*%
%TO.N,VDDA*%
X145475200Y-119313600D03*
%TO.P,U1,2*%
%TO.N,/REF_V*%
X144975200Y-119313600D03*
%TO.P,U1,3*%
%TO.N,GNDA*%
X144475200Y-119313600D03*
%TO.P,U1,4*%
%TO.N,Net-(C5-Pad1)*%
X143975200Y-119313600D03*
%TO.P,U1,5*%
%TO.N,Net-(C6-Pad1)*%
X143475200Y-119313600D03*
%TO.P,U1,6*%
%TO.N,GNDA*%
X143475200Y-123713600D03*
%TO.P,U1,7*%
%TO.N,/CS_ISO*%
X143975200Y-123713600D03*
%TO.P,U1,8*%
%TO.N,/SDO_ISO*%
X144475200Y-123713600D03*
%TO.P,U1,9*%
%TO.N,/SCK_ISO*%
X144975200Y-123713600D03*
%TO.P,U1,10*%
%TO.N,GNDA*%
X145475200Y-123713600D03*
%TD*%
%TO.P,U2,8*%
%TO.N,/PROBE_V*%
%TA.AperFunction,SMDPad,CuDef*%
G36*
G01*
X146483200Y-104366200D02*
X146483200Y-104066200D01*
G75*
G02*
X146633200Y-103916200I150000J0D01*
G01*
X148283200Y-103916200D01*
G75*
G02*
X148433200Y-104066200I0J-150000D01*
G01*
X148433200Y-104366200D01*
G75*
G02*
X148283200Y-104516200I-150000J0D01*
G01*
X146633200Y-104516200D01*
G75*
G02*
X146483200Y-104366200I0J150000D01*
G01*
G37*
%TD.AperFunction*%
%TO.P,U2,7*%
%TA.AperFunction,SMDPad,CuDef*%
G36*
G01*
X146483200Y-105636200D02*
X146483200Y-105336200D01*
G75*
G02*
X146633200Y-105186200I150000J0D01*
G01*
X148283200Y-105186200D01*
G75*
G02*
X148433200Y-105336200I0J-150000D01*
G01*
X148433200Y-105636200D01*
G75*
G02*
X148283200Y-105786200I-150000J0D01*
G01*
X146633200Y-105786200D01*
G75*
G02*
X146483200Y-105636200I0J150000D01*
G01*
G37*
%TD.AperFunction*%
%TO.P,U2,6*%
%TO.N,VDDA*%
%TA.AperFunction,SMDPad,CuDef*%
G36*
G01*
X146483200Y-106906200D02*
X146483200Y-106606200D01*
G75*
G02*
X146633200Y-106456200I150000J0D01*
G01*
X148283200Y-106456200D01*
G75*
G02*
X148433200Y-106606200I0J-150000D01*
G01*
X148433200Y-106906200D01*
G75*
G02*
X148283200Y-107056200I-150000J0D01*
G01*
X146633200Y-107056200D01*
G75*
G02*
X146483200Y-106906200I0J150000D01*
G01*
G37*
%TD.AperFunction*%
%TO.P,U2,5*%
%TO.N,N/C*%
%TA.AperFunction,SMDPad,CuDef*%
G36*
G01*
X146483200Y-108176200D02*
X146483200Y-107876200D01*
G75*
G02*
X146633200Y-107726200I150000J0D01*
G01*
X148283200Y-107726200D01*
G75*
G02*
X148433200Y-107876200I0J-150000D01*
G01*
X148433200Y-108176200D01*
G75*
G02*
X148283200Y-108326200I-150000J0D01*
G01*
X146633200Y-108326200D01*
G75*
G02*
X146483200Y-108176200I0J150000D01*
G01*
G37*
%TD.AperFunction*%
%TO.P,U2,4*%
%TO.N,/PROBE_V*%
%TA.AperFunction,SMDPad,CuDef*%
G36*
G01*
X141533200Y-108176200D02*
X141533200Y-107876200D01*
G75*
G02*
X141683200Y-107726200I150000J0D01*
G01*
X143333200Y-107726200D01*
G75*
G02*
X143483200Y-107876200I0J-150000D01*
G01*
X143483200Y-108176200D01*
G75*
G02*
X143333200Y-108326200I-150000J0D01*
G01*
X141683200Y-108326200D01*
G75*
G02*
X141533200Y-108176200I0J150000D01*
G01*
G37*
%TD.AperFunction*%
%TO.P,U2,3*%
%TO.N,GNDA*%
%TA.AperFunction,SMDPad,CuDef*%
G36*
G01*
X141533200Y-106906200D02*
X141533200Y-106606200D01*
G75*
G02*
X141683200Y-106456200I150000J0D01*
G01*
X143333200Y-106456200D01*
G75*
G02*
X143483200Y-106606200I0J-150000D01*
G01*
X143483200Y-106906200D01*
G75*
G02*
X143333200Y-107056200I-150000J0D01*
G01*
X141683200Y-107056200D01*
G75*
G02*
X141533200Y-106906200I0J150000D01*
G01*
G37*
%TD.AperFunction*%
%TO.P,U2,2*%
%TO.N,/PROBE_V*%
%TA.AperFunction,SMDPad,CuDef*%
G36*
G01*
X141533200Y-105636200D02*
X141533200Y-105336200D01*
G75*
G02*
X141683200Y-105186200I150000J0D01*
G01*
X143333200Y-105186200D01*
G75*
G02*
X143483200Y-105336200I0J-150000D01*
G01*
X143483200Y-105636200D01*
G75*
G02*
X143333200Y-105786200I-150000J0D01*
G01*
X141683200Y-105786200D01*
G75*
G02*
X141533200Y-105636200I0J150000D01*
G01*
G37*
%TD.AperFunction*%
%TO.P,U2,1*%
%TO.N,Net-(J1-Pad1)*%
%TA.AperFunction,SMDPad,CuDef*%
G36*
G01*
X141533200Y-104366200D02*
X141533200Y-104066200D01*
G75*
G02*
X141683200Y-103916200I150000J0D01*
G01*
X143333200Y-103916200D01*
G75*
G02*
X143483200Y-104066200I0J-150000D01*
G01*
X143483200Y-104366200D01*
G75*
G02*
X143333200Y-104516200I-150000J0D01*
G01*
X141683200Y-104516200D01*
G75*
G02*
X141533200Y-104366200I0J150000D01*
G01*
G37*
%TD.AperFunction*%
%TD*%
%TO.P,U3,1*%
%TO.N,/BIAS_V*%
%TA.AperFunction,SMDPad,CuDef*%
G36*
G01*
X135506600Y-110587200D02*
X135206600Y-110587200D01*
G75*
G02*
X135056600Y-110437200I0J150000D01*
G01*
X135056600Y-108787200D01*
G75*
G02*
X135206600Y-108637200I150000J0D01*
G01*
X135506600Y-108637200D01*
G75*
G02*
X135656600Y-108787200I0J-150000D01*
G01*
X135656600Y-110437200D01*
G75*
G02*
X135506600Y-110587200I-150000J0D01*
G01*
G37*
%TD.AperFunction*%
%TO.P,U3,2*%
%TO.N,N/C*%
%TA.AperFunction,SMDPad,CuDef*%
G36*
G01*
X136776600Y-110587200D02*
X136476600Y-110587200D01*
G75*
G02*
X136326600Y-110437200I0J150000D01*
G01*
X136326600Y-108787200D01*
G75*
G02*
X136476600Y-108637200I150000J0D01*
G01*
X136776600Y-108637200D01*
G75*
G02*
X136926600Y-108787200I0J-150000D01*
G01*
X136926600Y-110437200D01*
G75*
G02*
X136776600Y-110587200I-150000J0D01*
G01*
G37*
%TD.AperFunction*%
%TO.P,U3,3*%
%TO.N,GNDA*%
%TA.AperFunction,SMDPad,CuDef*%
G36*
G01*
X138046600Y-110587200D02*
X137746600Y-110587200D01*
G75*
G02*
X137596600Y-110437200I0J150000D01*
G01*
X137596600Y-108787200D01*
G75*
G02*
X137746600Y-108637200I150000J0D01*
G01*
X138046600Y-108637200D01*
G75*
G02*
X138196600Y-108787200I0J-150000D01*
G01*
X138196600Y-110437200D01*
G75*
G02*
X138046600Y-110587200I-150000J0D01*
G01*
G37*
%TD.AperFunction*%
%TO.P,U3,4*%
%TO.N,Net-(J1-Pad2)*%
%TA.AperFunction,SMDPad,CuDef*%
G36*
G01*
X139316600Y-110587200D02*
X139016600Y-110587200D01*
G75*
G02*
X138866600Y-110437200I0J150000D01*
G01*
X138866600Y-108787200D01*
G75*
G02*
X139016600Y-108637200I150000J0D01*
G01*
X139316600Y-108637200D01*
G75*
G02*
X139466600Y-108787200I0J-150000D01*
G01*
X139466600Y-110437200D01*
G75*
G02*
X139316600Y-110587200I-150000J0D01*
G01*
G37*
%TD.AperFunction*%
%TO.P,U3,5*%
%TO.N,N/C*%
%TA.AperFunction,SMDPad,CuDef*%
G36*
G01*
X139316600Y-105637200D02*
X139016600Y-105637200D01*
G75*
G02*
X138866600Y-105487200I0J150000D01*
G01*
X138866600Y-103837200D01*
G75*
G02*
X139016600Y-103687200I150000J0D01*
G01*
X139316600Y-103687200D01*
G75*
G02*
X139466600Y-103837200I0J-150000D01*
G01*
X139466600Y-105487200D01*
G75*
G02*
X139316600Y-105637200I-150000J0D01*
G01*
G37*
%TD.AperFunction*%
%TO.P,U3,6*%
%TO.N,VDDA*%
%TA.AperFunction,SMDPad,CuDef*%
G36*
G01*
X138046600Y-105637200D02*
X137746600Y-105637200D01*
G75*
G02*
X137596600Y-105487200I0J150000D01*
G01*
X137596600Y-103837200D01*
G75*
G02*
X137746600Y-103687200I150000J0D01*
G01*
X138046600Y-103687200D01*
G75*
G02*
X138196600Y-103837200I0J-150000D01*
G01*
X138196600Y-105487200D01*
G75*
G02*
X138046600Y-105637200I-150000J0D01*
G01*
G37*
%TD.AperFunction*%
%TO.P,U3,7*%
%TO.N,N/C*%
%TA.AperFunction,SMDPad,CuDef*%
G36*
G01*
X136776600Y-105637200D02*
X136476600Y-105637200D01*
G75*
G02*
X136326600Y-105487200I0J150000D01*
G01*
X136326600Y-103837200D01*
G75*
G02*
X136476600Y-103687200I150000J0D01*
G01*
X136776600Y-103687200D01*
G75*
G02*
X136926600Y-103837200I0J-150000D01*
G01*
X136926600Y-105487200D01*
G75*
G02*
X136776600Y-105637200I-150000J0D01*
G01*
G37*
%TD.AperFunction*%
%TO.P,U3,8*%
%TO.N,Net-(J1-Pad2)*%
%TA.AperFunction,SMDPad,CuDef*%
G36*
G01*
X135506600Y-105637200D02*
X135206600Y-105637200D01*
G75*
G02*
X135056600Y-105487200I0J150000D01*
G01*
X135056600Y-103837200D01*
G75*
G02*
X135206600Y-103687200I150000J0D01*
G01*
X135506600Y-103687200D01*
G75*
G02*
X135656600Y-103837200I0J-150000D01*
G01*
X135656600Y-105487200D01*
G75*
G02*
X135506600Y-105637200I-150000J0D01*
G01*
G37*
%TD.AperFunction*%
%TD*%
%TO.P,U4,1*%
%TO.N,VDD*%
%TA.AperFunction,SMDPad,CuDef*%
G36*
G01*
X141602600Y-139075800D02*
X141302600Y-139075800D01*
G75*
G02*
X141152600Y-138925800I0J150000D01*
G01*
X141152600Y-137175800D01*
G75*
G02*
X141302600Y-137025800I150000J0D01*
G01*
X141602600Y-137025800D01*
G75*
G02*
X141752600Y-137175800I0J-150000D01*
G01*
X141752600Y-138925800D01*
G75*
G02*
X141602600Y-139075800I-150000J0D01*
G01*
G37*
%TD.AperFunction*%
%TO.P,U4,2*%
%TO.N,GND*%
%TA.AperFunction,SMDPad,CuDef*%
G36*
G01*
X142872600Y-139075800D02*
X142572600Y-139075800D01*
G75*
G02*
X142422600Y-138925800I0J150000D01*
G01*
X142422600Y-137175800D01*
G75*
G02*
X142572600Y-137025800I150000J0D01*
G01*
X142872600Y-137025800D01*
G75*
G02*
X143022600Y-137175800I0J-150000D01*
G01*
X143022600Y-138925800D01*
G75*
G02*
X142872600Y-139075800I-150000J0D01*
G01*
G37*
%TD.AperFunction*%
%TO.P,U4,3*%
%TO.N,/CS*%
%TA.AperFunction,SMDPad,CuDef*%
G36*
G01*
X144142600Y-139075800D02*
X143842600Y-139075800D01*
G75*
G02*
X143692600Y-138925800I0J150000D01*
G01*
X143692600Y-137175800D01*
G75*
G02*
X143842600Y-137025800I150000J0D01*
G01*
X144142600Y-137025800D01*
G75*
G02*
X144292600Y-137175800I0J-150000D01*
G01*
X144292600Y-138925800D01*
G75*
G02*
X144142600Y-139075800I-150000J0D01*
G01*
G37*
%TD.AperFunction*%
%TO.P,U4,4*%
%TO.N,/SCK*%
%TA.AperFunction,SMDPad,CuDef*%
G36*
G01*
X145412600Y-139075800D02*
X145112600Y-139075800D01*
G75*
G02*
X144962600Y-138925800I0J150000D01*
G01*
X144962600Y-137175800D01*
G75*
G02*
X145112600Y-137025800I150000J0D01*
G01*
X145412600Y-137025800D01*
G75*
G02*
X145562600Y-137175800I0J-150000D01*
G01*
X145562600Y-138925800D01*
G75*
G02*
X145412600Y-139075800I-150000J0D01*
G01*
G37*
%TD.AperFunction*%
%TO.P,U4,5*%
%TO.N,/MOSI*%
%TA.AperFunction,SMDPad,CuDef*%
G36*
G01*
X146682600Y-139075800D02*
X146382600Y-139075800D01*
G75*
G02*
X146232600Y-138925800I0J150000D01*
G01*
X146232600Y-137175800D01*
G75*
G02*
X146382600Y-137025800I150000J0D01*
G01*
X146682600Y-137025800D01*
G75*
G02*
X146832600Y-137175800I0J-150000D01*
G01*
X146832600Y-138925800D01*
G75*
G02*
X146682600Y-139075800I-150000J0D01*
G01*
G37*
%TD.AperFunction*%
%TO.P,U4,6*%
%TO.N,/MISO*%
%TA.AperFunction,SMDPad,CuDef*%
G36*
G01*
X147952600Y-139075800D02*
X147652600Y-139075800D01*
G75*
G02*
X147502600Y-138925800I0J150000D01*
G01*
X147502600Y-137175800D01*
G75*
G02*
X147652600Y-137025800I150000J0D01*
G01*
X147952600Y-137025800D01*
G75*
G02*
X148102600Y-137175800I0J-150000D01*
G01*
X148102600Y-138925800D01*
G75*
G02*
X147952600Y-139075800I-150000J0D01*
G01*
G37*
%TD.AperFunction*%
%TO.P,U4,7*%
%TO.N,VDD*%
%TA.AperFunction,SMDPad,CuDef*%
G36*
G01*
X149222600Y-139075800D02*
X148922600Y-139075800D01*
G75*
G02*
X148772600Y-138925800I0J150000D01*
G01*
X148772600Y-137175800D01*
G75*
G02*
X148922600Y-137025800I150000J0D01*
G01*
X149222600Y-137025800D01*
G75*
G02*
X149372600Y-137175800I0J-150000D01*
G01*
X149372600Y-138925800D01*
G75*
G02*
X149222600Y-139075800I-150000J0D01*
G01*
G37*
%TD.AperFunction*%
%TO.P,U4,8*%
%TO.N,GND*%
%TA.AperFunction,SMDPad,CuDef*%
G36*
G01*
X150492600Y-139075800D02*
X150192600Y-139075800D01*
G75*
G02*
X150042600Y-138925800I0J150000D01*
G01*
X150042600Y-137175800D01*
G75*
G02*
X150192600Y-137025800I150000J0D01*
G01*
X150492600Y-137025800D01*
G75*
G02*
X150642600Y-137175800I0J-150000D01*
G01*
X150642600Y-138925800D01*
G75*
G02*
X150492600Y-139075800I-150000J0D01*
G01*
G37*
%TD.AperFunction*%
%TO.P,U4,9*%
%TO.N,GNDA*%
%TA.AperFunction,SMDPad,CuDef*%
G36*
G01*
X150492600Y-129775800D02*
X150192600Y-129775800D01*
G75*
G02*
X150042600Y-129625800I0J150000D01*
G01*
X150042600Y-127875800D01*
G75*
G02*
X150192600Y-127725800I150000J0D01*
G01*
X150492600Y-127725800D01*
G75*
G02*
X150642600Y-127875800I0J-150000D01*
G01*
X150642600Y-129625800D01*
G75*
G02*
X150492600Y-129775800I-150000J0D01*
G01*
G37*
%TD.AperFunction*%
%TO.P,U4,10*%
%TO.N,VDDA*%
%TA.AperFunction,SMDPad,CuDef*%
G36*
G01*
X149222600Y-129775800D02*
X148922600Y-129775800D01*
G75*
G02*
X148772600Y-129625800I0J150000D01*
G01*
X148772600Y-127875800D01*
G75*
G02*
X148922600Y-127725800I150000J0D01*
G01*
X149222600Y-127725800D01*
G75*
G02*
X149372600Y-127875800I0J-150000D01*
G01*
X149372600Y-129625800D01*
G75*
G02*
X149222600Y-129775800I-150000J0D01*
G01*
G37*
%TD.AperFunction*%
%TO.P,U4,11*%
%TO.N,/SDO_ISO*%
%TA.AperFunction,SMDPad,CuDef*%
G36*
G01*
X147952600Y-129775800D02*
X147652600Y-129775800D01*
G75*
G02*
X147502600Y-129625800I0J150000D01*
G01*
X147502600Y-127875800D01*
G75*
G02*
X147652600Y-127725800I150000J0D01*
G01*
X147952600Y-127725800D01*
G75*
G02*
X148102600Y-127875800I0J-150000D01*
G01*
X148102600Y-129625800D01*
G75*
G02*
X147952600Y-129775800I-150000J0D01*
G01*
G37*
%TD.AperFunction*%
%TO.P,U4,12*%
%TO.N,/SDI_ISO*%
%TA.AperFunction,SMDPad,CuDef*%
G36*
G01*
X146682600Y-129775800D02*
X146382600Y-129775800D01*
G75*
G02*
X146232600Y-129625800I0J150000D01*
G01*
X146232600Y-127875800D01*
G75*
G02*
X146382600Y-127725800I150000J0D01*
G01*
X146682600Y-127725800D01*
G75*
G02*
X146832600Y-127875800I0J-150000D01*
G01*
X146832600Y-129625800D01*
G75*
G02*
X146682600Y-129775800I-150000J0D01*
G01*
G37*
%TD.AperFunction*%
%TO.P,U4,13*%
%TO.N,/SCK_ISO*%
%TA.AperFunction,SMDPad,CuDef*%
G36*
G01*
X145412600Y-129775800D02*
X145112600Y-129775800D01*
G75*
G02*
X144962600Y-129625800I0J150000D01*
G01*
X144962600Y-127875800D01*
G75*
G02*
X145112600Y-127725800I150000J0D01*
G01*
X145412600Y-127725800D01*
G75*
G02*
X145562600Y-127875800I0J-150000D01*
G01*
X145562600Y-129625800D01*
G75*
G02*
X145412600Y-129775800I-150000J0D01*
G01*
G37*
%TD.AperFunction*%
%TO.P,U4,14*%
%TO.N,/CS_ISO*%
%TA.AperFunction,SMDPad,CuDef*%
G36*
G01*
X144142600Y-129775800D02*
X143842600Y-129775800D01*
G75*
G02*
X143692600Y-129625800I0J150000D01*
G01*
X143692600Y-127875800D01*
G75*
G02*
X143842600Y-127725800I150000J0D01*
G01*
X144142600Y-127725800D01*
G75*
G02*
X144292600Y-127875800I0J-150000D01*
G01*
X144292600Y-129625800D01*
G75*
G02*
X144142600Y-129775800I-150000J0D01*
G01*
G37*
%TD.AperFunction*%
%TO.P,U4,15*%
%TO.N,GNDA*%
%TA.AperFunction,SMDPad,CuDef*%
G36*
G01*
X142872600Y-129775800D02*
X142572600Y-129775800D01*
G75*
G02*
X142422600Y-129625800I0J150000D01*
G01*
X142422600Y-127875800D01*
G75*
G02*
X142572600Y-127725800I150000J0D01*
G01*
X142872600Y-127725800D01*
G75*
G02*
X143022600Y-127875800I0J-150000D01*
G01*
X143022600Y-129625800D01*
G75*
G02*
X142872600Y-129775800I-150000J0D01*
G01*
G37*
%TD.AperFunction*%
%TO.P,U4,16*%
%TO.N,VDDA*%
%TA.AperFunction,SMDPad,CuDef*%
G36*
G01*
X141602600Y-129775800D02*
X141302600Y-129775800D01*
G75*
G02*
X141152600Y-129625800I0J150000D01*
G01*
X141152600Y-127875800D01*
G75*
G02*
X141302600Y-127725800I150000J0D01*
G01*
X141602600Y-127725800D01*
G75*
G02*
X141752600Y-127875800I0J-150000D01*
G01*
X141752600Y-129625800D01*
G75*
G02*
X141602600Y-129775800I-150000J0D01*
G01*
G37*
%TD.AperFunction*%
%TD*%
D13*
%TO.P,U5,1*%
%TO.N,/REF_V*%
X138059200Y-117567200D03*
%TO.P,U5,2*%
%TO.N,GNDA*%
X136159200Y-117567200D03*
%TO.P,U5,3*%
%TO.N,N/C*%
X137109200Y-119567200D03*
%TD*%
D14*
%TO.P,U6,4*%
%TO.N,Net-(C13-Pad1)*%
X136702800Y-129692400D03*
%TO.P,U6,3*%
%TO.N,GNDA*%
X136702800Y-132232400D03*
%TO.P,U6,2*%
%TO.N,VDD*%
X136702800Y-134772400D03*
D15*
%TO.P,U6,1*%
%TO.N,GND*%
X136702800Y-137312400D03*
%TD*%
%TO.P,C12,2*%
%TO.N,GNDA*%
%TA.AperFunction,SMDPad,CuDef*%
G36*
G01*
X133954000Y-122684250D02*
X133954000Y-122171750D01*
G75*
G02*
X134172750Y-121953000I218750J0D01*
G01*
X134610250Y-121953000D01*
G75*
G02*
X134829000Y-122171750I0J-218750D01*
G01*
X134829000Y-122684250D01*
G75*
G02*
X134610250Y-122903000I-218750J0D01*
G01*
X134172750Y-122903000D01*
G75*
G02*
X133954000Y-122684250I0J218750D01*
G01*
G37*
%TD.AperFunction*%
%TO.P,C12,1*%
%TO.N,VDDA*%
%TA.AperFunction,SMDPad,CuDef*%
G36*
G01*
X132379000Y-122684250D02*
X132379000Y-122171750D01*
G75*
G02*
X132597750Y-121953000I218750J0D01*
G01*
X133035250Y-121953000D01*
G75*
G02*
X133254000Y-122171750I0J-218750D01*
G01*
X133254000Y-122684250D01*
G75*
G02*
X133035250Y-122903000I-218750J0D01*
G01*
X132597750Y-122903000D01*
G75*
G02*
X132379000Y-122684250I0J218750D01*
G01*
G37*
%TD.AperFunction*%
%TD*%
%TO.P,C13,1*%
%TO.N,Net-(C13-Pad1)*%
%TA.AperFunction,SMDPad,CuDef*%
G36*
G01*
X136189000Y-126875250D02*
X136189000Y-126362750D01*
G75*
G02*
X136407750Y-126144000I218750J0D01*
G01*
X136845250Y-126144000D01*
G75*
G02*
X137064000Y-126362750I0J-218750D01*
G01*
X137064000Y-126875250D01*
G75*
G02*
X136845250Y-127094000I-218750J0D01*
G01*
X136407750Y-127094000D01*
G75*
G02*
X136189000Y-126875250I0J218750D01*
G01*
G37*
%TD.AperFunction*%
%TO.P,C13,2*%
%TO.N,GNDA*%
%TA.AperFunction,SMDPad,CuDef*%
G36*
G01*
X137764000Y-126875250D02*
X137764000Y-126362750D01*
G75*
G02*
X137982750Y-126144000I218750J0D01*
G01*
X138420250Y-126144000D01*
G75*
G02*
X138639000Y-126362750I0J-218750D01*
G01*
X138639000Y-126875250D01*
G75*
G02*
X138420250Y-127094000I-218750J0D01*
G01*
X137982750Y-127094000D01*
G75*
G02*
X137764000Y-126875250I0J218750D01*
G01*
G37*
%TD.AperFunction*%
%TD*%
D16*
%TO.P,U7,1*%
%TO.N,Net-(C13-Pad1)*%
X133035000Y-126576000D03*
%TO.P,U7,2*%
%TO.N,GNDA*%
X133985000Y-126576000D03*
%TO.P,U7,3*%
%TO.N,Net-(C13-Pad1)*%
X134935000Y-126576000D03*
%TO.P,U7,4*%
%TO.N,N/C*%
X134935000Y-124376000D03*
%TO.P,U7,5*%
%TO.N,VDDA*%
X133035000Y-124376000D03*
%TD*%
D17*
%TO.P,J2,1*%
%TO.N,VDD*%
X135280400Y-144780000D03*
D18*
%TO.P,J2,2*%
%TO.N,/CS*%
X137820400Y-144780000D03*
%TO.P,J2,3*%
%TO.N,/SCK*%
X140360400Y-144780000D03*
%TO.P,J2,4*%
%TO.N,/MOSI*%
X142900400Y-144780000D03*
%TO.P,J2,5*%
%TO.N,/MISO*%
X145440400Y-144780000D03*
%TO.P,J2,6*%
%TO.N,GND*%
X147980400Y-144780000D03*
%TD*%
%TO.P,C2,1*%
%TO.N,/REF_V*%
%TA.AperFunction,SMDPad,CuDef*%
G36*
G01*
X149728601Y-118086800D02*
X149178599Y-118086800D01*
G75*
G02*
X148928600Y-117836801I0J249999D01*
G01*
X148928600Y-117211799D01*
G75*
G02*
X149178599Y-116961800I249999J0D01*
G01*
X149728601Y-116961800D01*
G75*
G02*
X149978600Y-117211799I0J-249999D01*
G01*
X149978600Y-117836801D01*
G75*
G02*
X149728601Y-118086800I-249999J0D01*
G01*
G37*
%TD.AperFunction*%
%TO.P,C2,2*%
%TO.N,GNDA*%
%TA.AperFunction,SMDPad,CuDef*%
G36*
G01*
X149728601Y-116311800D02*
X149178599Y-116311800D01*
G75*
G02*
X148928600Y-116061801I0J249999D01*
G01*
X148928600Y-115436799D01*
G75*
G02*
X149178599Y-115186800I249999J0D01*
G01*
X149728601Y-115186800D01*
G75*
G02*
X149978600Y-115436799I0J-249999D01*
G01*
X149978600Y-116061801D01*
G75*
G02*
X149728601Y-116311800I-249999J0D01*
G01*
G37*
%TD.AperFunction*%
%TD*%
%TO.P,C4,2*%
%TO.N,GNDA*%
%TA.AperFunction,SMDPad,CuDef*%
G36*
G01*
X149178599Y-120568600D02*
X149728601Y-120568600D01*
G75*
G02*
X149978600Y-120818599I0J-249999D01*
G01*
X149978600Y-121443601D01*
G75*
G02*
X149728601Y-121693600I-249999J0D01*
G01*
X149178599Y-121693600D01*
G75*
G02*
X148928600Y-121443601I0J249999D01*
G01*
X148928600Y-120818599D01*
G75*
G02*
X149178599Y-120568600I249999J0D01*
G01*
G37*
%TD.AperFunction*%
%TO.P,C4,1*%
%TO.N,VDDA*%
%TA.AperFunction,SMDPad,CuDef*%
G36*
G01*
X149178599Y-118793600D02*
X149728601Y-118793600D01*
G75*
G02*
X149978600Y-119043599I0J-249999D01*
G01*
X149978600Y-119668601D01*
G75*
G02*
X149728601Y-119918600I-249999J0D01*
G01*
X149178599Y-119918600D01*
G75*
G02*
X148928600Y-119668601I0J249999D01*
G01*
X148928600Y-119043599D01*
G75*
G02*
X149178599Y-118793600I249999J0D01*
G01*
G37*
%TD.AperFunction*%
%TD*%
D19*
%TO.N,/REF_V*%
X132842000Y-118364000D03*
%TO.N,GNDA*%
X140792200Y-102514400D03*
X137922000Y-107823000D03*
X144373600Y-106781600D03*
X150088600Y-110109000D03*
X135839200Y-118770400D03*
X139623800Y-117119400D03*
X136194800Y-112750600D03*
X140284200Y-118008400D03*
X146050000Y-116128800D03*
X147650200Y-114858800D03*
X149402800Y-114401600D03*
X147675600Y-122148600D03*
X149504400Y-122453400D03*
X143812953Y-120613477D03*
X143230600Y-124968000D03*
X142163800Y-125120400D03*
X142265400Y-127279400D03*
X146405600Y-124079000D03*
X150342600Y-126822200D03*
X135509000Y-122428000D03*
X139446000Y-126619000D03*
X133985000Y-125349000D03*
%TO.N,VDDA*%
X136398000Y-125031500D03*
%TO.N,GND*%
X142138400Y-139522200D03*
X150342600Y-139852400D03*
X138557000Y-140462000D03*
%TO.N,/CS_ISO*%
X141478000Y-132080000D03*
%TO.N,/PROBE_V*%
X144272000Y-104140000D03*
X145542000Y-104216200D03*
X144272000Y-105486200D03*
X145516600Y-105486200D03*
%TO.N,/BIAS_V*%
X132842000Y-113792000D03*
%TO.N,/SDO_ISO*%
X149860000Y-132080000D03*
%TO.N,/SDI_ISO*%
X147066000Y-132080000D03*
%TO.N,/SCK_ISO*%
X144272000Y-132080000D03*
%TD*%
D20*
%TO.N,/REF_V*%
X138049100Y-117577300D02*
X138059200Y-117567200D01*
X138049100Y-121310400D02*
X138049100Y-117577300D01*
X138059200Y-115935900D02*
X138023600Y-115900300D01*
X138059200Y-117567200D02*
X138059200Y-115935900D01*
X136399600Y-115900300D02*
X136194800Y-115695500D01*
X138023600Y-115900300D02*
X136399600Y-115900300D01*
X135510500Y-115695500D02*
X132842000Y-118364000D01*
X136194800Y-115695500D02*
X135510500Y-115695500D01*
X145089190Y-118249610D02*
X147053490Y-118249610D01*
X144975200Y-118363600D02*
X145089190Y-118249610D01*
X147053490Y-118249610D02*
X147675600Y-117627500D01*
X144975200Y-119313600D02*
X144975200Y-118363600D01*
X149400400Y-117627500D02*
X149453600Y-117574300D01*
X147675600Y-117627500D02*
X149400400Y-117627500D01*
X138059200Y-117567200D02*
X138059200Y-118267200D01*
X142520516Y-115138610D02*
X145846390Y-115138610D01*
X142519696Y-115137790D02*
X142520516Y-115138610D01*
X136752510Y-115137790D02*
X142519696Y-115137790D01*
X136194800Y-115695500D02*
X136752510Y-115137790D01*
X145846390Y-115138610D02*
X147447000Y-113538000D01*
X147447000Y-113538000D02*
X149733000Y-113538000D01*
X149733000Y-113538000D02*
X150622000Y-114427000D01*
X150622000Y-116405900D02*
X149453600Y-117574300D01*
X150622000Y-114427000D02*
X150622000Y-116405900D01*
%TO.N,GNDA*%
X140436600Y-102158800D02*
X140792200Y-102514400D01*
X139673100Y-102158800D02*
X140436600Y-102158800D01*
X137896600Y-107848400D02*
X137922000Y-107823000D01*
X137896600Y-109612200D02*
X137896600Y-107848400D01*
X144348200Y-106756200D02*
X144373600Y-106781600D01*
X142508200Y-106756200D02*
X144348200Y-106756200D01*
X150063200Y-110083600D02*
X150088600Y-110109000D01*
X150063200Y-108532700D02*
X150063200Y-110083600D01*
X136159200Y-118450400D02*
X135839200Y-118770400D01*
X136159200Y-117567200D02*
X136159200Y-118450400D01*
X139649200Y-117094000D02*
X139623800Y-117119400D01*
X139649200Y-115900300D02*
X139649200Y-117094000D01*
X136194800Y-113920500D02*
X136194800Y-112750600D01*
X140843000Y-117449600D02*
X140284200Y-118008400D01*
X141503300Y-117449600D02*
X140843000Y-117449600D01*
X146075500Y-116154300D02*
X146050000Y-116128800D01*
X146075500Y-117449600D02*
X146075500Y-116154300D01*
X147675600Y-114884200D02*
X147650200Y-114858800D01*
X147675600Y-116052500D02*
X147675600Y-114884200D01*
X149453600Y-114452400D02*
X149402800Y-114401600D01*
X149453600Y-115699300D02*
X149453600Y-114452400D01*
X147675600Y-120827900D02*
X147675600Y-122148600D01*
X149453600Y-122402600D02*
X149504400Y-122453400D01*
X149453600Y-121181100D02*
X149453600Y-122402600D01*
X144125323Y-120613477D02*
X143812953Y-120613477D01*
X144475200Y-120263600D02*
X144125323Y-120613477D01*
X144475200Y-119313600D02*
X144475200Y-120263600D01*
X143475200Y-124723400D02*
X143230600Y-124968000D01*
X143475200Y-123713600D02*
X143475200Y-124723400D01*
X143027500Y-125984100D02*
X142163800Y-125120400D01*
X143027500Y-126390400D02*
X143027500Y-125984100D01*
X142722600Y-127736600D02*
X142265400Y-127279400D01*
X142722600Y-128750800D02*
X142722600Y-127736600D01*
X146040200Y-123713600D02*
X146405600Y-124079000D01*
X145475200Y-123713600D02*
X146040200Y-123713600D01*
X150342600Y-128750800D02*
X150342600Y-126822200D01*
X134391500Y-122428000D02*
X135509000Y-122428000D01*
X138201500Y-126619000D02*
X139446000Y-126619000D01*
X133985000Y-126576000D02*
X133985000Y-125349000D01*
%TO.N,VDDA*%
X133035000Y-122646500D02*
X132816500Y-122428000D01*
X133035000Y-124376000D02*
X133035000Y-122646500D01*
X137896600Y-102160300D02*
X137898100Y-102158800D01*
X137896600Y-104662200D02*
X137896600Y-102160300D01*
X137898100Y-102158800D02*
X137898100Y-101115900D01*
X137898100Y-101115900D02*
X137898100Y-101242900D01*
X147459700Y-106757700D02*
X147458200Y-106756200D01*
X150063200Y-106757700D02*
X147459700Y-106757700D01*
X147614900Y-119313600D02*
X147675600Y-119252900D01*
X145475200Y-119313600D02*
X147614900Y-119313600D01*
X149400400Y-119252900D02*
X149453600Y-119306100D01*
X147675600Y-119252900D02*
X149400400Y-119252900D01*
X149453600Y-119306100D02*
X150548100Y-119306100D01*
X150548100Y-119306100D02*
X150876000Y-119634000D01*
X141452500Y-128750700D02*
X141452600Y-128750800D01*
X141452500Y-126390400D02*
X141452500Y-128750700D01*
X141452500Y-126390400D02*
X141452500Y-125831500D01*
X141452500Y-125831500D02*
X140970000Y-125349000D01*
X137898100Y-102158800D02*
X137898100Y-101068100D01*
X150063200Y-106757700D02*
X150798300Y-106757700D01*
X132816500Y-122428000D02*
X132816500Y-121437500D01*
X132943600Y-121310400D02*
X136474100Y-121310400D01*
X132816500Y-121437500D02*
X132943600Y-121310400D01*
%TO.N,Net-(C5-Pad1)*%
X144576800Y-117373300D02*
X144500500Y-117449600D01*
X144576800Y-115951100D02*
X144576800Y-117373300D01*
X143975200Y-117974900D02*
X144500500Y-117449600D01*
X143975200Y-119313600D02*
X143975200Y-117974900D01*
%TO.N,Net-(C6-Pad1)*%
X143002000Y-117373300D02*
X143078300Y-117449600D01*
X143002000Y-115951100D02*
X143002000Y-117373300D01*
X143475200Y-117846500D02*
X143078300Y-117449600D01*
X143475200Y-119313600D02*
X143475200Y-117846500D01*
%TO.N,GND*%
X142722600Y-138938000D02*
X142138400Y-139522200D01*
X142722600Y-138050800D02*
X142722600Y-138938000D01*
X150342600Y-138050800D02*
X150342600Y-139852400D01*
X139801500Y-140462000D02*
X138557000Y-140462000D01*
%TO.N,VDD*%
X141376500Y-138126900D02*
X141452600Y-138050800D01*
X141376500Y-140462000D02*
X141376500Y-138126900D01*
X141376500Y-140462000D02*
X141376500Y-141376500D01*
%TO.N,Net-(J1-Pad2)*%
X138938000Y-98501200D02*
X137795000Y-98501200D01*
X135356600Y-100939600D02*
X135356600Y-104662200D01*
X137795000Y-98501200D02*
X135356600Y-100939600D01*
X135356600Y-104662200D02*
X135356600Y-106299000D01*
X135356600Y-106299000D02*
X135839200Y-106781600D01*
X135839200Y-106781600D02*
X138353800Y-106781600D01*
X139166600Y-107594400D02*
X139166600Y-109612200D01*
X138353800Y-106781600D02*
X139166600Y-107594400D01*
%TO.N,Net-(J1-Pad1)*%
X141478000Y-98501200D02*
X141478000Y-101346000D01*
X142508200Y-102376200D02*
X142508200Y-104216200D01*
X141478000Y-101346000D02*
X142508200Y-102376200D01*
%TO.N,/CS*%
X139903200Y-142697200D02*
X137820400Y-144780000D01*
X143408400Y-142697200D02*
X139903200Y-142697200D01*
X143992600Y-142113000D02*
X143408400Y-142697200D01*
X143992600Y-138050800D02*
X143992600Y-142113000D01*
%TO.N,/SCK*%
X145262600Y-138050800D02*
X145262600Y-141681200D01*
X145262600Y-141681200D02*
X143637000Y-143306800D01*
X141833600Y-143306800D02*
X140360400Y-144780000D01*
X143637000Y-143306800D02*
X141833600Y-143306800D01*
%TO.N,/MOSI*%
X146532600Y-138050800D02*
X146532600Y-141605000D01*
X143357600Y-144780000D02*
X142900400Y-144780000D01*
X146532600Y-141605000D02*
X143357600Y-144780000D01*
%TO.N,/MISO*%
X147802600Y-142417800D02*
X145440400Y-144780000D01*
X147802600Y-138050800D02*
X147802600Y-142417800D01*
%TO.N,/CS_ISO*%
X143975200Y-122763600D02*
X143975200Y-123713600D01*
X143614300Y-122402700D02*
X143975200Y-122763600D01*
X140970000Y-122402700D02*
X143614300Y-122402700D01*
X143975200Y-128733400D02*
X143992600Y-128750800D01*
X143975200Y-123713600D02*
X143975200Y-128733400D01*
X143992600Y-129565400D02*
X141478000Y-132080000D01*
X143992600Y-128750800D02*
X143992600Y-129565400D01*
%TO.N,/PROBE_V*%
X147458200Y-105486200D02*
X145516600Y-105486200D01*
X146620000Y-103378000D02*
X147458200Y-104216200D01*
X143002000Y-102233590D02*
X143002000Y-103378000D01*
X142603010Y-97585206D02*
X142603010Y-99458990D01*
X142508200Y-105486200D02*
X141533200Y-105486200D01*
X142058190Y-102562600D02*
X141027990Y-101532400D01*
X141928010Y-101159600D02*
X143002000Y-102233590D01*
X141533200Y-105486200D02*
X141208190Y-105161190D01*
X141699632Y-103378000D02*
X141732000Y-103378000D01*
X141208190Y-105161190D02*
X141208190Y-103869442D01*
X141208190Y-103869442D02*
X141699632Y-103378000D01*
X142058190Y-103051810D02*
X142058190Y-102562600D01*
X141732000Y-103378000D02*
X142058190Y-103051810D01*
X141027990Y-101532400D02*
X141027990Y-100133990D01*
X141928010Y-100133990D02*
X141928010Y-101159600D01*
X141027990Y-100133990D02*
X140352990Y-99458990D01*
X143002000Y-103378000D02*
X146620000Y-103378000D01*
X142603010Y-99458990D02*
X141928010Y-100133990D01*
X140352990Y-99458990D02*
X140352990Y-97585206D01*
X140352990Y-97585206D02*
X141012006Y-96926190D01*
X141943994Y-96926190D02*
X142603010Y-97585206D01*
X141012006Y-96926190D02*
X141943994Y-96926190D01*
X147458200Y-104216200D02*
X147458200Y-105486200D01*
X144348200Y-104216200D02*
X144272000Y-104140000D01*
X147458200Y-104216200D02*
X145542000Y-104216200D01*
X145542000Y-104216200D02*
X144348200Y-104216200D01*
X144272000Y-105486200D02*
X142508200Y-105486200D01*
X145516600Y-105486200D02*
X144272000Y-105486200D01*
X141533200Y-108026200D02*
X142508200Y-108026200D01*
X141208190Y-107701190D02*
X141533200Y-108026200D01*
X141208190Y-105161190D02*
X141208190Y-107701190D01*
X144576800Y-114376100D02*
X144576800Y-108839000D01*
X143764000Y-108026200D02*
X142508200Y-108026200D01*
X144576800Y-108839000D02*
X143764000Y-108026200D01*
%TO.N,/BIAS_V*%
X138023600Y-114325300D02*
X139649200Y-114325300D01*
X142951200Y-114325300D02*
X143002000Y-114376100D01*
X139649200Y-114325300D02*
X142951200Y-114325300D01*
X138023600Y-114325300D02*
X138023600Y-113157000D01*
X135356600Y-110490000D02*
X135356600Y-109612200D01*
X138023600Y-113157000D02*
X135356600Y-110490000D01*
X135356600Y-111277400D02*
X132842000Y-113792000D01*
X135356600Y-109612200D02*
X135356600Y-111277400D01*
%TO.N,/SDO_ISO*%
X147802600Y-130022600D02*
X149860000Y-132080000D01*
X147802600Y-128750800D02*
X147802600Y-130022600D01*
X144475200Y-122763600D02*
X144683800Y-122555000D01*
X144475200Y-123713600D02*
X144475200Y-122763600D01*
X144683800Y-122555000D02*
X146050000Y-122555000D01*
X146050000Y-122555000D02*
X147193000Y-123698000D01*
X147193000Y-123698000D02*
X147193000Y-124460000D01*
X147802600Y-125069600D02*
X147802600Y-128750800D01*
X147193000Y-124460000D02*
X147802600Y-125069600D01*
%TO.N,/SDI_ISO*%
X146532600Y-131546600D02*
X147066000Y-132080000D01*
X146532600Y-128750800D02*
X146532600Y-131546600D01*
%TO.N,/SCK_ISO*%
X145262600Y-131089400D02*
X144272000Y-132080000D01*
X145262600Y-128750800D02*
X145262600Y-131089400D01*
X144975200Y-123713600D02*
X144975200Y-126560200D01*
X145262600Y-126847600D02*
X145262600Y-128750800D01*
X144975200Y-126560200D02*
X145262600Y-126847600D01*
%TO.N,Net-(C13-Pad1)*%
X136702800Y-126695300D02*
X136626500Y-126619000D01*
X136702800Y-129692400D02*
X136702800Y-126695300D01*
X134978000Y-126619000D02*
X134935000Y-126576000D01*
X136626500Y-126619000D02*
X134978000Y-126619000D01*
X133035000Y-127356000D02*
X133035000Y-126576000D01*
X133441000Y-127762000D02*
X133035000Y-127356000D01*
X134529000Y-127762000D02*
X133441000Y-127762000D01*
X134935000Y-127356000D02*
X134529000Y-127762000D01*
X134935000Y-126576000D02*
X134935000Y-127356000D01*
%TD*%
D21*
%TO.N,VDD*%
X138811000Y-136144000D02*
X138813440Y-136168776D01*
X138820667Y-136192601D01*
X138832403Y-136214557D01*
X138848197Y-136233803D01*
X138867443Y-136249597D01*
X138889399Y-136261333D01*
X138913224Y-136268560D01*
X138938000Y-136271000D01*
X151232000Y-136271000D01*
X151232000Y-145898000D01*
X148498067Y-145898000D01*
X148563497Y-145870898D01*
X148765117Y-145736180D01*
X148936580Y-145564717D01*
X149071298Y-145363097D01*
X149164093Y-145139069D01*
X149211400Y-144901243D01*
X149211400Y-144658757D01*
X149164093Y-144420931D01*
X149071298Y-144196903D01*
X148936580Y-143995283D01*
X148765117Y-143823820D01*
X148563497Y-143689102D01*
X148339469Y-143596307D01*
X148101643Y-143549000D01*
X147859157Y-143549000D01*
X147621331Y-143596307D01*
X147397303Y-143689102D01*
X147195683Y-143823820D01*
X147024220Y-143995283D01*
X146889502Y-144196903D01*
X146796707Y-144420931D01*
X146749400Y-144658757D01*
X146749400Y-144901243D01*
X146796707Y-145139069D01*
X146889502Y-145363097D01*
X147024220Y-145564717D01*
X147195683Y-145736180D01*
X147397303Y-145870898D01*
X147462733Y-145898000D01*
X145958067Y-145898000D01*
X146023497Y-145870898D01*
X146225117Y-145736180D01*
X146396580Y-145564717D01*
X146531298Y-145363097D01*
X146624093Y-145139069D01*
X146671400Y-144901243D01*
X146671400Y-144658757D01*
X146624093Y-144420931D01*
X146592158Y-144343833D01*
X148142820Y-142793172D01*
X148162127Y-142777327D01*
X148225359Y-142700279D01*
X148272345Y-142612375D01*
X148301278Y-142516993D01*
X148308600Y-142442654D01*
X148308600Y-142442647D01*
X148311047Y-142417801D01*
X148308600Y-142392955D01*
X148308600Y-139775478D01*
X149561600Y-139775478D01*
X149561600Y-139929322D01*
X149591613Y-140080209D01*
X149650487Y-140222342D01*
X149735958Y-140350259D01*
X149844741Y-140459042D01*
X149972658Y-140544513D01*
X150114791Y-140603387D01*
X150265678Y-140633400D01*
X150419522Y-140633400D01*
X150570409Y-140603387D01*
X150712542Y-140544513D01*
X150840459Y-140459042D01*
X150949242Y-140350259D01*
X151034713Y-140222342D01*
X151093587Y-140080209D01*
X151123600Y-139929322D01*
X151123600Y-139775478D01*
X151093587Y-139624591D01*
X151034713Y-139482458D01*
X150949242Y-139354541D01*
X150881954Y-139287253D01*
X150935643Y-139221832D01*
X150984883Y-139129710D01*
X151015205Y-139029753D01*
X151025443Y-138925800D01*
X151025443Y-137175800D01*
X151015205Y-137071847D01*
X150984883Y-136971890D01*
X150935643Y-136879768D01*
X150869377Y-136799023D01*
X150788632Y-136732757D01*
X150696510Y-136683517D01*
X150596553Y-136653195D01*
X150492600Y-136642957D01*
X150192600Y-136642957D01*
X150088647Y-136653195D01*
X149988690Y-136683517D01*
X149896568Y-136732757D01*
X149815823Y-136799023D01*
X149749557Y-136879768D01*
X149700317Y-136971890D01*
X149669995Y-137071847D01*
X149659757Y-137175800D01*
X149659757Y-138925800D01*
X149669995Y-139029753D01*
X149700317Y-139129710D01*
X149749557Y-139221832D01*
X149803246Y-139287253D01*
X149735958Y-139354541D01*
X149650487Y-139482458D01*
X149591613Y-139624591D01*
X149561600Y-139775478D01*
X148308600Y-139775478D01*
X148308600Y-139319628D01*
X148329377Y-139302577D01*
X148395643Y-139221832D01*
X148444883Y-139129710D01*
X148475205Y-139029753D01*
X148485443Y-138925800D01*
X148485443Y-137175800D01*
X148475205Y-137071847D01*
X148444883Y-136971890D01*
X148395643Y-136879768D01*
X148329377Y-136799023D01*
X148248632Y-136732757D01*
X148156510Y-136683517D01*
X148056553Y-136653195D01*
X147952600Y-136642957D01*
X147652600Y-136642957D01*
X147548647Y-136653195D01*
X147448690Y-136683517D01*
X147356568Y-136732757D01*
X147275823Y-136799023D01*
X147209557Y-136879768D01*
X147167600Y-136958264D01*
X147125643Y-136879768D01*
X147059377Y-136799023D01*
X146978632Y-136732757D01*
X146886510Y-136683517D01*
X146786553Y-136653195D01*
X146682600Y-136642957D01*
X146382600Y-136642957D01*
X146278647Y-136653195D01*
X146178690Y-136683517D01*
X146086568Y-136732757D01*
X146005823Y-136799023D01*
X145939557Y-136879768D01*
X145897600Y-136958264D01*
X145855643Y-136879768D01*
X145789377Y-136799023D01*
X145708632Y-136732757D01*
X145616510Y-136683517D01*
X145516553Y-136653195D01*
X145412600Y-136642957D01*
X145112600Y-136642957D01*
X145008647Y-136653195D01*
X144908690Y-136683517D01*
X144816568Y-136732757D01*
X144735823Y-136799023D01*
X144669557Y-136879768D01*
X144627600Y-136958264D01*
X144585643Y-136879768D01*
X144519377Y-136799023D01*
X144438632Y-136732757D01*
X144346510Y-136683517D01*
X144246553Y-136653195D01*
X144142600Y-136642957D01*
X143842600Y-136642957D01*
X143738647Y-136653195D01*
X143638690Y-136683517D01*
X143546568Y-136732757D01*
X143465823Y-136799023D01*
X143399557Y-136879768D01*
X143357600Y-136958264D01*
X143315643Y-136879768D01*
X143249377Y-136799023D01*
X143168632Y-136732757D01*
X143076510Y-136683517D01*
X142976553Y-136653195D01*
X142872600Y-136642957D01*
X142572600Y-136642957D01*
X142468647Y-136653195D01*
X142368690Y-136683517D01*
X142276568Y-136732757D01*
X142195823Y-136799023D01*
X142129557Y-136879768D01*
X142080317Y-136971890D01*
X142049995Y-137071847D01*
X142039757Y-137175800D01*
X142039757Y-138745521D01*
X141986000Y-138756213D01*
X141986000Y-136779000D01*
X141983560Y-136754224D01*
X141976333Y-136730399D01*
X141964597Y-136708443D01*
X141948803Y-136689197D01*
X141929557Y-136673403D01*
X141907601Y-136661667D01*
X141883776Y-136654440D01*
X141859000Y-136652000D01*
X140843000Y-136652000D01*
X140818224Y-136654440D01*
X140794399Y-136661667D01*
X140772443Y-136673403D01*
X140753197Y-136689197D01*
X140737403Y-136708443D01*
X140725667Y-136730399D01*
X140718440Y-136754224D01*
X140716000Y-136779000D01*
X140716000Y-140843000D01*
X140718440Y-140867776D01*
X140725667Y-140891601D01*
X140737403Y-140913557D01*
X140753197Y-140932803D01*
X140772443Y-140948597D01*
X140794399Y-140960333D01*
X140818224Y-140967560D01*
X140843000Y-140970000D01*
X141859000Y-140970000D01*
X141883776Y-140967560D01*
X141907601Y-140960333D01*
X141929557Y-140948597D01*
X141948803Y-140932803D01*
X141964597Y-140913557D01*
X141976333Y-140891601D01*
X141983560Y-140867776D01*
X141986000Y-140843000D01*
X141986000Y-140288187D01*
X142061478Y-140303200D01*
X142215322Y-140303200D01*
X142366209Y-140273187D01*
X142508342Y-140214313D01*
X142636259Y-140128842D01*
X142745042Y-140020059D01*
X142830513Y-139892142D01*
X142889387Y-139750009D01*
X142919400Y-139599122D01*
X142919400Y-139456792D01*
X142922459Y-139453733D01*
X142976553Y-139448405D01*
X143076510Y-139418083D01*
X143168632Y-139368843D01*
X143249377Y-139302577D01*
X143315643Y-139221832D01*
X143357600Y-139143336D01*
X143399557Y-139221832D01*
X143465823Y-139302577D01*
X143486600Y-139319629D01*
X143486601Y-141903407D01*
X143198809Y-142191200D01*
X139928045Y-142191200D01*
X139903199Y-142188753D01*
X139878353Y-142191200D01*
X139878346Y-142191200D01*
X139804007Y-142198522D01*
X139708625Y-142227455D01*
X139620721Y-142274441D01*
X139543673Y-142337673D01*
X139527829Y-142356979D01*
X138256567Y-143628242D01*
X138179469Y-143596307D01*
X137941643Y-143549000D01*
X137699157Y-143549000D01*
X137461331Y-143596307D01*
X137237303Y-143689102D01*
X137035683Y-143823820D01*
X136864220Y-143995283D01*
X136729502Y-144196903D01*
X136636707Y-144420931D01*
X136589400Y-144658757D01*
X136589400Y-144901243D01*
X136636707Y-145139069D01*
X136729502Y-145363097D01*
X136864220Y-145564717D01*
X137035683Y-145736180D01*
X137237303Y-145870898D01*
X137302733Y-145898000D01*
X131724000Y-145898000D01*
X131724000Y-140385078D01*
X137776000Y-140385078D01*
X137776000Y-140538922D01*
X137806013Y-140689809D01*
X137864887Y-140831942D01*
X137950358Y-140959859D01*
X138059141Y-141068642D01*
X138187058Y-141154113D01*
X138329191Y-141212987D01*
X138480078Y-141243000D01*
X138633922Y-141243000D01*
X138784809Y-141212987D01*
X138926942Y-141154113D01*
X139054859Y-141068642D01*
X139078531Y-141044970D01*
X139082544Y-141052477D01*
X139157360Y-141143640D01*
X139248523Y-141218456D01*
X139352530Y-141274049D01*
X139465385Y-141308284D01*
X139582750Y-141319843D01*
X140020250Y-141319843D01*
X140137615Y-141308284D01*
X140250470Y-141274049D01*
X140354477Y-141218456D01*
X140445640Y-141143640D01*
X140520456Y-141052477D01*
X140576049Y-140948470D01*
X140610284Y-140835615D01*
X140621843Y-140718250D01*
X140621843Y-140205750D01*
X140610284Y-140088385D01*
X140576049Y-139975530D01*
X140520456Y-139871523D01*
X140445640Y-139780360D01*
X140354477Y-139705544D01*
X140250470Y-139649951D01*
X140137615Y-139615716D01*
X140020250Y-139604157D01*
X139582750Y-139604157D01*
X139465385Y-139615716D01*
X139352530Y-139649951D01*
X139248523Y-139705544D01*
X139157360Y-139780360D01*
X139082544Y-139871523D01*
X139078531Y-139879030D01*
X139054859Y-139855358D01*
X138926942Y-139769887D01*
X138784809Y-139711013D01*
X138633922Y-139681000D01*
X138480078Y-139681000D01*
X138329191Y-139711013D01*
X138187058Y-139769887D01*
X138059141Y-139855358D01*
X137950358Y-139964141D01*
X137864887Y-140092058D01*
X137806013Y-140234191D01*
X137776000Y-140385078D01*
X131724000Y-140385078D01*
X131724000Y-136437400D01*
X135194957Y-136437400D01*
X135194957Y-138187400D01*
X135202313Y-138262089D01*
X135224099Y-138333908D01*
X135259478Y-138400096D01*
X135307089Y-138458111D01*
X135365104Y-138505722D01*
X135431292Y-138541101D01*
X135503111Y-138562887D01*
X135577800Y-138570243D01*
X137827800Y-138570243D01*
X137902489Y-138562887D01*
X137974308Y-138541101D01*
X138040496Y-138505722D01*
X138098511Y-138458111D01*
X138146122Y-138400096D01*
X138181501Y-138333908D01*
X138203287Y-138262089D01*
X138210643Y-138187400D01*
X138210643Y-136437400D01*
X138203287Y-136362711D01*
X138181501Y-136290892D01*
X138146122Y-136224704D01*
X138098511Y-136166689D01*
X138040496Y-136119078D01*
X137974308Y-136083699D01*
X137902489Y-136061913D01*
X137827800Y-136054557D01*
X135577800Y-136054557D01*
X135503111Y-136061913D01*
X135431292Y-136083699D01*
X135365104Y-136119078D01*
X135307089Y-136166689D01*
X135259478Y-136224704D01*
X135224099Y-136290892D01*
X135202313Y-136362711D01*
X135194957Y-136437400D01*
X131724000Y-136437400D01*
X131724000Y-136271000D01*
X134366000Y-136271000D01*
X134390776Y-136268560D01*
X134414601Y-136261333D01*
X134436557Y-136249597D01*
X134455803Y-136233803D01*
X134471597Y-136214557D01*
X134483333Y-136192601D01*
X134490560Y-136168776D01*
X134493000Y-136144000D01*
X134493000Y-134239000D01*
X138811000Y-134239000D01*
X138811000Y-136144000D01*
%TA.AperFunction,Conductor*%
D22*
G36*
X138811000Y-136144000D02*
G01*
X138813440Y-136168776D01*
X138820667Y-136192601D01*
X138832403Y-136214557D01*
X138848197Y-136233803D01*
X138867443Y-136249597D01*
X138889399Y-136261333D01*
X138913224Y-136268560D01*
X138938000Y-136271000D01*
X151232000Y-136271000D01*
X151232000Y-145898000D01*
X148498067Y-145898000D01*
X148563497Y-145870898D01*
X148765117Y-145736180D01*
X148936580Y-145564717D01*
X149071298Y-145363097D01*
X149164093Y-145139069D01*
X149211400Y-144901243D01*
X149211400Y-144658757D01*
X149164093Y-144420931D01*
X149071298Y-144196903D01*
X148936580Y-143995283D01*
X148765117Y-143823820D01*
X148563497Y-143689102D01*
X148339469Y-143596307D01*
X148101643Y-143549000D01*
X147859157Y-143549000D01*
X147621331Y-143596307D01*
X147397303Y-143689102D01*
X147195683Y-143823820D01*
X147024220Y-143995283D01*
X146889502Y-144196903D01*
X146796707Y-144420931D01*
X146749400Y-144658757D01*
X146749400Y-144901243D01*
X146796707Y-145139069D01*
X146889502Y-145363097D01*
X147024220Y-145564717D01*
X147195683Y-145736180D01*
X147397303Y-145870898D01*
X147462733Y-145898000D01*
X145958067Y-145898000D01*
X146023497Y-145870898D01*
X146225117Y-145736180D01*
X146396580Y-145564717D01*
X146531298Y-145363097D01*
X146624093Y-145139069D01*
X146671400Y-144901243D01*
X146671400Y-144658757D01*
X146624093Y-144420931D01*
X146592158Y-144343833D01*
X148142820Y-142793172D01*
X148162127Y-142777327D01*
X148225359Y-142700279D01*
X148272345Y-142612375D01*
X148301278Y-142516993D01*
X148308600Y-142442654D01*
X148308600Y-142442647D01*
X148311047Y-142417801D01*
X148308600Y-142392955D01*
X148308600Y-139775478D01*
X149561600Y-139775478D01*
X149561600Y-139929322D01*
X149591613Y-140080209D01*
X149650487Y-140222342D01*
X149735958Y-140350259D01*
X149844741Y-140459042D01*
X149972658Y-140544513D01*
X150114791Y-140603387D01*
X150265678Y-140633400D01*
X150419522Y-140633400D01*
X150570409Y-140603387D01*
X150712542Y-140544513D01*
X150840459Y-140459042D01*
X150949242Y-140350259D01*
X151034713Y-140222342D01*
X151093587Y-140080209D01*
X151123600Y-139929322D01*
X151123600Y-139775478D01*
X151093587Y-139624591D01*
X151034713Y-139482458D01*
X150949242Y-139354541D01*
X150881954Y-139287253D01*
X150935643Y-139221832D01*
X150984883Y-139129710D01*
X151015205Y-139029753D01*
X151025443Y-138925800D01*
X151025443Y-137175800D01*
X151015205Y-137071847D01*
X150984883Y-136971890D01*
X150935643Y-136879768D01*
X150869377Y-136799023D01*
X150788632Y-136732757D01*
X150696510Y-136683517D01*
X150596553Y-136653195D01*
X150492600Y-136642957D01*
X150192600Y-136642957D01*
X150088647Y-136653195D01*
X149988690Y-136683517D01*
X149896568Y-136732757D01*
X149815823Y-136799023D01*
X149749557Y-136879768D01*
X149700317Y-136971890D01*
X149669995Y-137071847D01*
X149659757Y-137175800D01*
X149659757Y-138925800D01*
X149669995Y-139029753D01*
X149700317Y-139129710D01*
X149749557Y-139221832D01*
X149803246Y-139287253D01*
X149735958Y-139354541D01*
X149650487Y-139482458D01*
X149591613Y-139624591D01*
X149561600Y-139775478D01*
X148308600Y-139775478D01*
X148308600Y-139319628D01*
X148329377Y-139302577D01*
X148395643Y-139221832D01*
X148444883Y-139129710D01*
X148475205Y-139029753D01*
X148485443Y-138925800D01*
X148485443Y-137175800D01*
X148475205Y-137071847D01*
X148444883Y-136971890D01*
X148395643Y-136879768D01*
X148329377Y-136799023D01*
X148248632Y-136732757D01*
X148156510Y-136683517D01*
X148056553Y-136653195D01*
X147952600Y-136642957D01*
X147652600Y-136642957D01*
X147548647Y-136653195D01*
X147448690Y-136683517D01*
X147356568Y-136732757D01*
X147275823Y-136799023D01*
X147209557Y-136879768D01*
X147167600Y-136958264D01*
X147125643Y-136879768D01*
X147059377Y-136799023D01*
X146978632Y-136732757D01*
X146886510Y-136683517D01*
X146786553Y-136653195D01*
X146682600Y-136642957D01*
X146382600Y-136642957D01*
X146278647Y-136653195D01*
X146178690Y-136683517D01*
X146086568Y-136732757D01*
X146005823Y-136799023D01*
X145939557Y-136879768D01*
X145897600Y-136958264D01*
X145855643Y-136879768D01*
X145789377Y-136799023D01*
X145708632Y-136732757D01*
X145616510Y-136683517D01*
X145516553Y-136653195D01*
X145412600Y-136642957D01*
X145112600Y-136642957D01*
X145008647Y-136653195D01*
X144908690Y-136683517D01*
X144816568Y-136732757D01*
X144735823Y-136799023D01*
X144669557Y-136879768D01*
X144627600Y-136958264D01*
X144585643Y-136879768D01*
X144519377Y-136799023D01*
X144438632Y-136732757D01*
X144346510Y-136683517D01*
X144246553Y-136653195D01*
X144142600Y-136642957D01*
X143842600Y-136642957D01*
X143738647Y-136653195D01*
X143638690Y-136683517D01*
X143546568Y-136732757D01*
X143465823Y-136799023D01*
X143399557Y-136879768D01*
X143357600Y-136958264D01*
X143315643Y-136879768D01*
X143249377Y-136799023D01*
X143168632Y-136732757D01*
X143076510Y-136683517D01*
X142976553Y-136653195D01*
X142872600Y-136642957D01*
X142572600Y-136642957D01*
X142468647Y-136653195D01*
X142368690Y-136683517D01*
X142276568Y-136732757D01*
X142195823Y-136799023D01*
X142129557Y-136879768D01*
X142080317Y-136971890D01*
X142049995Y-137071847D01*
X142039757Y-137175800D01*
X142039757Y-138745521D01*
X141986000Y-138756213D01*
X141986000Y-136779000D01*
X141983560Y-136754224D01*
X141976333Y-136730399D01*
X141964597Y-136708443D01*
X141948803Y-136689197D01*
X141929557Y-136673403D01*
X141907601Y-136661667D01*
X141883776Y-136654440D01*
X141859000Y-136652000D01*
X140843000Y-136652000D01*
X140818224Y-136654440D01*
X140794399Y-136661667D01*
X140772443Y-136673403D01*
X140753197Y-136689197D01*
X140737403Y-136708443D01*
X140725667Y-136730399D01*
X140718440Y-136754224D01*
X140716000Y-136779000D01*
X140716000Y-140843000D01*
X140718440Y-140867776D01*
X140725667Y-140891601D01*
X140737403Y-140913557D01*
X140753197Y-140932803D01*
X140772443Y-140948597D01*
X140794399Y-140960333D01*
X140818224Y-140967560D01*
X140843000Y-140970000D01*
X141859000Y-140970000D01*
X141883776Y-140967560D01*
X141907601Y-140960333D01*
X141929557Y-140948597D01*
X141948803Y-140932803D01*
X141964597Y-140913557D01*
X141976333Y-140891601D01*
X141983560Y-140867776D01*
X141986000Y-140843000D01*
X141986000Y-140288187D01*
X142061478Y-140303200D01*
X142215322Y-140303200D01*
X142366209Y-140273187D01*
X142508342Y-140214313D01*
X142636259Y-140128842D01*
X142745042Y-140020059D01*
X142830513Y-139892142D01*
X142889387Y-139750009D01*
X142919400Y-139599122D01*
X142919400Y-139456792D01*
X142922459Y-139453733D01*
X142976553Y-139448405D01*
X143076510Y-139418083D01*
X143168632Y-139368843D01*
X143249377Y-139302577D01*
X143315643Y-139221832D01*
X143357600Y-139143336D01*
X143399557Y-139221832D01*
X143465823Y-139302577D01*
X143486600Y-139319629D01*
X143486601Y-141903407D01*
X143198809Y-142191200D01*
X139928045Y-142191200D01*
X139903199Y-142188753D01*
X139878353Y-142191200D01*
X139878346Y-142191200D01*
X139804007Y-142198522D01*
X139708625Y-142227455D01*
X139620721Y-142274441D01*
X139543673Y-142337673D01*
X139527829Y-142356979D01*
X138256567Y-143628242D01*
X138179469Y-143596307D01*
X137941643Y-143549000D01*
X137699157Y-143549000D01*
X137461331Y-143596307D01*
X137237303Y-143689102D01*
X137035683Y-143823820D01*
X136864220Y-143995283D01*
X136729502Y-144196903D01*
X136636707Y-144420931D01*
X136589400Y-144658757D01*
X136589400Y-144901243D01*
X136636707Y-145139069D01*
X136729502Y-145363097D01*
X136864220Y-145564717D01*
X137035683Y-145736180D01*
X137237303Y-145870898D01*
X137302733Y-145898000D01*
X131724000Y-145898000D01*
X131724000Y-140385078D01*
X137776000Y-140385078D01*
X137776000Y-140538922D01*
X137806013Y-140689809D01*
X137864887Y-140831942D01*
X137950358Y-140959859D01*
X138059141Y-141068642D01*
X138187058Y-141154113D01*
X138329191Y-141212987D01*
X138480078Y-141243000D01*
X138633922Y-141243000D01*
X138784809Y-141212987D01*
X138926942Y-141154113D01*
X139054859Y-141068642D01*
X139078531Y-141044970D01*
X139082544Y-141052477D01*
X139157360Y-141143640D01*
X139248523Y-141218456D01*
X139352530Y-141274049D01*
X139465385Y-141308284D01*
X139582750Y-141319843D01*
X140020250Y-141319843D01*
X140137615Y-141308284D01*
X140250470Y-141274049D01*
X140354477Y-141218456D01*
X140445640Y-141143640D01*
X140520456Y-141052477D01*
X140576049Y-140948470D01*
X140610284Y-140835615D01*
X140621843Y-140718250D01*
X140621843Y-140205750D01*
X140610284Y-140088385D01*
X140576049Y-139975530D01*
X140520456Y-139871523D01*
X140445640Y-139780360D01*
X140354477Y-139705544D01*
X140250470Y-139649951D01*
X140137615Y-139615716D01*
X140020250Y-139604157D01*
X139582750Y-139604157D01*
X139465385Y-139615716D01*
X139352530Y-139649951D01*
X139248523Y-139705544D01*
X139157360Y-139780360D01*
X139082544Y-139871523D01*
X139078531Y-139879030D01*
X139054859Y-139855358D01*
X138926942Y-139769887D01*
X138784809Y-139711013D01*
X138633922Y-139681000D01*
X138480078Y-139681000D01*
X138329191Y-139711013D01*
X138187058Y-139769887D01*
X138059141Y-139855358D01*
X137950358Y-139964141D01*
X137864887Y-140092058D01*
X137806013Y-140234191D01*
X137776000Y-140385078D01*
X131724000Y-140385078D01*
X131724000Y-136437400D01*
X135194957Y-136437400D01*
X135194957Y-138187400D01*
X135202313Y-138262089D01*
X135224099Y-138333908D01*
X135259478Y-138400096D01*
X135307089Y-138458111D01*
X135365104Y-138505722D01*
X135431292Y-138541101D01*
X135503111Y-138562887D01*
X135577800Y-138570243D01*
X137827800Y-138570243D01*
X137902489Y-138562887D01*
X137974308Y-138541101D01*
X138040496Y-138505722D01*
X138098511Y-138458111D01*
X138146122Y-138400096D01*
X138181501Y-138333908D01*
X138203287Y-138262089D01*
X138210643Y-138187400D01*
X138210643Y-136437400D01*
X138203287Y-136362711D01*
X138181501Y-136290892D01*
X138146122Y-136224704D01*
X138098511Y-136166689D01*
X138040496Y-136119078D01*
X137974308Y-136083699D01*
X137902489Y-136061913D01*
X137827800Y-136054557D01*
X135577800Y-136054557D01*
X135503111Y-136061913D01*
X135431292Y-136083699D01*
X135365104Y-136119078D01*
X135307089Y-136166689D01*
X135259478Y-136224704D01*
X135224099Y-136290892D01*
X135202313Y-136362711D01*
X135194957Y-136437400D01*
X131724000Y-136437400D01*
X131724000Y-136271000D01*
X134366000Y-136271000D01*
X134390776Y-136268560D01*
X134414601Y-136261333D01*
X134436557Y-136249597D01*
X134455803Y-136233803D01*
X134471597Y-136214557D01*
X134483333Y-136192601D01*
X134490560Y-136168776D01*
X134493000Y-136144000D01*
X134493000Y-134239000D01*
X138811000Y-134239000D01*
X138811000Y-136144000D01*
G37*
%TD.AperFunction*%
%TD*%
D21*
%TO.N,VDDA*%
X151333600Y-129921000D02*
X150866469Y-129921000D01*
X150890526Y-129891686D01*
X150934752Y-129808945D01*
X150961986Y-129719167D01*
X150971182Y-129625800D01*
X150971182Y-127875800D01*
X150961986Y-127782433D01*
X150934752Y-127692655D01*
X150890526Y-127609914D01*
X150831009Y-127537391D01*
X150794600Y-127507511D01*
X150794600Y-127394539D01*
X150806036Y-127386898D01*
X150907298Y-127285636D01*
X150986859Y-127166564D01*
X151041662Y-127034258D01*
X151069600Y-126893803D01*
X151069600Y-126750597D01*
X151041662Y-126610142D01*
X150986859Y-126477836D01*
X150907298Y-126358764D01*
X150806036Y-126257502D01*
X150686964Y-126177941D01*
X150554658Y-126123138D01*
X150414203Y-126095200D01*
X150270997Y-126095200D01*
X150130542Y-126123138D01*
X149998236Y-126177941D01*
X149879164Y-126257502D01*
X149777902Y-126358764D01*
X149698341Y-126477836D01*
X149643538Y-126610142D01*
X149615600Y-126750597D01*
X149615600Y-126893803D01*
X149643538Y-127034258D01*
X149698341Y-127166564D01*
X149777902Y-127285636D01*
X149879164Y-127386898D01*
X149890601Y-127394540D01*
X149890601Y-127507511D01*
X149854191Y-127537391D01*
X149794674Y-127609914D01*
X149750448Y-127692655D01*
X149723214Y-127782433D01*
X149714018Y-127875800D01*
X149714018Y-129625800D01*
X149723214Y-129719167D01*
X149750448Y-129808945D01*
X149794674Y-129891686D01*
X149818731Y-129921000D01*
X148340223Y-129921000D01*
X148332669Y-129913446D01*
X148350526Y-129891686D01*
X148394752Y-129808945D01*
X148421986Y-129719167D01*
X148431182Y-129625800D01*
X148431182Y-127875800D01*
X148421986Y-127782433D01*
X148394752Y-127692655D01*
X148350526Y-127609914D01*
X148291009Y-127537391D01*
X148254600Y-127507511D01*
X148254600Y-125091805D01*
X148256787Y-125069600D01*
X148248060Y-124980992D01*
X148222214Y-124895790D01*
X148213568Y-124879614D01*
X148180243Y-124817267D01*
X148123759Y-124748441D01*
X148106506Y-124734282D01*
X147645000Y-124272777D01*
X147645000Y-123720204D01*
X147647187Y-123697999D01*
X147638460Y-123609392D01*
X147612614Y-123524190D01*
X147607329Y-123514302D01*
X147570643Y-123445667D01*
X147514159Y-123376841D01*
X147496912Y-123362687D01*
X146385323Y-122251100D01*
X146371159Y-122233841D01*
X146302333Y-122177357D01*
X146223810Y-122135386D01*
X146138607Y-122109540D01*
X146133490Y-122109036D01*
X146050000Y-122100813D01*
X146027795Y-122103000D01*
X144706005Y-122103000D01*
X144683800Y-122100813D01*
X144595192Y-122109540D01*
X144509990Y-122135386D01*
X144431467Y-122177357D01*
X144362641Y-122233841D01*
X144348477Y-122251100D01*
X144225200Y-122374377D01*
X143949623Y-122098800D01*
X143935459Y-122081541D01*
X143866633Y-122025057D01*
X143788110Y-121983086D01*
X143702907Y-121957240D01*
X143636505Y-121950700D01*
X143614300Y-121948513D01*
X143592095Y-121950700D01*
X141719200Y-121950700D01*
X141681340Y-121879869D01*
X141613272Y-121796928D01*
X141530331Y-121728860D01*
X141435705Y-121678281D01*
X141333029Y-121647135D01*
X141226250Y-121636618D01*
X140713750Y-121636618D01*
X140606971Y-121647135D01*
X140504295Y-121678281D01*
X140409669Y-121728860D01*
X140326728Y-121796928D01*
X140258660Y-121879869D01*
X140208081Y-121974495D01*
X140176935Y-122077171D01*
X140166418Y-122183950D01*
X140166418Y-122621450D01*
X140176935Y-122728229D01*
X140208081Y-122830905D01*
X140258660Y-122925531D01*
X140326728Y-123008472D01*
X140409669Y-123076540D01*
X140504295Y-123127119D01*
X140606971Y-123158265D01*
X140713750Y-123168782D01*
X141226250Y-123168782D01*
X141333029Y-123158265D01*
X141435705Y-123127119D01*
X141530331Y-123076540D01*
X141613272Y-123008472D01*
X141681340Y-122925531D01*
X141719200Y-122854700D01*
X143039353Y-122854700D01*
X143021630Y-122887857D01*
X143002932Y-122949497D01*
X142996618Y-123013600D01*
X142996618Y-124278019D01*
X142886236Y-124323741D01*
X142767164Y-124403302D01*
X142665902Y-124504564D01*
X142629932Y-124558398D01*
X142627236Y-124555702D01*
X142508164Y-124476141D01*
X142375858Y-124421338D01*
X142235403Y-124393400D01*
X142092197Y-124393400D01*
X141951742Y-124421338D01*
X141819436Y-124476141D01*
X141700364Y-124555702D01*
X141599102Y-124656964D01*
X141519541Y-124776036D01*
X141464738Y-124908342D01*
X141436800Y-125048797D01*
X141436800Y-125192003D01*
X141464738Y-125332458D01*
X141519541Y-125464764D01*
X141599102Y-125583836D01*
X141700364Y-125685098D01*
X141819436Y-125764659D01*
X141951742Y-125819462D01*
X142092197Y-125847400D01*
X142235403Y-125847400D01*
X142248893Y-125844717D01*
X142312064Y-125907888D01*
X142303081Y-125924695D01*
X142271935Y-126027371D01*
X142261418Y-126134150D01*
X142261418Y-126552400D01*
X142193797Y-126552400D01*
X142113000Y-126568471D01*
X142113000Y-125984000D01*
X142110560Y-125959224D01*
X142103333Y-125935399D01*
X142091597Y-125913443D01*
X142075803Y-125894197D01*
X142056557Y-125878403D01*
X142034601Y-125866667D01*
X142010776Y-125859440D01*
X141986000Y-125857000D01*
X140970000Y-125857000D01*
X140945224Y-125859440D01*
X140921399Y-125866667D01*
X140899443Y-125878403D01*
X140880197Y-125894197D01*
X140864403Y-125913443D01*
X140852667Y-125935399D01*
X140845440Y-125959224D01*
X140843000Y-125984000D01*
X140843000Y-129921000D01*
X138138100Y-129921000D01*
X138160615Y-129692400D01*
X138137407Y-129456767D01*
X138068676Y-129230189D01*
X137957061Y-129021374D01*
X137806854Y-128838346D01*
X137623826Y-128688139D01*
X137415011Y-128576524D01*
X137188433Y-128507793D01*
X137154800Y-128504480D01*
X137154800Y-127325852D01*
X137232272Y-127262272D01*
X137300340Y-127179331D01*
X137350919Y-127084705D01*
X137382065Y-126982029D01*
X137392582Y-126875250D01*
X137392582Y-126362750D01*
X137435418Y-126362750D01*
X137435418Y-126875250D01*
X137445935Y-126982029D01*
X137477081Y-127084705D01*
X137527660Y-127179331D01*
X137595728Y-127262272D01*
X137678669Y-127330340D01*
X137773295Y-127380919D01*
X137875971Y-127412065D01*
X137982750Y-127422582D01*
X138420250Y-127422582D01*
X138527029Y-127412065D01*
X138629705Y-127380919D01*
X138724331Y-127330340D01*
X138807272Y-127262272D01*
X138875340Y-127179331D01*
X138911168Y-127112302D01*
X138982564Y-127183698D01*
X139101636Y-127263259D01*
X139233942Y-127318062D01*
X139374397Y-127346000D01*
X139517603Y-127346000D01*
X139658058Y-127318062D01*
X139790364Y-127263259D01*
X139909436Y-127183698D01*
X140010698Y-127082436D01*
X140090259Y-126963364D01*
X140145062Y-126831058D01*
X140173000Y-126690603D01*
X140173000Y-126547397D01*
X140145062Y-126406942D01*
X140090259Y-126274636D01*
X140010698Y-126155564D01*
X139909436Y-126054302D01*
X139790364Y-125974741D01*
X139658058Y-125919938D01*
X139517603Y-125892000D01*
X139374397Y-125892000D01*
X139233942Y-125919938D01*
X139101636Y-125974741D01*
X138982564Y-126054302D01*
X138911168Y-126125698D01*
X138875340Y-126058669D01*
X138807272Y-125975728D01*
X138724331Y-125907660D01*
X138629705Y-125857081D01*
X138527029Y-125825935D01*
X138420250Y-125815418D01*
X137982750Y-125815418D01*
X137875971Y-125825935D01*
X137773295Y-125857081D01*
X137678669Y-125907660D01*
X137595728Y-125975728D01*
X137527660Y-126058669D01*
X137477081Y-126153295D01*
X137445935Y-126255971D01*
X137435418Y-126362750D01*
X137392582Y-126362750D01*
X137382065Y-126255971D01*
X137350919Y-126153295D01*
X137300340Y-126058669D01*
X137232272Y-125975728D01*
X137149331Y-125907660D01*
X137054705Y-125857081D01*
X136952029Y-125825935D01*
X136845250Y-125815418D01*
X136407750Y-125815418D01*
X136300971Y-125825935D01*
X136198295Y-125857081D01*
X136103669Y-125907660D01*
X136020728Y-125975728D01*
X135952660Y-126058669D01*
X135902081Y-126153295D01*
X135897924Y-126167000D01*
X135588582Y-126167000D01*
X135588582Y-126046000D01*
X135582268Y-125981897D01*
X135563570Y-125920257D01*
X135533206Y-125863450D01*
X135492343Y-125813657D01*
X135442550Y-125772794D01*
X135385743Y-125742430D01*
X135324103Y-125723732D01*
X135260000Y-125717418D01*
X134613187Y-125717418D01*
X134629259Y-125693364D01*
X134684062Y-125561058D01*
X134712000Y-125420603D01*
X134712000Y-125277397D01*
X134703484Y-125234582D01*
X135260000Y-125234582D01*
X135324103Y-125228268D01*
X135385743Y-125209570D01*
X135442550Y-125179206D01*
X135492343Y-125138343D01*
X135533206Y-125088550D01*
X135563570Y-125031743D01*
X135582268Y-124970103D01*
X135588582Y-124906000D01*
X135588582Y-123846000D01*
X135582268Y-123781897D01*
X135563570Y-123720257D01*
X135533206Y-123663450D01*
X135492343Y-123613657D01*
X135442550Y-123572794D01*
X135385743Y-123542430D01*
X135324103Y-123523732D01*
X135260000Y-123517418D01*
X134610000Y-123517418D01*
X134545897Y-123523732D01*
X134484257Y-123542430D01*
X134427450Y-123572794D01*
X134377657Y-123613657D01*
X134336794Y-123663450D01*
X134306430Y-123720257D01*
X134287732Y-123781897D01*
X134281418Y-123846000D01*
X134281418Y-124684881D01*
X134197058Y-124649938D01*
X134056603Y-124622000D01*
X133913397Y-124622000D01*
X133772942Y-124649938D01*
X133640636Y-124704741D01*
X133604000Y-124729220D01*
X133604000Y-122171750D01*
X133625418Y-122171750D01*
X133625418Y-122684250D01*
X133635935Y-122791029D01*
X133667081Y-122893705D01*
X133717660Y-122988331D01*
X133785728Y-123071272D01*
X133868669Y-123139340D01*
X133963295Y-123189919D01*
X134065971Y-123221065D01*
X134172750Y-123231582D01*
X134610250Y-123231582D01*
X134717029Y-123221065D01*
X134819705Y-123189919D01*
X134914331Y-123139340D01*
X134997272Y-123071272D01*
X135056022Y-122999686D01*
X135164636Y-123072259D01*
X135296942Y-123127062D01*
X135437397Y-123155000D01*
X135580603Y-123155000D01*
X135721058Y-123127062D01*
X135853364Y-123072259D01*
X135972436Y-122992698D01*
X136073698Y-122891436D01*
X136153259Y-122772364D01*
X136208062Y-122640058D01*
X136236000Y-122499603D01*
X136236000Y-122356397D01*
X136208062Y-122215942D01*
X136153259Y-122083636D01*
X136073698Y-121964564D01*
X135972436Y-121863302D01*
X135853364Y-121783741D01*
X135721058Y-121728938D01*
X135580603Y-121701000D01*
X135437397Y-121701000D01*
X135296942Y-121728938D01*
X135164636Y-121783741D01*
X135056022Y-121856314D01*
X134997272Y-121784728D01*
X134914331Y-121716660D01*
X134819705Y-121666081D01*
X134717029Y-121634935D01*
X134610250Y-121624418D01*
X134172750Y-121624418D01*
X134065971Y-121634935D01*
X133963295Y-121666081D01*
X133868669Y-121716660D01*
X133785728Y-121784728D01*
X133717660Y-121867669D01*
X133667081Y-121962295D01*
X133635935Y-122064971D01*
X133625418Y-122171750D01*
X133604000Y-122171750D01*
X133604000Y-121793000D01*
X133601560Y-121768224D01*
X133594333Y-121744399D01*
X133582597Y-121722443D01*
X133566803Y-121703197D01*
X133547557Y-121687403D01*
X133525601Y-121675667D01*
X133501776Y-121668440D01*
X133477000Y-121666000D01*
X132207000Y-121666000D01*
X132182224Y-121668440D01*
X132158399Y-121675667D01*
X132136443Y-121687403D01*
X132117197Y-121703197D01*
X132101403Y-121722443D01*
X132089667Y-121744399D01*
X132082440Y-121768224D01*
X132080000Y-121793000D01*
X132080000Y-124968000D01*
X132082440Y-124992776D01*
X132089667Y-125016601D01*
X132101403Y-125038557D01*
X132117197Y-125057803D01*
X132136443Y-125073597D01*
X132158399Y-125085333D01*
X132182224Y-125092560D01*
X132207000Y-125095000D01*
X133303311Y-125095000D01*
X133285938Y-125136942D01*
X133258000Y-125277397D01*
X133258000Y-125420603D01*
X133285938Y-125561058D01*
X133340741Y-125693364D01*
X133356813Y-125717418D01*
X132710000Y-125717418D01*
X132645897Y-125723732D01*
X132584257Y-125742430D01*
X132527450Y-125772794D01*
X132477657Y-125813657D01*
X132436794Y-125863450D01*
X132406430Y-125920257D01*
X132387732Y-125981897D01*
X132381418Y-126046000D01*
X132381418Y-127106000D01*
X132387732Y-127170103D01*
X132406430Y-127231743D01*
X132436794Y-127288550D01*
X132477657Y-127338343D01*
X132527450Y-127379206D01*
X132584257Y-127409570D01*
X132586146Y-127410143D01*
X132589540Y-127444607D01*
X132593630Y-127458089D01*
X132615386Y-127529809D01*
X132657357Y-127608332D01*
X132713841Y-127677159D01*
X132731100Y-127691323D01*
X133105681Y-128065905D01*
X133119841Y-128083159D01*
X133188667Y-128139643D01*
X133267190Y-128181614D01*
X133352392Y-128207460D01*
X133441000Y-128216187D01*
X133463205Y-128214000D01*
X134506795Y-128214000D01*
X134529000Y-128216187D01*
X134551205Y-128214000D01*
X134617607Y-128207460D01*
X134702810Y-128181614D01*
X134781333Y-128139643D01*
X134850159Y-128083159D01*
X134864323Y-128065900D01*
X135238905Y-127691319D01*
X135256159Y-127677159D01*
X135312643Y-127608333D01*
X135354614Y-127529810D01*
X135370369Y-127477874D01*
X135380460Y-127444608D01*
X135383854Y-127410143D01*
X135385743Y-127409570D01*
X135442550Y-127379206D01*
X135492343Y-127338343D01*
X135533206Y-127288550D01*
X135563570Y-127231743D01*
X135582268Y-127170103D01*
X135588582Y-127106000D01*
X135588582Y-127071000D01*
X135897924Y-127071000D01*
X135902081Y-127084705D01*
X135952660Y-127179331D01*
X136020728Y-127262272D01*
X136103669Y-127330340D01*
X136198295Y-127380919D01*
X136250801Y-127396846D01*
X136250800Y-128504480D01*
X136217167Y-128507793D01*
X135990589Y-128576524D01*
X135781774Y-128688139D01*
X135598746Y-128838346D01*
X135448539Y-129021374D01*
X135336924Y-129230189D01*
X135268193Y-129456767D01*
X135244985Y-129692400D01*
X135267500Y-129921000D01*
X131622400Y-129921000D01*
X131622400Y-113720397D01*
X132115000Y-113720397D01*
X132115000Y-113863603D01*
X132142938Y-114004058D01*
X132197741Y-114136364D01*
X132277302Y-114255436D01*
X132378564Y-114356698D01*
X132497636Y-114436259D01*
X132629942Y-114491062D01*
X132770397Y-114519000D01*
X132913603Y-114519000D01*
X133054058Y-114491062D01*
X133186364Y-114436259D01*
X133305436Y-114356698D01*
X133406698Y-114255436D01*
X133486259Y-114136364D01*
X133541062Y-114004058D01*
X133569000Y-113863603D01*
X133569000Y-113720397D01*
X133566317Y-113706907D01*
X135660511Y-111612714D01*
X135677759Y-111598559D01*
X135734243Y-111529733D01*
X135742208Y-111514831D01*
X136250977Y-112023600D01*
X136123197Y-112023600D01*
X135982742Y-112051538D01*
X135850436Y-112106341D01*
X135731364Y-112185902D01*
X135630102Y-112287164D01*
X135550541Y-112406236D01*
X135495738Y-112538542D01*
X135467800Y-112678997D01*
X135467800Y-112822203D01*
X135495738Y-112962658D01*
X135550541Y-113094964D01*
X135581268Y-113140950D01*
X135510680Y-113198880D01*
X135438726Y-113286557D01*
X135385260Y-113386586D01*
X135352335Y-113495123D01*
X135341218Y-113607999D01*
X135341218Y-114233001D01*
X135352335Y-114345877D01*
X135385260Y-114454414D01*
X135438726Y-114554443D01*
X135510680Y-114642120D01*
X135598357Y-114714074D01*
X135698386Y-114767540D01*
X135806923Y-114800465D01*
X135883429Y-114808000D01*
X135806923Y-114815535D01*
X135698386Y-114848460D01*
X135598357Y-114901926D01*
X135510680Y-114973880D01*
X135438726Y-115061557D01*
X135385260Y-115161586D01*
X135352335Y-115270123D01*
X135352232Y-115271171D01*
X135336690Y-115275886D01*
X135258167Y-115317857D01*
X135189341Y-115374341D01*
X135175181Y-115391595D01*
X132927093Y-117639683D01*
X132913603Y-117637000D01*
X132770397Y-117637000D01*
X132629942Y-117664938D01*
X132497636Y-117719741D01*
X132378564Y-117799302D01*
X132277302Y-117900564D01*
X132197741Y-118019636D01*
X132142938Y-118151942D01*
X132115000Y-118292397D01*
X132115000Y-118435603D01*
X132142938Y-118576058D01*
X132197741Y-118708364D01*
X132277302Y-118827436D01*
X132378564Y-118928698D01*
X132497636Y-119008259D01*
X132629942Y-119063062D01*
X132770397Y-119091000D01*
X132913603Y-119091000D01*
X133054058Y-119063062D01*
X133186364Y-119008259D01*
X133305436Y-118928698D01*
X133406698Y-118827436D01*
X133486259Y-118708364D01*
X133541062Y-118576058D01*
X133569000Y-118435603D01*
X133569000Y-118292397D01*
X133566317Y-118278907D01*
X135473459Y-116371765D01*
X135510680Y-116417120D01*
X135598357Y-116489074D01*
X135698386Y-116542540D01*
X135806923Y-116575465D01*
X135919799Y-116586582D01*
X136469801Y-116586582D01*
X136582677Y-116575465D01*
X136691214Y-116542540D01*
X136791243Y-116489074D01*
X136878920Y-116417120D01*
X136932116Y-116352300D01*
X137274400Y-116352300D01*
X137312260Y-116423131D01*
X137380328Y-116506072D01*
X137463269Y-116574140D01*
X137557895Y-116624719D01*
X137607201Y-116639675D01*
X137607200Y-116793740D01*
X137595097Y-116794932D01*
X137533457Y-116813630D01*
X137476650Y-116843994D01*
X137426857Y-116884857D01*
X137385994Y-116934650D01*
X137355630Y-116991457D01*
X137336932Y-117053097D01*
X137330618Y-117117200D01*
X137330618Y-118017200D01*
X137336932Y-118081303D01*
X137355630Y-118142943D01*
X137385994Y-118199750D01*
X137426857Y-118249543D01*
X137476650Y-118290406D01*
X137533457Y-118320770D01*
X137595097Y-118339468D01*
X137597101Y-118339665D01*
X137597101Y-118802151D01*
X137573303Y-118794932D01*
X137509200Y-118788618D01*
X136709200Y-118788618D01*
X136645097Y-118794932D01*
X136583457Y-118813630D01*
X136566200Y-118822854D01*
X136566200Y-118698797D01*
X136558809Y-118661638D01*
X136578814Y-118624210D01*
X136604660Y-118539007D01*
X136606578Y-118519533D01*
X136613387Y-118450401D01*
X136611200Y-118428196D01*
X136611200Y-118340660D01*
X136623303Y-118339468D01*
X136684943Y-118320770D01*
X136741750Y-118290406D01*
X136791543Y-118249543D01*
X136832406Y-118199750D01*
X136862770Y-118142943D01*
X136881468Y-118081303D01*
X136887782Y-118017200D01*
X136887782Y-117117200D01*
X136881468Y-117053097D01*
X136862770Y-116991457D01*
X136832406Y-116934650D01*
X136791543Y-116884857D01*
X136741750Y-116843994D01*
X136684943Y-116813630D01*
X136623303Y-116794932D01*
X136559200Y-116788618D01*
X135759200Y-116788618D01*
X135695097Y-116794932D01*
X135633457Y-116813630D01*
X135576650Y-116843994D01*
X135526857Y-116884857D01*
X135485994Y-116934650D01*
X135455630Y-116991457D01*
X135436932Y-117053097D01*
X135430618Y-117117200D01*
X135430618Y-118017200D01*
X135436932Y-118081303D01*
X135455630Y-118142943D01*
X135459330Y-118149865D01*
X135375764Y-118205702D01*
X135274502Y-118306964D01*
X135194941Y-118426036D01*
X135140138Y-118558342D01*
X135112200Y-118698797D01*
X135112200Y-118842003D01*
X135140138Y-118982458D01*
X135194941Y-119114764D01*
X135274502Y-119233836D01*
X135375764Y-119335098D01*
X135494836Y-119414659D01*
X135627142Y-119469462D01*
X135767597Y-119497400D01*
X135910803Y-119497400D01*
X136051258Y-119469462D01*
X136183564Y-119414659D01*
X136302636Y-119335098D01*
X136380618Y-119257116D01*
X136380618Y-120017200D01*
X136386932Y-120081303D01*
X136405630Y-120142943D01*
X136435994Y-120199750D01*
X136476857Y-120249543D01*
X136526650Y-120290406D01*
X136583457Y-120320770D01*
X136645097Y-120339468D01*
X136709200Y-120345782D01*
X137509200Y-120345782D01*
X137573303Y-120339468D01*
X137597100Y-120332249D01*
X137597100Y-120561200D01*
X137526269Y-120599060D01*
X137443328Y-120667128D01*
X137375260Y-120750069D01*
X137324681Y-120844695D01*
X137293535Y-120947371D01*
X137283018Y-121054150D01*
X137283018Y-121566650D01*
X137293535Y-121673429D01*
X137324681Y-121776105D01*
X137375260Y-121870731D01*
X137443328Y-121953672D01*
X137526269Y-122021740D01*
X137620895Y-122072319D01*
X137723571Y-122103465D01*
X137830350Y-122113982D01*
X138267850Y-122113982D01*
X138374629Y-122103465D01*
X138477305Y-122072319D01*
X138571931Y-122021740D01*
X138654872Y-121953672D01*
X138722940Y-121870731D01*
X138773519Y-121776105D01*
X138804665Y-121673429D01*
X138815182Y-121566650D01*
X138815182Y-121054150D01*
X138804665Y-120947371D01*
X138773519Y-120844695D01*
X138722940Y-120750069D01*
X138654872Y-120667128D01*
X138571931Y-120599060D01*
X138501100Y-120561200D01*
X138501100Y-118367543D01*
X138504660Y-118355807D01*
X138506102Y-118341162D01*
X138523303Y-118339468D01*
X138584943Y-118320770D01*
X138641750Y-118290406D01*
X138691543Y-118249543D01*
X138732406Y-118199750D01*
X138762770Y-118142943D01*
X138781468Y-118081303D01*
X138787782Y-118017200D01*
X138787782Y-117117200D01*
X138781468Y-117053097D01*
X138762770Y-116991457D01*
X138732406Y-116934650D01*
X138691543Y-116884857D01*
X138641750Y-116843994D01*
X138584943Y-116813630D01*
X138523303Y-116794932D01*
X138511200Y-116793740D01*
X138511200Y-116613016D01*
X138583931Y-116574140D01*
X138666872Y-116506072D01*
X138734940Y-116423131D01*
X138785519Y-116328505D01*
X138816665Y-116225829D01*
X138827182Y-116119050D01*
X138827182Y-115681550D01*
X138818144Y-115589790D01*
X138854656Y-115589790D01*
X138845618Y-115681550D01*
X138845618Y-116119050D01*
X138856135Y-116225829D01*
X138887281Y-116328505D01*
X138937860Y-116423131D01*
X139005928Y-116506072D01*
X139088869Y-116574140D01*
X139122793Y-116592273D01*
X139059102Y-116655964D01*
X138979541Y-116775036D01*
X138924738Y-116907342D01*
X138896800Y-117047797D01*
X138896800Y-117191003D01*
X138924738Y-117331458D01*
X138979541Y-117463764D01*
X139059102Y-117582836D01*
X139160364Y-117684098D01*
X139279436Y-117763659D01*
X139411742Y-117818462D01*
X139552197Y-117846400D01*
X139575181Y-117846400D01*
X139557200Y-117936797D01*
X139557200Y-118080003D01*
X139585138Y-118220458D01*
X139639941Y-118352764D01*
X139719502Y-118471836D01*
X139820764Y-118573098D01*
X139939836Y-118652659D01*
X140072142Y-118707462D01*
X140212597Y-118735400D01*
X140355803Y-118735400D01*
X140496258Y-118707462D01*
X140628564Y-118652659D01*
X140747636Y-118573098D01*
X140848898Y-118471836D01*
X140928459Y-118352764D01*
X140983262Y-118220458D01*
X140993695Y-118168009D01*
X141075095Y-118211519D01*
X141177771Y-118242665D01*
X141284550Y-118253182D01*
X141722050Y-118253182D01*
X141828829Y-118242665D01*
X141931505Y-118211519D01*
X142026131Y-118160940D01*
X142109072Y-118092872D01*
X142177140Y-118009931D01*
X142227719Y-117915305D01*
X142258865Y-117812629D01*
X142269382Y-117705850D01*
X142269382Y-117193350D01*
X142258865Y-117086571D01*
X142227719Y-116983895D01*
X142177140Y-116889269D01*
X142109072Y-116806328D01*
X142026131Y-116738260D01*
X141931505Y-116687681D01*
X141828829Y-116656535D01*
X141722050Y-116646018D01*
X141284550Y-116646018D01*
X141177771Y-116656535D01*
X141075095Y-116687681D01*
X140980469Y-116738260D01*
X140897528Y-116806328D01*
X140829460Y-116889269D01*
X140778881Y-116983895D01*
X140773305Y-117002277D01*
X140754392Y-117004140D01*
X140696413Y-117021728D01*
X140669190Y-117029986D01*
X140590667Y-117071957D01*
X140521841Y-117128441D01*
X140507681Y-117145695D01*
X140369293Y-117284083D01*
X140355803Y-117281400D01*
X140332819Y-117281400D01*
X140350800Y-117191003D01*
X140350800Y-117047797D01*
X140322862Y-116907342D01*
X140268059Y-116775036D01*
X140188498Y-116655964D01*
X140142502Y-116609968D01*
X140209531Y-116574140D01*
X140292472Y-116506072D01*
X140360540Y-116423131D01*
X140411119Y-116328505D01*
X140442265Y-116225829D01*
X140452782Y-116119050D01*
X140452782Y-115681550D01*
X140443744Y-115589790D01*
X142219789Y-115589790D01*
X142208935Y-115625571D01*
X142198418Y-115732350D01*
X142198418Y-116169850D01*
X142208935Y-116276629D01*
X142240081Y-116379305D01*
X142290660Y-116473931D01*
X142358728Y-116556872D01*
X142441669Y-116624940D01*
X142536295Y-116675519D01*
X142550001Y-116679676D01*
X142550001Y-116742748D01*
X142472528Y-116806328D01*
X142404460Y-116889269D01*
X142353881Y-116983895D01*
X142322735Y-117086571D01*
X142312218Y-117193350D01*
X142312218Y-117705850D01*
X142322735Y-117812629D01*
X142353881Y-117915305D01*
X142404460Y-118009931D01*
X142472528Y-118092872D01*
X142555469Y-118160940D01*
X142650095Y-118211519D01*
X142752771Y-118242665D01*
X142859550Y-118253182D01*
X143023201Y-118253182D01*
X143023201Y-118484919D01*
X143021630Y-118487857D01*
X143002932Y-118549497D01*
X142996618Y-118613600D01*
X142996618Y-120013600D01*
X143002932Y-120077703D01*
X143021630Y-120139343D01*
X143051994Y-120196150D01*
X143092857Y-120245943D01*
X143142650Y-120286806D01*
X143157973Y-120294996D01*
X143113891Y-120401419D01*
X143085953Y-120541874D01*
X143085953Y-120685080D01*
X143113891Y-120825535D01*
X143168694Y-120957841D01*
X143248255Y-121076913D01*
X143349517Y-121178175D01*
X143468589Y-121257736D01*
X143600895Y-121312539D01*
X143741350Y-121340477D01*
X143884556Y-121340477D01*
X144025011Y-121312539D01*
X144157317Y-121257736D01*
X144276389Y-121178175D01*
X144377651Y-121076913D01*
X144457212Y-120957841D01*
X144483396Y-120894627D01*
X144779105Y-120598919D01*
X144796359Y-120584759D01*
X144852843Y-120515933D01*
X144894814Y-120437410D01*
X144920660Y-120352208D01*
X144921647Y-120342182D01*
X145125200Y-120342182D01*
X145189303Y-120335868D01*
X145250943Y-120317170D01*
X145307750Y-120286806D01*
X145329447Y-120269000D01*
X146993861Y-120269000D01*
X146964260Y-120305069D01*
X146913681Y-120399695D01*
X146882535Y-120502371D01*
X146872018Y-120609150D01*
X146872018Y-121046650D01*
X146882535Y-121153429D01*
X146913681Y-121256105D01*
X146964260Y-121350731D01*
X147032328Y-121433672D01*
X147115269Y-121501740D01*
X147209895Y-121552319D01*
X147223601Y-121556476D01*
X147223601Y-121576260D01*
X147212164Y-121583902D01*
X147110902Y-121685164D01*
X147031341Y-121804236D01*
X146976538Y-121936542D01*
X146948600Y-122076997D01*
X146948600Y-122220203D01*
X146976538Y-122360658D01*
X147031341Y-122492964D01*
X147110902Y-122612036D01*
X147212164Y-122713298D01*
X147331236Y-122792859D01*
X147463542Y-122847662D01*
X147603997Y-122875600D01*
X147747203Y-122875600D01*
X147887658Y-122847662D01*
X148019964Y-122792859D01*
X148139036Y-122713298D01*
X148240298Y-122612036D01*
X148319859Y-122492964D01*
X148374662Y-122360658D01*
X148402600Y-122220203D01*
X148402600Y-122076997D01*
X148374662Y-121936542D01*
X148319859Y-121804236D01*
X148240298Y-121685164D01*
X148139036Y-121583902D01*
X148127600Y-121576261D01*
X148127600Y-121556476D01*
X148141305Y-121552319D01*
X148235931Y-121501740D01*
X148318872Y-121433672D01*
X148386940Y-121350731D01*
X148437519Y-121256105D01*
X148468665Y-121153429D01*
X148479182Y-121046650D01*
X148479182Y-120609150D01*
X148468665Y-120502371D01*
X148437519Y-120399695D01*
X148386940Y-120305069D01*
X148357339Y-120269000D01*
X149006831Y-120269000D01*
X148957186Y-120284060D01*
X148857157Y-120337526D01*
X148769480Y-120409480D01*
X148697526Y-120497157D01*
X148644060Y-120597186D01*
X148611135Y-120705723D01*
X148600018Y-120818599D01*
X148600018Y-121443601D01*
X148611135Y-121556477D01*
X148644060Y-121665014D01*
X148697526Y-121765043D01*
X148769480Y-121852720D01*
X148857157Y-121924674D01*
X148953498Y-121976168D01*
X148939702Y-121989964D01*
X148860141Y-122109036D01*
X148805338Y-122241342D01*
X148777400Y-122381797D01*
X148777400Y-122525003D01*
X148805338Y-122665458D01*
X148860141Y-122797764D01*
X148939702Y-122916836D01*
X149040964Y-123018098D01*
X149160036Y-123097659D01*
X149292342Y-123152462D01*
X149432797Y-123180400D01*
X149576003Y-123180400D01*
X149716458Y-123152462D01*
X149848764Y-123097659D01*
X149967836Y-123018098D01*
X150069098Y-122916836D01*
X150148659Y-122797764D01*
X150203462Y-122665458D01*
X150231400Y-122525003D01*
X150231400Y-122381797D01*
X150203462Y-122241342D01*
X150148659Y-122109036D01*
X150069098Y-121989964D01*
X150019913Y-121940779D01*
X150050043Y-121924674D01*
X150137720Y-121852720D01*
X150209674Y-121765043D01*
X150263140Y-121665014D01*
X150296065Y-121556477D01*
X150307182Y-121443601D01*
X150307182Y-120818599D01*
X150296065Y-120705723D01*
X150263140Y-120597186D01*
X150209674Y-120497157D01*
X150137720Y-120409480D01*
X150050043Y-120337526D01*
X149950014Y-120284060D01*
X149900369Y-120269000D01*
X150241000Y-120269000D01*
X150265776Y-120266560D01*
X150289601Y-120259333D01*
X150311557Y-120247597D01*
X150330803Y-120231803D01*
X150346597Y-120212557D01*
X150358333Y-120190601D01*
X150365560Y-120166776D01*
X150368000Y-120142000D01*
X150368000Y-118618000D01*
X150365560Y-118593224D01*
X150358333Y-118569399D01*
X150346597Y-118547443D01*
X150330803Y-118528197D01*
X150311557Y-118512403D01*
X150289601Y-118500667D01*
X150265776Y-118493440D01*
X150241000Y-118491000D01*
X147451323Y-118491000D01*
X147548742Y-118393582D01*
X147931850Y-118393582D01*
X148038629Y-118383065D01*
X148141305Y-118351919D01*
X148235931Y-118301340D01*
X148318872Y-118233272D01*
X148386940Y-118150331D01*
X148424800Y-118079500D01*
X148655437Y-118079500D01*
X148697526Y-118158243D01*
X148769480Y-118245920D01*
X148857157Y-118317874D01*
X148957186Y-118371340D01*
X149065723Y-118404265D01*
X149178599Y-118415382D01*
X149728601Y-118415382D01*
X149841477Y-118404265D01*
X149950014Y-118371340D01*
X150050043Y-118317874D01*
X150137720Y-118245920D01*
X150209674Y-118158243D01*
X150263140Y-118058214D01*
X150296065Y-117949677D01*
X150307182Y-117836801D01*
X150307182Y-117359942D01*
X150925910Y-116741215D01*
X150943159Y-116727059D01*
X150999643Y-116658233D01*
X151041614Y-116579710D01*
X151043304Y-116574140D01*
X151067460Y-116494508D01*
X151076187Y-116405901D01*
X151074000Y-116383696D01*
X151074000Y-114449205D01*
X151076187Y-114427000D01*
X151067460Y-114338392D01*
X151041614Y-114253190D01*
X151013219Y-114200067D01*
X150999643Y-114174667D01*
X150943159Y-114105841D01*
X150925906Y-114091682D01*
X150068323Y-113234100D01*
X150054159Y-113216841D01*
X149985333Y-113160357D01*
X149906810Y-113118386D01*
X149821607Y-113092540D01*
X149755205Y-113086000D01*
X149733000Y-113083813D01*
X149710795Y-113086000D01*
X147469204Y-113086000D01*
X147446999Y-113083813D01*
X147358392Y-113092540D01*
X147350402Y-113094964D01*
X147273190Y-113118386D01*
X147194667Y-113160357D01*
X147125841Y-113216841D01*
X147111685Y-113234090D01*
X145659167Y-114686610D01*
X145371344Y-114686610D01*
X145380382Y-114594850D01*
X145380382Y-114157350D01*
X145369865Y-114050571D01*
X145338719Y-113947895D01*
X145288140Y-113853269D01*
X145220072Y-113770328D01*
X145137131Y-113702260D01*
X145042505Y-113651681D01*
X145028800Y-113647524D01*
X145028800Y-108861205D01*
X145030987Y-108839000D01*
X145022260Y-108750392D01*
X144996414Y-108665190D01*
X144990851Y-108654782D01*
X144954443Y-108586667D01*
X144897959Y-108517841D01*
X144880705Y-108503681D01*
X144099323Y-107722300D01*
X144085159Y-107705041D01*
X144016333Y-107648557D01*
X143937810Y-107606586D01*
X143852607Y-107580740D01*
X143786205Y-107574200D01*
X143764000Y-107572013D01*
X143741795Y-107574200D01*
X143701489Y-107574200D01*
X143671609Y-107537791D01*
X143599086Y-107478274D01*
X143516345Y-107434048D01*
X143426567Y-107406814D01*
X143333200Y-107397618D01*
X141683200Y-107397618D01*
X141660190Y-107399884D01*
X141660190Y-107382516D01*
X141683200Y-107384782D01*
X143333200Y-107384782D01*
X143426567Y-107375586D01*
X143516345Y-107348352D01*
X143599086Y-107304126D01*
X143671609Y-107244609D01*
X143701489Y-107208200D01*
X143784289Y-107208200D01*
X143808902Y-107245036D01*
X143910164Y-107346298D01*
X144029236Y-107425859D01*
X144161542Y-107480662D01*
X144301997Y-107508600D01*
X144445203Y-107508600D01*
X144585658Y-107480662D01*
X144717964Y-107425859D01*
X144837036Y-107346298D01*
X144938298Y-107245036D01*
X145017859Y-107125964D01*
X145072662Y-106993658D01*
X145100600Y-106853203D01*
X145100600Y-106709997D01*
X145072662Y-106569542D01*
X145017859Y-106437236D01*
X144938298Y-106318164D01*
X144837036Y-106216902D01*
X144717964Y-106137341D01*
X144648887Y-106108728D01*
X144735436Y-106050898D01*
X144836698Y-105949636D01*
X144844339Y-105938200D01*
X144944261Y-105938200D01*
X144951902Y-105949636D01*
X145053164Y-106050898D01*
X145172236Y-106130459D01*
X145304542Y-106185262D01*
X145444997Y-106213200D01*
X145588203Y-106213200D01*
X145728658Y-106185262D01*
X145860964Y-106130459D01*
X145980036Y-106050898D01*
X146081298Y-105949636D01*
X146088939Y-105938200D01*
X146264911Y-105938200D01*
X146294791Y-105974609D01*
X146367314Y-106034126D01*
X146387658Y-106045000D01*
X146177000Y-106045000D01*
X146152224Y-106047440D01*
X146128399Y-106054667D01*
X146106443Y-106066403D01*
X146087197Y-106082197D01*
X146071403Y-106101443D01*
X146059667Y-106123399D01*
X146052440Y-106147224D01*
X146050000Y-106172000D01*
X146050000Y-107315000D01*
X146052440Y-107339776D01*
X146059667Y-107363601D01*
X146071403Y-107385557D01*
X146087197Y-107404803D01*
X146106443Y-107420597D01*
X146128399Y-107432333D01*
X146152224Y-107439560D01*
X146177000Y-107442000D01*
X146435178Y-107442000D01*
X146367314Y-107478274D01*
X146294791Y-107537791D01*
X146235274Y-107610314D01*
X146191048Y-107693055D01*
X146163814Y-107782833D01*
X146154618Y-107876200D01*
X146154618Y-108176200D01*
X146163814Y-108269567D01*
X146191048Y-108359345D01*
X146235274Y-108442086D01*
X146294791Y-108514609D01*
X146367314Y-108574126D01*
X146450055Y-108618352D01*
X146539833Y-108645586D01*
X146633200Y-108654782D01*
X148283200Y-108654782D01*
X148376567Y-108645586D01*
X148466345Y-108618352D01*
X148549086Y-108574126D01*
X148621609Y-108514609D01*
X148681126Y-108442086D01*
X148725352Y-108359345D01*
X148752586Y-108269567D01*
X148757448Y-108220199D01*
X149209618Y-108220199D01*
X149209618Y-108845201D01*
X149220735Y-108958077D01*
X149253660Y-109066614D01*
X149307126Y-109166643D01*
X149379080Y-109254320D01*
X149466757Y-109326274D01*
X149566786Y-109379740D01*
X149611201Y-109393213D01*
X149611201Y-109558265D01*
X149523902Y-109645564D01*
X149444341Y-109764636D01*
X149389538Y-109896942D01*
X149361600Y-110037397D01*
X149361600Y-110180603D01*
X149389538Y-110321058D01*
X149444341Y-110453364D01*
X149523902Y-110572436D01*
X149625164Y-110673698D01*
X149744236Y-110753259D01*
X149876542Y-110808062D01*
X150016997Y-110836000D01*
X150160203Y-110836000D01*
X150300658Y-110808062D01*
X150432964Y-110753259D01*
X150552036Y-110673698D01*
X150653298Y-110572436D01*
X150732859Y-110453364D01*
X150787662Y-110321058D01*
X150815600Y-110180603D01*
X150815600Y-110037397D01*
X150787662Y-109896942D01*
X150732859Y-109764636D01*
X150653298Y-109645564D01*
X150552036Y-109544302D01*
X150515200Y-109519689D01*
X150515200Y-109393213D01*
X150559614Y-109379740D01*
X150659643Y-109326274D01*
X150747320Y-109254320D01*
X150819274Y-109166643D01*
X150872740Y-109066614D01*
X150905665Y-108958077D01*
X150916782Y-108845201D01*
X150916782Y-108220199D01*
X150905665Y-108107323D01*
X150872740Y-107998786D01*
X150819274Y-107898757D01*
X150747320Y-107811080D01*
X150659643Y-107739126D01*
X150559614Y-107685660D01*
X150451077Y-107652735D01*
X150338201Y-107641618D01*
X149788199Y-107641618D01*
X149675323Y-107652735D01*
X149566786Y-107685660D01*
X149466757Y-107739126D01*
X149379080Y-107811080D01*
X149307126Y-107898757D01*
X149253660Y-107998786D01*
X149220735Y-108107323D01*
X149209618Y-108220199D01*
X148757448Y-108220199D01*
X148761782Y-108176200D01*
X148761782Y-107876200D01*
X148752586Y-107782833D01*
X148725352Y-107693055D01*
X148681126Y-107610314D01*
X148621609Y-107537791D01*
X148549086Y-107478274D01*
X148481222Y-107442000D01*
X150495000Y-107442000D01*
X150519776Y-107439560D01*
X150543601Y-107432333D01*
X150565557Y-107420597D01*
X150584803Y-107404803D01*
X150600597Y-107385557D01*
X150612333Y-107363601D01*
X150619560Y-107339776D01*
X150622000Y-107315000D01*
X150622000Y-106172000D01*
X150619560Y-106147224D01*
X150612333Y-106123399D01*
X150600597Y-106101443D01*
X150584803Y-106082197D01*
X150565557Y-106066403D01*
X150543601Y-106054667D01*
X150519776Y-106047440D01*
X150495000Y-106045000D01*
X148528742Y-106045000D01*
X148549086Y-106034126D01*
X148621609Y-105974609D01*
X148681126Y-105902086D01*
X148725352Y-105819345D01*
X148752586Y-105729567D01*
X148761782Y-105636200D01*
X148761782Y-105336200D01*
X148752586Y-105242833D01*
X148725352Y-105153055D01*
X148681126Y-105070314D01*
X148621609Y-104997791D01*
X148549086Y-104938274D01*
X148466345Y-104894048D01*
X148376567Y-104866814D01*
X148283200Y-104857618D01*
X147910200Y-104857618D01*
X147910200Y-104844782D01*
X148283200Y-104844782D01*
X148376567Y-104835586D01*
X148466345Y-104808352D01*
X148549086Y-104764126D01*
X148621609Y-104704609D01*
X148681126Y-104632086D01*
X148725352Y-104549345D01*
X148752586Y-104459567D01*
X148761782Y-104366200D01*
X148761782Y-104066200D01*
X148752586Y-103972833D01*
X148725352Y-103883055D01*
X148681126Y-103800314D01*
X148621609Y-103727791D01*
X148549086Y-103668274D01*
X148466345Y-103624048D01*
X148376567Y-103596814D01*
X148283200Y-103587618D01*
X147468842Y-103587618D01*
X146955323Y-103074100D01*
X146941159Y-103056841D01*
X146872333Y-103000357D01*
X146793810Y-102958386D01*
X146708607Y-102932540D01*
X146642205Y-102926000D01*
X146620000Y-102923813D01*
X146597795Y-102926000D01*
X143454000Y-102926000D01*
X143454000Y-102255794D01*
X143456187Y-102233589D01*
X143447460Y-102144982D01*
X143439014Y-102117140D01*
X143421614Y-102059780D01*
X143379643Y-101981257D01*
X143323159Y-101912431D01*
X143305912Y-101898277D01*
X142380010Y-100972377D01*
X142380010Y-100321213D01*
X142906920Y-99794305D01*
X142924169Y-99780149D01*
X142980653Y-99711323D01*
X143022624Y-99632800D01*
X143022624Y-99632799D01*
X143048470Y-99547598D01*
X143057197Y-99458991D01*
X143055010Y-99436786D01*
X143055010Y-97607410D01*
X143057197Y-97585205D01*
X143048470Y-97496598D01*
X143042454Y-97476768D01*
X143022624Y-97411396D01*
X142980653Y-97332873D01*
X142924169Y-97264047D01*
X142906921Y-97249892D01*
X142279317Y-96622290D01*
X142265153Y-96605031D01*
X142196327Y-96548547D01*
X142117804Y-96506576D01*
X142032601Y-96480730D01*
X141966199Y-96474190D01*
X141943994Y-96472003D01*
X141921789Y-96474190D01*
X141034210Y-96474190D01*
X141012005Y-96472003D01*
X140923398Y-96480730D01*
X140903568Y-96486746D01*
X140838196Y-96506576D01*
X140759673Y-96548547D01*
X140690847Y-96605031D01*
X140676691Y-96622280D01*
X140049085Y-97249888D01*
X140031832Y-97264047D01*
X139975349Y-97332872D01*
X139975348Y-97332873D01*
X139933376Y-97411397D01*
X139911846Y-97482371D01*
X139879600Y-97422043D01*
X139738765Y-97250435D01*
X139567157Y-97109600D01*
X139371370Y-97004950D01*
X139158930Y-96940507D01*
X138938000Y-96918747D01*
X138717069Y-96940507D01*
X138504629Y-97004950D01*
X138308843Y-97109600D01*
X138137235Y-97250435D01*
X137996400Y-97422043D01*
X137891750Y-97617830D01*
X137827307Y-97830270D01*
X137811000Y-97995836D01*
X137811000Y-98048589D01*
X137794999Y-98047013D01*
X137706392Y-98055740D01*
X137686562Y-98061756D01*
X137621190Y-98081586D01*
X137542667Y-98123557D01*
X137473841Y-98180041D01*
X137459686Y-98197289D01*
X135052700Y-100604277D01*
X135035441Y-100618441D01*
X134978957Y-100687268D01*
X134964594Y-100714140D01*
X134936986Y-100765791D01*
X134911140Y-100850993D01*
X134902413Y-100939600D01*
X134904600Y-100961805D01*
X134904601Y-103468911D01*
X134868191Y-103498791D01*
X134808674Y-103571314D01*
X134764448Y-103654055D01*
X134737214Y-103743833D01*
X134728018Y-103837200D01*
X134728018Y-105487200D01*
X134737214Y-105580567D01*
X134764448Y-105670345D01*
X134808674Y-105753086D01*
X134868191Y-105825609D01*
X134904601Y-105855489D01*
X134904601Y-106276785D01*
X134902413Y-106299000D01*
X134911140Y-106387607D01*
X134936986Y-106472809D01*
X134978958Y-106551333D01*
X135035442Y-106620159D01*
X135052695Y-106634318D01*
X135503885Y-107085510D01*
X135518041Y-107102759D01*
X135586867Y-107159243D01*
X135665390Y-107201214D01*
X135750593Y-107227060D01*
X135816995Y-107233600D01*
X135816996Y-107233600D01*
X135839199Y-107235787D01*
X135861402Y-107233600D01*
X137495533Y-107233600D01*
X137458564Y-107258302D01*
X137357302Y-107359564D01*
X137277741Y-107478636D01*
X137222938Y-107610942D01*
X137195000Y-107751397D01*
X137195000Y-107894603D01*
X137222938Y-108035058D01*
X137277741Y-108167364D01*
X137357302Y-108286436D01*
X137444601Y-108373735D01*
X137444601Y-108418911D01*
X137408191Y-108448791D01*
X137348674Y-108521314D01*
X137304448Y-108604055D01*
X137277214Y-108693833D01*
X137268018Y-108787200D01*
X137268018Y-110437200D01*
X137277214Y-110530567D01*
X137304448Y-110620345D01*
X137348674Y-110703086D01*
X137408191Y-110775609D01*
X137480714Y-110835126D01*
X137563455Y-110879352D01*
X137653233Y-110906586D01*
X137746600Y-110915782D01*
X138046600Y-110915782D01*
X138139967Y-110906586D01*
X138229745Y-110879352D01*
X138312486Y-110835126D01*
X138385009Y-110775609D01*
X138444526Y-110703086D01*
X138488752Y-110620345D01*
X138515986Y-110530567D01*
X138525182Y-110437200D01*
X138525182Y-108787200D01*
X138515986Y-108693833D01*
X138488752Y-108604055D01*
X138444526Y-108521314D01*
X138385009Y-108448791D01*
X138348600Y-108418911D01*
X138348600Y-108412311D01*
X138385436Y-108387698D01*
X138486698Y-108286436D01*
X138566259Y-108167364D01*
X138621062Y-108035058D01*
X138649000Y-107894603D01*
X138649000Y-107751397D01*
X138640217Y-107707241D01*
X138714600Y-107781624D01*
X138714600Y-108418911D01*
X138678191Y-108448791D01*
X138618674Y-108521314D01*
X138574448Y-108604055D01*
X138547214Y-108693833D01*
X138538018Y-108787200D01*
X138538018Y-110437200D01*
X138547214Y-110530567D01*
X138574448Y-110620345D01*
X138618674Y-110703086D01*
X138678191Y-110775609D01*
X138750714Y-110835126D01*
X138833455Y-110879352D01*
X138923233Y-110906586D01*
X139016600Y-110915782D01*
X139316600Y-110915782D01*
X139409967Y-110906586D01*
X139499745Y-110879352D01*
X139582486Y-110835126D01*
X139655009Y-110775609D01*
X139714526Y-110703086D01*
X139758752Y-110620345D01*
X139785986Y-110530567D01*
X139795182Y-110437200D01*
X139795182Y-108787200D01*
X139785986Y-108693833D01*
X139758752Y-108604055D01*
X139714526Y-108521314D01*
X139655009Y-108448791D01*
X139618600Y-108418911D01*
X139618600Y-107616605D01*
X139620787Y-107594400D01*
X139612060Y-107505792D01*
X139586214Y-107420590D01*
X139572115Y-107394213D01*
X139544243Y-107342067D01*
X139487759Y-107273241D01*
X139470506Y-107259082D01*
X138689123Y-106477700D01*
X138674959Y-106460441D01*
X138606133Y-106403957D01*
X138527610Y-106361986D01*
X138442407Y-106336140D01*
X138376005Y-106329600D01*
X138353800Y-106327413D01*
X138331595Y-106329600D01*
X136026424Y-106329600D01*
X135808600Y-106111776D01*
X135808600Y-105855489D01*
X135845009Y-105825609D01*
X135904526Y-105753086D01*
X135948752Y-105670345D01*
X135975986Y-105580567D01*
X135985182Y-105487200D01*
X135985182Y-103837200D01*
X135998018Y-103837200D01*
X135998018Y-105487200D01*
X136007214Y-105580567D01*
X136034448Y-105670345D01*
X136078674Y-105753086D01*
X136138191Y-105825609D01*
X136210714Y-105885126D01*
X136293455Y-105929352D01*
X136383233Y-105956586D01*
X136476600Y-105965782D01*
X136776600Y-105965782D01*
X136869967Y-105956586D01*
X136959745Y-105929352D01*
X137042486Y-105885126D01*
X137115009Y-105825609D01*
X137160000Y-105770786D01*
X137160000Y-105918000D01*
X137162440Y-105942776D01*
X137169667Y-105966601D01*
X137181403Y-105988557D01*
X137197197Y-106007803D01*
X137216443Y-106023597D01*
X137238399Y-106035333D01*
X137262224Y-106042560D01*
X137287000Y-106045000D01*
X138557000Y-106045000D01*
X138581776Y-106042560D01*
X138605601Y-106035333D01*
X138627557Y-106023597D01*
X138646803Y-106007803D01*
X138662597Y-105988557D01*
X138674333Y-105966601D01*
X138681560Y-105942776D01*
X138684000Y-105918000D01*
X138684000Y-105830376D01*
X138750714Y-105885126D01*
X138833455Y-105929352D01*
X138923233Y-105956586D01*
X139016600Y-105965782D01*
X139316600Y-105965782D01*
X139409967Y-105956586D01*
X139499745Y-105929352D01*
X139582486Y-105885126D01*
X139655009Y-105825609D01*
X139714526Y-105753086D01*
X139758752Y-105670345D01*
X139785986Y-105580567D01*
X139795182Y-105487200D01*
X139795182Y-103837200D01*
X139785986Y-103743833D01*
X139758752Y-103654055D01*
X139714526Y-103571314D01*
X139655009Y-103498791D01*
X139582486Y-103439274D01*
X139499745Y-103395048D01*
X139409967Y-103367814D01*
X139316600Y-103358618D01*
X139016600Y-103358618D01*
X138923233Y-103367814D01*
X138833455Y-103395048D01*
X138750714Y-103439274D01*
X138684000Y-103494024D01*
X138684000Y-101727000D01*
X138681560Y-101702224D01*
X138674333Y-101678399D01*
X138662597Y-101656443D01*
X138646803Y-101637197D01*
X138627557Y-101621403D01*
X138605601Y-101609667D01*
X138581776Y-101602440D01*
X138557000Y-101600000D01*
X137287000Y-101600000D01*
X137262224Y-101602440D01*
X137238399Y-101609667D01*
X137216443Y-101621403D01*
X137197197Y-101637197D01*
X137181403Y-101656443D01*
X137169667Y-101678399D01*
X137162440Y-101702224D01*
X137160000Y-101727000D01*
X137160000Y-103553614D01*
X137115009Y-103498791D01*
X137042486Y-103439274D01*
X136959745Y-103395048D01*
X136869967Y-103367814D01*
X136776600Y-103358618D01*
X136476600Y-103358618D01*
X136383233Y-103367814D01*
X136293455Y-103395048D01*
X136210714Y-103439274D01*
X136138191Y-103498791D01*
X136078674Y-103571314D01*
X136034448Y-103654055D01*
X136007214Y-103743833D01*
X135998018Y-103837200D01*
X135985182Y-103837200D01*
X135975986Y-103743833D01*
X135948752Y-103654055D01*
X135904526Y-103571314D01*
X135845009Y-103498791D01*
X135808600Y-103468911D01*
X135808600Y-101126823D01*
X137821567Y-99113857D01*
X137827307Y-99172131D01*
X137891751Y-99384571D01*
X137996401Y-99580357D01*
X138137236Y-99751965D01*
X138308844Y-99892800D01*
X138504630Y-99997450D01*
X138717070Y-100061893D01*
X138938000Y-100083653D01*
X139158931Y-100061893D01*
X139371371Y-99997450D01*
X139567157Y-99892800D01*
X139738765Y-99751965D01*
X139879600Y-99580357D01*
X139905909Y-99531137D01*
X139907530Y-99547597D01*
X139917468Y-99580357D01*
X139933376Y-99632799D01*
X139975347Y-99711322D01*
X140031831Y-99780149D01*
X140049090Y-99794313D01*
X140575991Y-100321215D01*
X140575990Y-101510195D01*
X140573803Y-101532400D01*
X140582530Y-101621007D01*
X140595082Y-101662386D01*
X140608376Y-101706209D01*
X140632239Y-101750854D01*
X140610410Y-101739186D01*
X140536650Y-101716811D01*
X140520140Y-101662386D01*
X140466674Y-101562357D01*
X140394720Y-101474680D01*
X140307043Y-101402726D01*
X140207014Y-101349260D01*
X140098477Y-101316335D01*
X139985601Y-101305218D01*
X139360599Y-101305218D01*
X139247723Y-101316335D01*
X139139186Y-101349260D01*
X139039157Y-101402726D01*
X138951480Y-101474680D01*
X138879526Y-101562357D01*
X138826060Y-101662386D01*
X138793135Y-101770923D01*
X138782018Y-101883799D01*
X138782018Y-102433801D01*
X138793135Y-102546677D01*
X138826060Y-102655214D01*
X138879526Y-102755243D01*
X138951480Y-102842920D01*
X139039157Y-102914874D01*
X139139186Y-102968340D01*
X139247723Y-103001265D01*
X139360599Y-103012382D01*
X139985601Y-103012382D01*
X140098477Y-103001265D01*
X140207014Y-102968340D01*
X140217435Y-102962770D01*
X140227502Y-102977836D01*
X140328764Y-103079098D01*
X140447836Y-103158659D01*
X140580142Y-103213462D01*
X140720597Y-103241400D01*
X140863803Y-103241400D01*
X141004258Y-103213462D01*
X141136564Y-103158659D01*
X141255636Y-103079098D01*
X141356898Y-102977836D01*
X141436459Y-102858764D01*
X141491262Y-102726458D01*
X141506453Y-102650087D01*
X141606191Y-102749824D01*
X141606190Y-102864585D01*
X141496968Y-102973809D01*
X141447299Y-103000357D01*
X141378473Y-103056841D01*
X141364313Y-103074095D01*
X140904286Y-103534123D01*
X140887032Y-103548283D01*
X140854751Y-103587618D01*
X140830548Y-103617109D01*
X140788576Y-103695633D01*
X140762730Y-103780835D01*
X140754003Y-103869442D01*
X140756191Y-103891657D01*
X140756190Y-105138985D01*
X140754003Y-105161190D01*
X140756190Y-105183394D01*
X140756191Y-107678975D01*
X140754003Y-107701190D01*
X140762730Y-107789797D01*
X140788576Y-107874999D01*
X140810255Y-107915558D01*
X140830548Y-107953523D01*
X140887032Y-108022349D01*
X140904285Y-108036508D01*
X141197881Y-108330105D01*
X141212041Y-108347359D01*
X141252303Y-108380401D01*
X141285274Y-108442086D01*
X141344791Y-108514609D01*
X141417314Y-108574126D01*
X141500055Y-108618352D01*
X141589833Y-108645586D01*
X141683200Y-108654782D01*
X143333200Y-108654782D01*
X143426567Y-108645586D01*
X143516345Y-108618352D01*
X143599086Y-108574126D01*
X143639520Y-108540943D01*
X144124801Y-109026225D01*
X144124800Y-113647524D01*
X144111095Y-113651681D01*
X144016469Y-113702260D01*
X143933528Y-113770328D01*
X143865460Y-113853269D01*
X143814881Y-113947895D01*
X143789400Y-114031896D01*
X143763919Y-113947895D01*
X143713340Y-113853269D01*
X143645272Y-113770328D01*
X143562331Y-113702260D01*
X143467705Y-113651681D01*
X143365029Y-113620535D01*
X143258250Y-113610018D01*
X142745750Y-113610018D01*
X142638971Y-113620535D01*
X142536295Y-113651681D01*
X142441669Y-113702260D01*
X142358728Y-113770328D01*
X142290660Y-113853269D01*
X142279953Y-113873300D01*
X140398400Y-113873300D01*
X140360540Y-113802469D01*
X140292472Y-113719528D01*
X140209531Y-113651460D01*
X140114905Y-113600881D01*
X140012229Y-113569735D01*
X139905450Y-113559218D01*
X139392950Y-113559218D01*
X139286171Y-113569735D01*
X139183495Y-113600881D01*
X139088869Y-113651460D01*
X139005928Y-113719528D01*
X138937860Y-113802469D01*
X138900000Y-113873300D01*
X138772800Y-113873300D01*
X138734940Y-113802469D01*
X138666872Y-113719528D01*
X138583931Y-113651460D01*
X138489305Y-113600881D01*
X138475600Y-113596724D01*
X138475600Y-113179205D01*
X138477787Y-113157000D01*
X138469060Y-113068392D01*
X138443214Y-112983190D01*
X138401243Y-112904667D01*
X138344759Y-112835841D01*
X138327505Y-112821681D01*
X136415597Y-110909774D01*
X136476600Y-110915782D01*
X136776600Y-110915782D01*
X136869967Y-110906586D01*
X136959745Y-110879352D01*
X137042486Y-110835126D01*
X137115009Y-110775609D01*
X137174526Y-110703086D01*
X137218752Y-110620345D01*
X137245986Y-110530567D01*
X137255182Y-110437200D01*
X137255182Y-108787200D01*
X137245986Y-108693833D01*
X137218752Y-108604055D01*
X137174526Y-108521314D01*
X137115009Y-108448791D01*
X137042486Y-108389274D01*
X136959745Y-108345048D01*
X136869967Y-108317814D01*
X136776600Y-108308618D01*
X136476600Y-108308618D01*
X136383233Y-108317814D01*
X136293455Y-108345048D01*
X136210714Y-108389274D01*
X136138191Y-108448791D01*
X136078674Y-108521314D01*
X136034448Y-108604055D01*
X136007214Y-108693833D01*
X135998018Y-108787200D01*
X135998018Y-110437200D01*
X136004026Y-110498203D01*
X135981402Y-110475579D01*
X135985182Y-110437200D01*
X135985182Y-108787200D01*
X135975986Y-108693833D01*
X135948752Y-108604055D01*
X135904526Y-108521314D01*
X135845009Y-108448791D01*
X135772486Y-108389274D01*
X135689745Y-108345048D01*
X135599967Y-108317814D01*
X135506600Y-108308618D01*
X135206600Y-108308618D01*
X135113233Y-108317814D01*
X135023455Y-108345048D01*
X134940714Y-108389274D01*
X134868191Y-108448791D01*
X134808674Y-108521314D01*
X134764448Y-108604055D01*
X134737214Y-108693833D01*
X134728018Y-108787200D01*
X134728018Y-110437200D01*
X134737214Y-110530567D01*
X134764448Y-110620345D01*
X134808674Y-110703086D01*
X134868191Y-110775609D01*
X134904601Y-110805489D01*
X134904601Y-111090174D01*
X132927093Y-113067683D01*
X132913603Y-113065000D01*
X132770397Y-113065000D01*
X132629942Y-113092938D01*
X132497636Y-113147741D01*
X132378564Y-113227302D01*
X132277302Y-113328564D01*
X132197741Y-113447636D01*
X132142938Y-113579942D01*
X132115000Y-113720397D01*
X131622400Y-113720397D01*
X131622400Y-91569172D01*
X134321000Y-91569172D01*
X134321001Y-95273229D01*
X134351054Y-95578363D01*
X134469819Y-95969879D01*
X134662683Y-96330702D01*
X134922234Y-96646967D01*
X135238499Y-96906518D01*
X135599322Y-97099382D01*
X135990838Y-97218147D01*
X136398000Y-97258249D01*
X136805163Y-97218147D01*
X137196679Y-97099382D01*
X137557502Y-96906518D01*
X137873767Y-96646967D01*
X138133318Y-96330702D01*
X138326182Y-95969879D01*
X138444947Y-95578363D01*
X138475000Y-95273229D01*
X138475000Y-91569172D01*
X144481000Y-91569172D01*
X144481001Y-95273229D01*
X144511054Y-95578363D01*
X144629819Y-95969879D01*
X144822683Y-96330702D01*
X145082234Y-96646967D01*
X145398499Y-96906518D01*
X145759322Y-97099382D01*
X146150838Y-97218147D01*
X146558000Y-97258249D01*
X146965163Y-97218147D01*
X147356679Y-97099382D01*
X147717502Y-96906518D01*
X148033767Y-96646967D01*
X148293318Y-96330702D01*
X148486182Y-95969879D01*
X148604947Y-95578363D01*
X148635000Y-95273229D01*
X148635000Y-91569171D01*
X148604947Y-91264037D01*
X148486182Y-90872521D01*
X148293318Y-90511698D01*
X148033767Y-90195433D01*
X147717502Y-89935882D01*
X147356678Y-89743018D01*
X146965162Y-89624253D01*
X146558000Y-89584151D01*
X146150837Y-89624253D01*
X145759321Y-89743018D01*
X145398498Y-89935882D01*
X145082233Y-90195433D01*
X144822682Y-90511698D01*
X144629818Y-90872522D01*
X144511053Y-91264038D01*
X144481000Y-91569172D01*
X138475000Y-91569172D01*
X138475000Y-91569171D01*
X138444947Y-91264037D01*
X138326182Y-90872521D01*
X138133318Y-90511698D01*
X137873767Y-90195433D01*
X137557502Y-89935882D01*
X137196678Y-89743018D01*
X136805162Y-89624253D01*
X136398000Y-89584151D01*
X135990837Y-89624253D01*
X135599321Y-89743018D01*
X135238498Y-89935882D01*
X134922233Y-90195433D01*
X134662682Y-90511698D01*
X134469818Y-90872522D01*
X134351053Y-91264038D01*
X134321000Y-91569172D01*
X131622400Y-91569172D01*
X131622400Y-86004000D01*
X151333601Y-86004000D01*
X151333600Y-129921000D01*
%TA.AperFunction,Conductor*%
D22*
G36*
X151333600Y-129921000D02*
G01*
X150866469Y-129921000D01*
X150890526Y-129891686D01*
X150934752Y-129808945D01*
X150961986Y-129719167D01*
X150971182Y-129625800D01*
X150971182Y-127875800D01*
X150961986Y-127782433D01*
X150934752Y-127692655D01*
X150890526Y-127609914D01*
X150831009Y-127537391D01*
X150794600Y-127507511D01*
X150794600Y-127394539D01*
X150806036Y-127386898D01*
X150907298Y-127285636D01*
X150986859Y-127166564D01*
X151041662Y-127034258D01*
X151069600Y-126893803D01*
X151069600Y-126750597D01*
X151041662Y-126610142D01*
X150986859Y-126477836D01*
X150907298Y-126358764D01*
X150806036Y-126257502D01*
X150686964Y-126177941D01*
X150554658Y-126123138D01*
X150414203Y-126095200D01*
X150270997Y-126095200D01*
X150130542Y-126123138D01*
X149998236Y-126177941D01*
X149879164Y-126257502D01*
X149777902Y-126358764D01*
X149698341Y-126477836D01*
X149643538Y-126610142D01*
X149615600Y-126750597D01*
X149615600Y-126893803D01*
X149643538Y-127034258D01*
X149698341Y-127166564D01*
X149777902Y-127285636D01*
X149879164Y-127386898D01*
X149890601Y-127394540D01*
X149890601Y-127507511D01*
X149854191Y-127537391D01*
X149794674Y-127609914D01*
X149750448Y-127692655D01*
X149723214Y-127782433D01*
X149714018Y-127875800D01*
X149714018Y-129625800D01*
X149723214Y-129719167D01*
X149750448Y-129808945D01*
X149794674Y-129891686D01*
X149818731Y-129921000D01*
X148340223Y-129921000D01*
X148332669Y-129913446D01*
X148350526Y-129891686D01*
X148394752Y-129808945D01*
X148421986Y-129719167D01*
X148431182Y-129625800D01*
X148431182Y-127875800D01*
X148421986Y-127782433D01*
X148394752Y-127692655D01*
X148350526Y-127609914D01*
X148291009Y-127537391D01*
X148254600Y-127507511D01*
X148254600Y-125091805D01*
X148256787Y-125069600D01*
X148248060Y-124980992D01*
X148222214Y-124895790D01*
X148213568Y-124879614D01*
X148180243Y-124817267D01*
X148123759Y-124748441D01*
X148106506Y-124734282D01*
X147645000Y-124272777D01*
X147645000Y-123720204D01*
X147647187Y-123697999D01*
X147638460Y-123609392D01*
X147612614Y-123524190D01*
X147607329Y-123514302D01*
X147570643Y-123445667D01*
X147514159Y-123376841D01*
X147496912Y-123362687D01*
X146385323Y-122251100D01*
X146371159Y-122233841D01*
X146302333Y-122177357D01*
X146223810Y-122135386D01*
X146138607Y-122109540D01*
X146133490Y-122109036D01*
X146050000Y-122100813D01*
X146027795Y-122103000D01*
X144706005Y-122103000D01*
X144683800Y-122100813D01*
X144595192Y-122109540D01*
X144509990Y-122135386D01*
X144431467Y-122177357D01*
X144362641Y-122233841D01*
X144348477Y-122251100D01*
X144225200Y-122374377D01*
X143949623Y-122098800D01*
X143935459Y-122081541D01*
X143866633Y-122025057D01*
X143788110Y-121983086D01*
X143702907Y-121957240D01*
X143636505Y-121950700D01*
X143614300Y-121948513D01*
X143592095Y-121950700D01*
X141719200Y-121950700D01*
X141681340Y-121879869D01*
X141613272Y-121796928D01*
X141530331Y-121728860D01*
X141435705Y-121678281D01*
X141333029Y-121647135D01*
X141226250Y-121636618D01*
X140713750Y-121636618D01*
X140606971Y-121647135D01*
X140504295Y-121678281D01*
X140409669Y-121728860D01*
X140326728Y-121796928D01*
X140258660Y-121879869D01*
X140208081Y-121974495D01*
X140176935Y-122077171D01*
X140166418Y-122183950D01*
X140166418Y-122621450D01*
X140176935Y-122728229D01*
X140208081Y-122830905D01*
X140258660Y-122925531D01*
X140326728Y-123008472D01*
X140409669Y-123076540D01*
X140504295Y-123127119D01*
X140606971Y-123158265D01*
X140713750Y-123168782D01*
X141226250Y-123168782D01*
X141333029Y-123158265D01*
X141435705Y-123127119D01*
X141530331Y-123076540D01*
X141613272Y-123008472D01*
X141681340Y-122925531D01*
X141719200Y-122854700D01*
X143039353Y-122854700D01*
X143021630Y-122887857D01*
X143002932Y-122949497D01*
X142996618Y-123013600D01*
X142996618Y-124278019D01*
X142886236Y-124323741D01*
X142767164Y-124403302D01*
X142665902Y-124504564D01*
X142629932Y-124558398D01*
X142627236Y-124555702D01*
X142508164Y-124476141D01*
X142375858Y-124421338D01*
X142235403Y-124393400D01*
X142092197Y-124393400D01*
X141951742Y-124421338D01*
X141819436Y-124476141D01*
X141700364Y-124555702D01*
X141599102Y-124656964D01*
X141519541Y-124776036D01*
X141464738Y-124908342D01*
X141436800Y-125048797D01*
X141436800Y-125192003D01*
X141464738Y-125332458D01*
X141519541Y-125464764D01*
X141599102Y-125583836D01*
X141700364Y-125685098D01*
X141819436Y-125764659D01*
X141951742Y-125819462D01*
X142092197Y-125847400D01*
X142235403Y-125847400D01*
X142248893Y-125844717D01*
X142312064Y-125907888D01*
X142303081Y-125924695D01*
X142271935Y-126027371D01*
X142261418Y-126134150D01*
X142261418Y-126552400D01*
X142193797Y-126552400D01*
X142113000Y-126568471D01*
X142113000Y-125984000D01*
X142110560Y-125959224D01*
X142103333Y-125935399D01*
X142091597Y-125913443D01*
X142075803Y-125894197D01*
X142056557Y-125878403D01*
X142034601Y-125866667D01*
X142010776Y-125859440D01*
X141986000Y-125857000D01*
X140970000Y-125857000D01*
X140945224Y-125859440D01*
X140921399Y-125866667D01*
X140899443Y-125878403D01*
X140880197Y-125894197D01*
X140864403Y-125913443D01*
X140852667Y-125935399D01*
X140845440Y-125959224D01*
X140843000Y-125984000D01*
X140843000Y-129921000D01*
X138138100Y-129921000D01*
X138160615Y-129692400D01*
X138137407Y-129456767D01*
X138068676Y-129230189D01*
X137957061Y-129021374D01*
X137806854Y-128838346D01*
X137623826Y-128688139D01*
X137415011Y-128576524D01*
X137188433Y-128507793D01*
X137154800Y-128504480D01*
X137154800Y-127325852D01*
X137232272Y-127262272D01*
X137300340Y-127179331D01*
X137350919Y-127084705D01*
X137382065Y-126982029D01*
X137392582Y-126875250D01*
X137392582Y-126362750D01*
X137435418Y-126362750D01*
X137435418Y-126875250D01*
X137445935Y-126982029D01*
X137477081Y-127084705D01*
X137527660Y-127179331D01*
X137595728Y-127262272D01*
X137678669Y-127330340D01*
X137773295Y-127380919D01*
X137875971Y-127412065D01*
X137982750Y-127422582D01*
X138420250Y-127422582D01*
X138527029Y-127412065D01*
X138629705Y-127380919D01*
X138724331Y-127330340D01*
X138807272Y-127262272D01*
X138875340Y-127179331D01*
X138911168Y-127112302D01*
X138982564Y-127183698D01*
X139101636Y-127263259D01*
X139233942Y-127318062D01*
X139374397Y-127346000D01*
X139517603Y-127346000D01*
X139658058Y-127318062D01*
X139790364Y-127263259D01*
X139909436Y-127183698D01*
X140010698Y-127082436D01*
X140090259Y-126963364D01*
X140145062Y-126831058D01*
X140173000Y-126690603D01*
X140173000Y-126547397D01*
X140145062Y-126406942D01*
X140090259Y-126274636D01*
X140010698Y-126155564D01*
X139909436Y-126054302D01*
X139790364Y-125974741D01*
X139658058Y-125919938D01*
X139517603Y-125892000D01*
X139374397Y-125892000D01*
X139233942Y-125919938D01*
X139101636Y-125974741D01*
X138982564Y-126054302D01*
X138911168Y-126125698D01*
X138875340Y-126058669D01*
X138807272Y-125975728D01*
X138724331Y-125907660D01*
X138629705Y-125857081D01*
X138527029Y-125825935D01*
X138420250Y-125815418D01*
X137982750Y-125815418D01*
X137875971Y-125825935D01*
X137773295Y-125857081D01*
X137678669Y-125907660D01*
X137595728Y-125975728D01*
X137527660Y-126058669D01*
X137477081Y-126153295D01*
X137445935Y-126255971D01*
X137435418Y-126362750D01*
X137392582Y-126362750D01*
X137382065Y-126255971D01*
X137350919Y-126153295D01*
X137300340Y-126058669D01*
X137232272Y-125975728D01*
X137149331Y-125907660D01*
X137054705Y-125857081D01*
X136952029Y-125825935D01*
X136845250Y-125815418D01*
X136407750Y-125815418D01*
X136300971Y-125825935D01*
X136198295Y-125857081D01*
X136103669Y-125907660D01*
X136020728Y-125975728D01*
X135952660Y-126058669D01*
X135902081Y-126153295D01*
X135897924Y-126167000D01*
X135588582Y-126167000D01*
X135588582Y-126046000D01*
X135582268Y-125981897D01*
X135563570Y-125920257D01*
X135533206Y-125863450D01*
X135492343Y-125813657D01*
X135442550Y-125772794D01*
X135385743Y-125742430D01*
X135324103Y-125723732D01*
X135260000Y-125717418D01*
X134613187Y-125717418D01*
X134629259Y-125693364D01*
X134684062Y-125561058D01*
X134712000Y-125420603D01*
X134712000Y-125277397D01*
X134703484Y-125234582D01*
X135260000Y-125234582D01*
X135324103Y-125228268D01*
X135385743Y-125209570D01*
X135442550Y-125179206D01*
X135492343Y-125138343D01*
X135533206Y-125088550D01*
X135563570Y-125031743D01*
X135582268Y-124970103D01*
X135588582Y-124906000D01*
X135588582Y-123846000D01*
X135582268Y-123781897D01*
X135563570Y-123720257D01*
X135533206Y-123663450D01*
X135492343Y-123613657D01*
X135442550Y-123572794D01*
X135385743Y-123542430D01*
X135324103Y-123523732D01*
X135260000Y-123517418D01*
X134610000Y-123517418D01*
X134545897Y-123523732D01*
X134484257Y-123542430D01*
X134427450Y-123572794D01*
X134377657Y-123613657D01*
X134336794Y-123663450D01*
X134306430Y-123720257D01*
X134287732Y-123781897D01*
X134281418Y-123846000D01*
X134281418Y-124684881D01*
X134197058Y-124649938D01*
X134056603Y-124622000D01*
X133913397Y-124622000D01*
X133772942Y-124649938D01*
X133640636Y-124704741D01*
X133604000Y-124729220D01*
X133604000Y-122171750D01*
X133625418Y-122171750D01*
X133625418Y-122684250D01*
X133635935Y-122791029D01*
X133667081Y-122893705D01*
X133717660Y-122988331D01*
X133785728Y-123071272D01*
X133868669Y-123139340D01*
X133963295Y-123189919D01*
X134065971Y-123221065D01*
X134172750Y-123231582D01*
X134610250Y-123231582D01*
X134717029Y-123221065D01*
X134819705Y-123189919D01*
X134914331Y-123139340D01*
X134997272Y-123071272D01*
X135056022Y-122999686D01*
X135164636Y-123072259D01*
X135296942Y-123127062D01*
X135437397Y-123155000D01*
X135580603Y-123155000D01*
X135721058Y-123127062D01*
X135853364Y-123072259D01*
X135972436Y-122992698D01*
X136073698Y-122891436D01*
X136153259Y-122772364D01*
X136208062Y-122640058D01*
X136236000Y-122499603D01*
X136236000Y-122356397D01*
X136208062Y-122215942D01*
X136153259Y-122083636D01*
X136073698Y-121964564D01*
X135972436Y-121863302D01*
X135853364Y-121783741D01*
X135721058Y-121728938D01*
X135580603Y-121701000D01*
X135437397Y-121701000D01*
X135296942Y-121728938D01*
X135164636Y-121783741D01*
X135056022Y-121856314D01*
X134997272Y-121784728D01*
X134914331Y-121716660D01*
X134819705Y-121666081D01*
X134717029Y-121634935D01*
X134610250Y-121624418D01*
X134172750Y-121624418D01*
X134065971Y-121634935D01*
X133963295Y-121666081D01*
X133868669Y-121716660D01*
X133785728Y-121784728D01*
X133717660Y-121867669D01*
X133667081Y-121962295D01*
X133635935Y-122064971D01*
X133625418Y-122171750D01*
X133604000Y-122171750D01*
X133604000Y-121793000D01*
X133601560Y-121768224D01*
X133594333Y-121744399D01*
X133582597Y-121722443D01*
X133566803Y-121703197D01*
X133547557Y-121687403D01*
X133525601Y-121675667D01*
X133501776Y-121668440D01*
X133477000Y-121666000D01*
X132207000Y-121666000D01*
X132182224Y-121668440D01*
X132158399Y-121675667D01*
X132136443Y-121687403D01*
X132117197Y-121703197D01*
X132101403Y-121722443D01*
X132089667Y-121744399D01*
X132082440Y-121768224D01*
X132080000Y-121793000D01*
X132080000Y-124968000D01*
X132082440Y-124992776D01*
X132089667Y-125016601D01*
X132101403Y-125038557D01*
X132117197Y-125057803D01*
X132136443Y-125073597D01*
X132158399Y-125085333D01*
X132182224Y-125092560D01*
X132207000Y-125095000D01*
X133303311Y-125095000D01*
X133285938Y-125136942D01*
X133258000Y-125277397D01*
X133258000Y-125420603D01*
X133285938Y-125561058D01*
X133340741Y-125693364D01*
X133356813Y-125717418D01*
X132710000Y-125717418D01*
X132645897Y-125723732D01*
X132584257Y-125742430D01*
X132527450Y-125772794D01*
X132477657Y-125813657D01*
X132436794Y-125863450D01*
X132406430Y-125920257D01*
X132387732Y-125981897D01*
X132381418Y-126046000D01*
X132381418Y-127106000D01*
X132387732Y-127170103D01*
X132406430Y-127231743D01*
X132436794Y-127288550D01*
X132477657Y-127338343D01*
X132527450Y-127379206D01*
X132584257Y-127409570D01*
X132586146Y-127410143D01*
X132589540Y-127444607D01*
X132593630Y-127458089D01*
X132615386Y-127529809D01*
X132657357Y-127608332D01*
X132713841Y-127677159D01*
X132731100Y-127691323D01*
X133105681Y-128065905D01*
X133119841Y-128083159D01*
X133188667Y-128139643D01*
X133267190Y-128181614D01*
X133352392Y-128207460D01*
X133441000Y-128216187D01*
X133463205Y-128214000D01*
X134506795Y-128214000D01*
X134529000Y-128216187D01*
X134551205Y-128214000D01*
X134617607Y-128207460D01*
X134702810Y-128181614D01*
X134781333Y-128139643D01*
X134850159Y-128083159D01*
X134864323Y-128065900D01*
X135238905Y-127691319D01*
X135256159Y-127677159D01*
X135312643Y-127608333D01*
X135354614Y-127529810D01*
X135370369Y-127477874D01*
X135380460Y-127444608D01*
X135383854Y-127410143D01*
X135385743Y-127409570D01*
X135442550Y-127379206D01*
X135492343Y-127338343D01*
X135533206Y-127288550D01*
X135563570Y-127231743D01*
X135582268Y-127170103D01*
X135588582Y-127106000D01*
X135588582Y-127071000D01*
X135897924Y-127071000D01*
X135902081Y-127084705D01*
X135952660Y-127179331D01*
X136020728Y-127262272D01*
X136103669Y-127330340D01*
X136198295Y-127380919D01*
X136250801Y-127396846D01*
X136250800Y-128504480D01*
X136217167Y-128507793D01*
X135990589Y-128576524D01*
X135781774Y-128688139D01*
X135598746Y-128838346D01*
X135448539Y-129021374D01*
X135336924Y-129230189D01*
X135268193Y-129456767D01*
X135244985Y-129692400D01*
X135267500Y-129921000D01*
X131622400Y-129921000D01*
X131622400Y-113720397D01*
X132115000Y-113720397D01*
X132115000Y-113863603D01*
X132142938Y-114004058D01*
X132197741Y-114136364D01*
X132277302Y-114255436D01*
X132378564Y-114356698D01*
X132497636Y-114436259D01*
X132629942Y-114491062D01*
X132770397Y-114519000D01*
X132913603Y-114519000D01*
X133054058Y-114491062D01*
X133186364Y-114436259D01*
X133305436Y-114356698D01*
X133406698Y-114255436D01*
X133486259Y-114136364D01*
X133541062Y-114004058D01*
X133569000Y-113863603D01*
X133569000Y-113720397D01*
X133566317Y-113706907D01*
X135660511Y-111612714D01*
X135677759Y-111598559D01*
X135734243Y-111529733D01*
X135742208Y-111514831D01*
X136250977Y-112023600D01*
X136123197Y-112023600D01*
X135982742Y-112051538D01*
X135850436Y-112106341D01*
X135731364Y-112185902D01*
X135630102Y-112287164D01*
X135550541Y-112406236D01*
X135495738Y-112538542D01*
X135467800Y-112678997D01*
X135467800Y-112822203D01*
X135495738Y-112962658D01*
X135550541Y-113094964D01*
X135581268Y-113140950D01*
X135510680Y-113198880D01*
X135438726Y-113286557D01*
X135385260Y-113386586D01*
X135352335Y-113495123D01*
X135341218Y-113607999D01*
X135341218Y-114233001D01*
X135352335Y-114345877D01*
X135385260Y-114454414D01*
X135438726Y-114554443D01*
X135510680Y-114642120D01*
X135598357Y-114714074D01*
X135698386Y-114767540D01*
X135806923Y-114800465D01*
X135883429Y-114808000D01*
X135806923Y-114815535D01*
X135698386Y-114848460D01*
X135598357Y-114901926D01*
X135510680Y-114973880D01*
X135438726Y-115061557D01*
X135385260Y-115161586D01*
X135352335Y-115270123D01*
X135352232Y-115271171D01*
X135336690Y-115275886D01*
X135258167Y-115317857D01*
X135189341Y-115374341D01*
X135175181Y-115391595D01*
X132927093Y-117639683D01*
X132913603Y-117637000D01*
X132770397Y-117637000D01*
X132629942Y-117664938D01*
X132497636Y-117719741D01*
X132378564Y-117799302D01*
X132277302Y-117900564D01*
X132197741Y-118019636D01*
X132142938Y-118151942D01*
X132115000Y-118292397D01*
X132115000Y-118435603D01*
X132142938Y-118576058D01*
X132197741Y-118708364D01*
X132277302Y-118827436D01*
X132378564Y-118928698D01*
X132497636Y-119008259D01*
X132629942Y-119063062D01*
X132770397Y-119091000D01*
X132913603Y-119091000D01*
X133054058Y-119063062D01*
X133186364Y-119008259D01*
X133305436Y-118928698D01*
X133406698Y-118827436D01*
X133486259Y-118708364D01*
X133541062Y-118576058D01*
X133569000Y-118435603D01*
X133569000Y-118292397D01*
X133566317Y-118278907D01*
X135473459Y-116371765D01*
X135510680Y-116417120D01*
X135598357Y-116489074D01*
X135698386Y-116542540D01*
X135806923Y-116575465D01*
X135919799Y-116586582D01*
X136469801Y-116586582D01*
X136582677Y-116575465D01*
X136691214Y-116542540D01*
X136791243Y-116489074D01*
X136878920Y-116417120D01*
X136932116Y-116352300D01*
X137274400Y-116352300D01*
X137312260Y-116423131D01*
X137380328Y-116506072D01*
X137463269Y-116574140D01*
X137557895Y-116624719D01*
X137607201Y-116639675D01*
X137607200Y-116793740D01*
X137595097Y-116794932D01*
X137533457Y-116813630D01*
X137476650Y-116843994D01*
X137426857Y-116884857D01*
X137385994Y-116934650D01*
X137355630Y-116991457D01*
X137336932Y-117053097D01*
X137330618Y-117117200D01*
X137330618Y-118017200D01*
X137336932Y-118081303D01*
X137355630Y-118142943D01*
X137385994Y-118199750D01*
X137426857Y-118249543D01*
X137476650Y-118290406D01*
X137533457Y-118320770D01*
X137595097Y-118339468D01*
X137597101Y-118339665D01*
X137597101Y-118802151D01*
X137573303Y-118794932D01*
X137509200Y-118788618D01*
X136709200Y-118788618D01*
X136645097Y-118794932D01*
X136583457Y-118813630D01*
X136566200Y-118822854D01*
X136566200Y-118698797D01*
X136558809Y-118661638D01*
X136578814Y-118624210D01*
X136604660Y-118539007D01*
X136606578Y-118519533D01*
X136613387Y-118450401D01*
X136611200Y-118428196D01*
X136611200Y-118340660D01*
X136623303Y-118339468D01*
X136684943Y-118320770D01*
X136741750Y-118290406D01*
X136791543Y-118249543D01*
X136832406Y-118199750D01*
X136862770Y-118142943D01*
X136881468Y-118081303D01*
X136887782Y-118017200D01*
X136887782Y-117117200D01*
X136881468Y-117053097D01*
X136862770Y-116991457D01*
X136832406Y-116934650D01*
X136791543Y-116884857D01*
X136741750Y-116843994D01*
X136684943Y-116813630D01*
X136623303Y-116794932D01*
X136559200Y-116788618D01*
X135759200Y-116788618D01*
X135695097Y-116794932D01*
X135633457Y-116813630D01*
X135576650Y-116843994D01*
X135526857Y-116884857D01*
X135485994Y-116934650D01*
X135455630Y-116991457D01*
X135436932Y-117053097D01*
X135430618Y-117117200D01*
X135430618Y-118017200D01*
X135436932Y-118081303D01*
X135455630Y-118142943D01*
X135459330Y-118149865D01*
X135375764Y-118205702D01*
X135274502Y-118306964D01*
X135194941Y-118426036D01*
X135140138Y-118558342D01*
X135112200Y-118698797D01*
X135112200Y-118842003D01*
X135140138Y-118982458D01*
X135194941Y-119114764D01*
X135274502Y-119233836D01*
X135375764Y-119335098D01*
X135494836Y-119414659D01*
X135627142Y-119469462D01*
X135767597Y-119497400D01*
X135910803Y-119497400D01*
X136051258Y-119469462D01*
X136183564Y-119414659D01*
X136302636Y-119335098D01*
X136380618Y-119257116D01*
X136380618Y-120017200D01*
X136386932Y-120081303D01*
X136405630Y-120142943D01*
X136435994Y-120199750D01*
X136476857Y-120249543D01*
X136526650Y-120290406D01*
X136583457Y-120320770D01*
X136645097Y-120339468D01*
X136709200Y-120345782D01*
X137509200Y-120345782D01*
X137573303Y-120339468D01*
X137597100Y-120332249D01*
X137597100Y-120561200D01*
X137526269Y-120599060D01*
X137443328Y-120667128D01*
X137375260Y-120750069D01*
X137324681Y-120844695D01*
X137293535Y-120947371D01*
X137283018Y-121054150D01*
X137283018Y-121566650D01*
X137293535Y-121673429D01*
X137324681Y-121776105D01*
X137375260Y-121870731D01*
X137443328Y-121953672D01*
X137526269Y-122021740D01*
X137620895Y-122072319D01*
X137723571Y-122103465D01*
X137830350Y-122113982D01*
X138267850Y-122113982D01*
X138374629Y-122103465D01*
X138477305Y-122072319D01*
X138571931Y-122021740D01*
X138654872Y-121953672D01*
X138722940Y-121870731D01*
X138773519Y-121776105D01*
X138804665Y-121673429D01*
X138815182Y-121566650D01*
X138815182Y-121054150D01*
X138804665Y-120947371D01*
X138773519Y-120844695D01*
X138722940Y-120750069D01*
X138654872Y-120667128D01*
X138571931Y-120599060D01*
X138501100Y-120561200D01*
X138501100Y-118367543D01*
X138504660Y-118355807D01*
X138506102Y-118341162D01*
X138523303Y-118339468D01*
X138584943Y-118320770D01*
X138641750Y-118290406D01*
X138691543Y-118249543D01*
X138732406Y-118199750D01*
X138762770Y-118142943D01*
X138781468Y-118081303D01*
X138787782Y-118017200D01*
X138787782Y-117117200D01*
X138781468Y-117053097D01*
X138762770Y-116991457D01*
X138732406Y-116934650D01*
X138691543Y-116884857D01*
X138641750Y-116843994D01*
X138584943Y-116813630D01*
X138523303Y-116794932D01*
X138511200Y-116793740D01*
X138511200Y-116613016D01*
X138583931Y-116574140D01*
X138666872Y-116506072D01*
X138734940Y-116423131D01*
X138785519Y-116328505D01*
X138816665Y-116225829D01*
X138827182Y-116119050D01*
X138827182Y-115681550D01*
X138818144Y-115589790D01*
X138854656Y-115589790D01*
X138845618Y-115681550D01*
X138845618Y-116119050D01*
X138856135Y-116225829D01*
X138887281Y-116328505D01*
X138937860Y-116423131D01*
X139005928Y-116506072D01*
X139088869Y-116574140D01*
X139122793Y-116592273D01*
X139059102Y-116655964D01*
X138979541Y-116775036D01*
X138924738Y-116907342D01*
X138896800Y-117047797D01*
X138896800Y-117191003D01*
X138924738Y-117331458D01*
X138979541Y-117463764D01*
X139059102Y-117582836D01*
X139160364Y-117684098D01*
X139279436Y-117763659D01*
X139411742Y-117818462D01*
X139552197Y-117846400D01*
X139575181Y-117846400D01*
X139557200Y-117936797D01*
X139557200Y-118080003D01*
X139585138Y-118220458D01*
X139639941Y-118352764D01*
X139719502Y-118471836D01*
X139820764Y-118573098D01*
X139939836Y-118652659D01*
X140072142Y-118707462D01*
X140212597Y-118735400D01*
X140355803Y-118735400D01*
X140496258Y-118707462D01*
X140628564Y-118652659D01*
X140747636Y-118573098D01*
X140848898Y-118471836D01*
X140928459Y-118352764D01*
X140983262Y-118220458D01*
X140993695Y-118168009D01*
X141075095Y-118211519D01*
X141177771Y-118242665D01*
X141284550Y-118253182D01*
X141722050Y-118253182D01*
X141828829Y-118242665D01*
X141931505Y-118211519D01*
X142026131Y-118160940D01*
X142109072Y-118092872D01*
X142177140Y-118009931D01*
X142227719Y-117915305D01*
X142258865Y-117812629D01*
X142269382Y-117705850D01*
X142269382Y-117193350D01*
X142258865Y-117086571D01*
X142227719Y-116983895D01*
X142177140Y-116889269D01*
X142109072Y-116806328D01*
X142026131Y-116738260D01*
X141931505Y-116687681D01*
X141828829Y-116656535D01*
X141722050Y-116646018D01*
X141284550Y-116646018D01*
X141177771Y-116656535D01*
X141075095Y-116687681D01*
X140980469Y-116738260D01*
X140897528Y-116806328D01*
X140829460Y-116889269D01*
X140778881Y-116983895D01*
X140773305Y-117002277D01*
X140754392Y-117004140D01*
X140696413Y-117021728D01*
X140669190Y-117029986D01*
X140590667Y-117071957D01*
X140521841Y-117128441D01*
X140507681Y-117145695D01*
X140369293Y-117284083D01*
X140355803Y-117281400D01*
X140332819Y-117281400D01*
X140350800Y-117191003D01*
X140350800Y-117047797D01*
X140322862Y-116907342D01*
X140268059Y-116775036D01*
X140188498Y-116655964D01*
X140142502Y-116609968D01*
X140209531Y-116574140D01*
X140292472Y-116506072D01*
X140360540Y-116423131D01*
X140411119Y-116328505D01*
X140442265Y-116225829D01*
X140452782Y-116119050D01*
X140452782Y-115681550D01*
X140443744Y-115589790D01*
X142219789Y-115589790D01*
X142208935Y-115625571D01*
X142198418Y-115732350D01*
X142198418Y-116169850D01*
X142208935Y-116276629D01*
X142240081Y-116379305D01*
X142290660Y-116473931D01*
X142358728Y-116556872D01*
X142441669Y-116624940D01*
X142536295Y-116675519D01*
X142550001Y-116679676D01*
X142550001Y-116742748D01*
X142472528Y-116806328D01*
X142404460Y-116889269D01*
X142353881Y-116983895D01*
X142322735Y-117086571D01*
X142312218Y-117193350D01*
X142312218Y-117705850D01*
X142322735Y-117812629D01*
X142353881Y-117915305D01*
X142404460Y-118009931D01*
X142472528Y-118092872D01*
X142555469Y-118160940D01*
X142650095Y-118211519D01*
X142752771Y-118242665D01*
X142859550Y-118253182D01*
X143023201Y-118253182D01*
X143023201Y-118484919D01*
X143021630Y-118487857D01*
X143002932Y-118549497D01*
X142996618Y-118613600D01*
X142996618Y-120013600D01*
X143002932Y-120077703D01*
X143021630Y-120139343D01*
X143051994Y-120196150D01*
X143092857Y-120245943D01*
X143142650Y-120286806D01*
X143157973Y-120294996D01*
X143113891Y-120401419D01*
X143085953Y-120541874D01*
X143085953Y-120685080D01*
X143113891Y-120825535D01*
X143168694Y-120957841D01*
X143248255Y-121076913D01*
X143349517Y-121178175D01*
X143468589Y-121257736D01*
X143600895Y-121312539D01*
X143741350Y-121340477D01*
X143884556Y-121340477D01*
X144025011Y-121312539D01*
X144157317Y-121257736D01*
X144276389Y-121178175D01*
X144377651Y-121076913D01*
X144457212Y-120957841D01*
X144483396Y-120894627D01*
X144779105Y-120598919D01*
X144796359Y-120584759D01*
X144852843Y-120515933D01*
X144894814Y-120437410D01*
X144920660Y-120352208D01*
X144921647Y-120342182D01*
X145125200Y-120342182D01*
X145189303Y-120335868D01*
X145250943Y-120317170D01*
X145307750Y-120286806D01*
X145329447Y-120269000D01*
X146993861Y-120269000D01*
X146964260Y-120305069D01*
X146913681Y-120399695D01*
X146882535Y-120502371D01*
X146872018Y-120609150D01*
X146872018Y-121046650D01*
X146882535Y-121153429D01*
X146913681Y-121256105D01*
X146964260Y-121350731D01*
X147032328Y-121433672D01*
X147115269Y-121501740D01*
X147209895Y-121552319D01*
X147223601Y-121556476D01*
X147223601Y-121576260D01*
X147212164Y-121583902D01*
X147110902Y-121685164D01*
X147031341Y-121804236D01*
X146976538Y-121936542D01*
X146948600Y-122076997D01*
X146948600Y-122220203D01*
X146976538Y-122360658D01*
X147031341Y-122492964D01*
X147110902Y-122612036D01*
X147212164Y-122713298D01*
X147331236Y-122792859D01*
X147463542Y-122847662D01*
X147603997Y-122875600D01*
X147747203Y-122875600D01*
X147887658Y-122847662D01*
X148019964Y-122792859D01*
X148139036Y-122713298D01*
X148240298Y-122612036D01*
X148319859Y-122492964D01*
X148374662Y-122360658D01*
X148402600Y-122220203D01*
X148402600Y-122076997D01*
X148374662Y-121936542D01*
X148319859Y-121804236D01*
X148240298Y-121685164D01*
X148139036Y-121583902D01*
X148127600Y-121576261D01*
X148127600Y-121556476D01*
X148141305Y-121552319D01*
X148235931Y-121501740D01*
X148318872Y-121433672D01*
X148386940Y-121350731D01*
X148437519Y-121256105D01*
X148468665Y-121153429D01*
X148479182Y-121046650D01*
X148479182Y-120609150D01*
X148468665Y-120502371D01*
X148437519Y-120399695D01*
X148386940Y-120305069D01*
X148357339Y-120269000D01*
X149006831Y-120269000D01*
X148957186Y-120284060D01*
X148857157Y-120337526D01*
X148769480Y-120409480D01*
X148697526Y-120497157D01*
X148644060Y-120597186D01*
X148611135Y-120705723D01*
X148600018Y-120818599D01*
X148600018Y-121443601D01*
X148611135Y-121556477D01*
X148644060Y-121665014D01*
X148697526Y-121765043D01*
X148769480Y-121852720D01*
X148857157Y-121924674D01*
X148953498Y-121976168D01*
X148939702Y-121989964D01*
X148860141Y-122109036D01*
X148805338Y-122241342D01*
X148777400Y-122381797D01*
X148777400Y-122525003D01*
X148805338Y-122665458D01*
X148860141Y-122797764D01*
X148939702Y-122916836D01*
X149040964Y-123018098D01*
X149160036Y-123097659D01*
X149292342Y-123152462D01*
X149432797Y-123180400D01*
X149576003Y-123180400D01*
X149716458Y-123152462D01*
X149848764Y-123097659D01*
X149967836Y-123018098D01*
X150069098Y-122916836D01*
X150148659Y-122797764D01*
X150203462Y-122665458D01*
X150231400Y-122525003D01*
X150231400Y-122381797D01*
X150203462Y-122241342D01*
X150148659Y-122109036D01*
X150069098Y-121989964D01*
X150019913Y-121940779D01*
X150050043Y-121924674D01*
X150137720Y-121852720D01*
X150209674Y-121765043D01*
X150263140Y-121665014D01*
X150296065Y-121556477D01*
X150307182Y-121443601D01*
X150307182Y-120818599D01*
X150296065Y-120705723D01*
X150263140Y-120597186D01*
X150209674Y-120497157D01*
X150137720Y-120409480D01*
X150050043Y-120337526D01*
X149950014Y-120284060D01*
X149900369Y-120269000D01*
X150241000Y-120269000D01*
X150265776Y-120266560D01*
X150289601Y-120259333D01*
X150311557Y-120247597D01*
X150330803Y-120231803D01*
X150346597Y-120212557D01*
X150358333Y-120190601D01*
X150365560Y-120166776D01*
X150368000Y-120142000D01*
X150368000Y-118618000D01*
X150365560Y-118593224D01*
X150358333Y-118569399D01*
X150346597Y-118547443D01*
X150330803Y-118528197D01*
X150311557Y-118512403D01*
X150289601Y-118500667D01*
X150265776Y-118493440D01*
X150241000Y-118491000D01*
X147451323Y-118491000D01*
X147548742Y-118393582D01*
X147931850Y-118393582D01*
X148038629Y-118383065D01*
X148141305Y-118351919D01*
X148235931Y-118301340D01*
X148318872Y-118233272D01*
X148386940Y-118150331D01*
X148424800Y-118079500D01*
X148655437Y-118079500D01*
X148697526Y-118158243D01*
X148769480Y-118245920D01*
X148857157Y-118317874D01*
X148957186Y-118371340D01*
X149065723Y-118404265D01*
X149178599Y-118415382D01*
X149728601Y-118415382D01*
X149841477Y-118404265D01*
X149950014Y-118371340D01*
X150050043Y-118317874D01*
X150137720Y-118245920D01*
X150209674Y-118158243D01*
X150263140Y-118058214D01*
X150296065Y-117949677D01*
X150307182Y-117836801D01*
X150307182Y-117359942D01*
X150925910Y-116741215D01*
X150943159Y-116727059D01*
X150999643Y-116658233D01*
X151041614Y-116579710D01*
X151043304Y-116574140D01*
X151067460Y-116494508D01*
X151076187Y-116405901D01*
X151074000Y-116383696D01*
X151074000Y-114449205D01*
X151076187Y-114427000D01*
X151067460Y-114338392D01*
X151041614Y-114253190D01*
X151013219Y-114200067D01*
X150999643Y-114174667D01*
X150943159Y-114105841D01*
X150925906Y-114091682D01*
X150068323Y-113234100D01*
X150054159Y-113216841D01*
X149985333Y-113160357D01*
X149906810Y-113118386D01*
X149821607Y-113092540D01*
X149755205Y-113086000D01*
X149733000Y-113083813D01*
X149710795Y-113086000D01*
X147469204Y-113086000D01*
X147446999Y-113083813D01*
X147358392Y-113092540D01*
X147350402Y-113094964D01*
X147273190Y-113118386D01*
X147194667Y-113160357D01*
X147125841Y-113216841D01*
X147111685Y-113234090D01*
X145659167Y-114686610D01*
X145371344Y-114686610D01*
X145380382Y-114594850D01*
X145380382Y-114157350D01*
X145369865Y-114050571D01*
X145338719Y-113947895D01*
X145288140Y-113853269D01*
X145220072Y-113770328D01*
X145137131Y-113702260D01*
X145042505Y-113651681D01*
X145028800Y-113647524D01*
X145028800Y-108861205D01*
X145030987Y-108839000D01*
X145022260Y-108750392D01*
X144996414Y-108665190D01*
X144990851Y-108654782D01*
X144954443Y-108586667D01*
X144897959Y-108517841D01*
X144880705Y-108503681D01*
X144099323Y-107722300D01*
X144085159Y-107705041D01*
X144016333Y-107648557D01*
X143937810Y-107606586D01*
X143852607Y-107580740D01*
X143786205Y-107574200D01*
X143764000Y-107572013D01*
X143741795Y-107574200D01*
X143701489Y-107574200D01*
X143671609Y-107537791D01*
X143599086Y-107478274D01*
X143516345Y-107434048D01*
X143426567Y-107406814D01*
X143333200Y-107397618D01*
X141683200Y-107397618D01*
X141660190Y-107399884D01*
X141660190Y-107382516D01*
X141683200Y-107384782D01*
X143333200Y-107384782D01*
X143426567Y-107375586D01*
X143516345Y-107348352D01*
X143599086Y-107304126D01*
X143671609Y-107244609D01*
X143701489Y-107208200D01*
X143784289Y-107208200D01*
X143808902Y-107245036D01*
X143910164Y-107346298D01*
X144029236Y-107425859D01*
X144161542Y-107480662D01*
X144301997Y-107508600D01*
X144445203Y-107508600D01*
X144585658Y-107480662D01*
X144717964Y-107425859D01*
X144837036Y-107346298D01*
X144938298Y-107245036D01*
X145017859Y-107125964D01*
X145072662Y-106993658D01*
X145100600Y-106853203D01*
X145100600Y-106709997D01*
X145072662Y-106569542D01*
X145017859Y-106437236D01*
X144938298Y-106318164D01*
X144837036Y-106216902D01*
X144717964Y-106137341D01*
X144648887Y-106108728D01*
X144735436Y-106050898D01*
X144836698Y-105949636D01*
X144844339Y-105938200D01*
X144944261Y-105938200D01*
X144951902Y-105949636D01*
X145053164Y-106050898D01*
X145172236Y-106130459D01*
X145304542Y-106185262D01*
X145444997Y-106213200D01*
X145588203Y-106213200D01*
X145728658Y-106185262D01*
X145860964Y-106130459D01*
X145980036Y-106050898D01*
X146081298Y-105949636D01*
X146088939Y-105938200D01*
X146264911Y-105938200D01*
X146294791Y-105974609D01*
X146367314Y-106034126D01*
X146387658Y-106045000D01*
X146177000Y-106045000D01*
X146152224Y-106047440D01*
X146128399Y-106054667D01*
X146106443Y-106066403D01*
X146087197Y-106082197D01*
X146071403Y-106101443D01*
X146059667Y-106123399D01*
X146052440Y-106147224D01*
X146050000Y-106172000D01*
X146050000Y-107315000D01*
X146052440Y-107339776D01*
X146059667Y-107363601D01*
X146071403Y-107385557D01*
X146087197Y-107404803D01*
X146106443Y-107420597D01*
X146128399Y-107432333D01*
X146152224Y-107439560D01*
X146177000Y-107442000D01*
X146435178Y-107442000D01*
X146367314Y-107478274D01*
X146294791Y-107537791D01*
X146235274Y-107610314D01*
X146191048Y-107693055D01*
X146163814Y-107782833D01*
X146154618Y-107876200D01*
X146154618Y-108176200D01*
X146163814Y-108269567D01*
X146191048Y-108359345D01*
X146235274Y-108442086D01*
X146294791Y-108514609D01*
X146367314Y-108574126D01*
X146450055Y-108618352D01*
X146539833Y-108645586D01*
X146633200Y-108654782D01*
X148283200Y-108654782D01*
X148376567Y-108645586D01*
X148466345Y-108618352D01*
X148549086Y-108574126D01*
X148621609Y-108514609D01*
X148681126Y-108442086D01*
X148725352Y-108359345D01*
X148752586Y-108269567D01*
X148757448Y-108220199D01*
X149209618Y-108220199D01*
X149209618Y-108845201D01*
X149220735Y-108958077D01*
X149253660Y-109066614D01*
X149307126Y-109166643D01*
X149379080Y-109254320D01*
X149466757Y-109326274D01*
X149566786Y-109379740D01*
X149611201Y-109393213D01*
X149611201Y-109558265D01*
X149523902Y-109645564D01*
X149444341Y-109764636D01*
X149389538Y-109896942D01*
X149361600Y-110037397D01*
X149361600Y-110180603D01*
X149389538Y-110321058D01*
X149444341Y-110453364D01*
X149523902Y-110572436D01*
X149625164Y-110673698D01*
X149744236Y-110753259D01*
X149876542Y-110808062D01*
X150016997Y-110836000D01*
X150160203Y-110836000D01*
X150300658Y-110808062D01*
X150432964Y-110753259D01*
X150552036Y-110673698D01*
X150653298Y-110572436D01*
X150732859Y-110453364D01*
X150787662Y-110321058D01*
X150815600Y-110180603D01*
X150815600Y-110037397D01*
X150787662Y-109896942D01*
X150732859Y-109764636D01*
X150653298Y-109645564D01*
X150552036Y-109544302D01*
X150515200Y-109519689D01*
X150515200Y-109393213D01*
X150559614Y-109379740D01*
X150659643Y-109326274D01*
X150747320Y-109254320D01*
X150819274Y-109166643D01*
X150872740Y-109066614D01*
X150905665Y-108958077D01*
X150916782Y-108845201D01*
X150916782Y-108220199D01*
X150905665Y-108107323D01*
X150872740Y-107998786D01*
X150819274Y-107898757D01*
X150747320Y-107811080D01*
X150659643Y-107739126D01*
X150559614Y-107685660D01*
X150451077Y-107652735D01*
X150338201Y-107641618D01*
X149788199Y-107641618D01*
X149675323Y-107652735D01*
X149566786Y-107685660D01*
X149466757Y-107739126D01*
X149379080Y-107811080D01*
X149307126Y-107898757D01*
X149253660Y-107998786D01*
X149220735Y-108107323D01*
X149209618Y-108220199D01*
X148757448Y-108220199D01*
X148761782Y-108176200D01*
X148761782Y-107876200D01*
X148752586Y-107782833D01*
X148725352Y-107693055D01*
X148681126Y-107610314D01*
X148621609Y-107537791D01*
X148549086Y-107478274D01*
X148481222Y-107442000D01*
X150495000Y-107442000D01*
X150519776Y-107439560D01*
X150543601Y-107432333D01*
X150565557Y-107420597D01*
X150584803Y-107404803D01*
X150600597Y-107385557D01*
X150612333Y-107363601D01*
X150619560Y-107339776D01*
X150622000Y-107315000D01*
X150622000Y-106172000D01*
X150619560Y-106147224D01*
X150612333Y-106123399D01*
X150600597Y-106101443D01*
X150584803Y-106082197D01*
X150565557Y-106066403D01*
X150543601Y-106054667D01*
X150519776Y-106047440D01*
X150495000Y-106045000D01*
X148528742Y-106045000D01*
X148549086Y-106034126D01*
X148621609Y-105974609D01*
X148681126Y-105902086D01*
X148725352Y-105819345D01*
X148752586Y-105729567D01*
X148761782Y-105636200D01*
X148761782Y-105336200D01*
X148752586Y-105242833D01*
X148725352Y-105153055D01*
X148681126Y-105070314D01*
X148621609Y-104997791D01*
X148549086Y-104938274D01*
X148466345Y-104894048D01*
X148376567Y-104866814D01*
X148283200Y-104857618D01*
X147910200Y-104857618D01*
X147910200Y-104844782D01*
X148283200Y-104844782D01*
X148376567Y-104835586D01*
X148466345Y-104808352D01*
X148549086Y-104764126D01*
X148621609Y-104704609D01*
X148681126Y-104632086D01*
X148725352Y-104549345D01*
X148752586Y-104459567D01*
X148761782Y-104366200D01*
X148761782Y-104066200D01*
X148752586Y-103972833D01*
X148725352Y-103883055D01*
X148681126Y-103800314D01*
X148621609Y-103727791D01*
X148549086Y-103668274D01*
X148466345Y-103624048D01*
X148376567Y-103596814D01*
X148283200Y-103587618D01*
X147468842Y-103587618D01*
X146955323Y-103074100D01*
X146941159Y-103056841D01*
X146872333Y-103000357D01*
X146793810Y-102958386D01*
X146708607Y-102932540D01*
X146642205Y-102926000D01*
X146620000Y-102923813D01*
X146597795Y-102926000D01*
X143454000Y-102926000D01*
X143454000Y-102255794D01*
X143456187Y-102233589D01*
X143447460Y-102144982D01*
X143439014Y-102117140D01*
X143421614Y-102059780D01*
X143379643Y-101981257D01*
X143323159Y-101912431D01*
X143305912Y-101898277D01*
X142380010Y-100972377D01*
X142380010Y-100321213D01*
X142906920Y-99794305D01*
X142924169Y-99780149D01*
X142980653Y-99711323D01*
X143022624Y-99632800D01*
X143022624Y-99632799D01*
X143048470Y-99547598D01*
X143057197Y-99458991D01*
X143055010Y-99436786D01*
X143055010Y-97607410D01*
X143057197Y-97585205D01*
X143048470Y-97496598D01*
X143042454Y-97476768D01*
X143022624Y-97411396D01*
X142980653Y-97332873D01*
X142924169Y-97264047D01*
X142906921Y-97249892D01*
X142279317Y-96622290D01*
X142265153Y-96605031D01*
X142196327Y-96548547D01*
X142117804Y-96506576D01*
X142032601Y-96480730D01*
X141966199Y-96474190D01*
X141943994Y-96472003D01*
X141921789Y-96474190D01*
X141034210Y-96474190D01*
X141012005Y-96472003D01*
X140923398Y-96480730D01*
X140903568Y-96486746D01*
X140838196Y-96506576D01*
X140759673Y-96548547D01*
X140690847Y-96605031D01*
X140676691Y-96622280D01*
X140049085Y-97249888D01*
X140031832Y-97264047D01*
X139975349Y-97332872D01*
X139975348Y-97332873D01*
X139933376Y-97411397D01*
X139911846Y-97482371D01*
X139879600Y-97422043D01*
X139738765Y-97250435D01*
X139567157Y-97109600D01*
X139371370Y-97004950D01*
X139158930Y-96940507D01*
X138938000Y-96918747D01*
X138717069Y-96940507D01*
X138504629Y-97004950D01*
X138308843Y-97109600D01*
X138137235Y-97250435D01*
X137996400Y-97422043D01*
X137891750Y-97617830D01*
X137827307Y-97830270D01*
X137811000Y-97995836D01*
X137811000Y-98048589D01*
X137794999Y-98047013D01*
X137706392Y-98055740D01*
X137686562Y-98061756D01*
X137621190Y-98081586D01*
X137542667Y-98123557D01*
X137473841Y-98180041D01*
X137459686Y-98197289D01*
X135052700Y-100604277D01*
X135035441Y-100618441D01*
X134978957Y-100687268D01*
X134964594Y-100714140D01*
X134936986Y-100765791D01*
X134911140Y-100850993D01*
X134902413Y-100939600D01*
X134904600Y-100961805D01*
X134904601Y-103468911D01*
X134868191Y-103498791D01*
X134808674Y-103571314D01*
X134764448Y-103654055D01*
X134737214Y-103743833D01*
X134728018Y-103837200D01*
X134728018Y-105487200D01*
X134737214Y-105580567D01*
X134764448Y-105670345D01*
X134808674Y-105753086D01*
X134868191Y-105825609D01*
X134904601Y-105855489D01*
X134904601Y-106276785D01*
X134902413Y-106299000D01*
X134911140Y-106387607D01*
X134936986Y-106472809D01*
X134978958Y-106551333D01*
X135035442Y-106620159D01*
X135052695Y-106634318D01*
X135503885Y-107085510D01*
X135518041Y-107102759D01*
X135586867Y-107159243D01*
X135665390Y-107201214D01*
X135750593Y-107227060D01*
X135816995Y-107233600D01*
X135816996Y-107233600D01*
X135839199Y-107235787D01*
X135861402Y-107233600D01*
X137495533Y-107233600D01*
X137458564Y-107258302D01*
X137357302Y-107359564D01*
X137277741Y-107478636D01*
X137222938Y-107610942D01*
X137195000Y-107751397D01*
X137195000Y-107894603D01*
X137222938Y-108035058D01*
X137277741Y-108167364D01*
X137357302Y-108286436D01*
X137444601Y-108373735D01*
X137444601Y-108418911D01*
X137408191Y-108448791D01*
X137348674Y-108521314D01*
X137304448Y-108604055D01*
X137277214Y-108693833D01*
X137268018Y-108787200D01*
X137268018Y-110437200D01*
X137277214Y-110530567D01*
X137304448Y-110620345D01*
X137348674Y-110703086D01*
X137408191Y-110775609D01*
X137480714Y-110835126D01*
X137563455Y-110879352D01*
X137653233Y-110906586D01*
X137746600Y-110915782D01*
X138046600Y-110915782D01*
X138139967Y-110906586D01*
X138229745Y-110879352D01*
X138312486Y-110835126D01*
X138385009Y-110775609D01*
X138444526Y-110703086D01*
X138488752Y-110620345D01*
X138515986Y-110530567D01*
X138525182Y-110437200D01*
X138525182Y-108787200D01*
X138515986Y-108693833D01*
X138488752Y-108604055D01*
X138444526Y-108521314D01*
X138385009Y-108448791D01*
X138348600Y-108418911D01*
X138348600Y-108412311D01*
X138385436Y-108387698D01*
X138486698Y-108286436D01*
X138566259Y-108167364D01*
X138621062Y-108035058D01*
X138649000Y-107894603D01*
X138649000Y-107751397D01*
X138640217Y-107707241D01*
X138714600Y-107781624D01*
X138714600Y-108418911D01*
X138678191Y-108448791D01*
X138618674Y-108521314D01*
X138574448Y-108604055D01*
X138547214Y-108693833D01*
X138538018Y-108787200D01*
X138538018Y-110437200D01*
X138547214Y-110530567D01*
X138574448Y-110620345D01*
X138618674Y-110703086D01*
X138678191Y-110775609D01*
X138750714Y-110835126D01*
X138833455Y-110879352D01*
X138923233Y-110906586D01*
X139016600Y-110915782D01*
X139316600Y-110915782D01*
X139409967Y-110906586D01*
X139499745Y-110879352D01*
X139582486Y-110835126D01*
X139655009Y-110775609D01*
X139714526Y-110703086D01*
X139758752Y-110620345D01*
X139785986Y-110530567D01*
X139795182Y-110437200D01*
X139795182Y-108787200D01*
X139785986Y-108693833D01*
X139758752Y-108604055D01*
X139714526Y-108521314D01*
X139655009Y-108448791D01*
X139618600Y-108418911D01*
X139618600Y-107616605D01*
X139620787Y-107594400D01*
X139612060Y-107505792D01*
X139586214Y-107420590D01*
X139572115Y-107394213D01*
X139544243Y-107342067D01*
X139487759Y-107273241D01*
X139470506Y-107259082D01*
X138689123Y-106477700D01*
X138674959Y-106460441D01*
X138606133Y-106403957D01*
X138527610Y-106361986D01*
X138442407Y-106336140D01*
X138376005Y-106329600D01*
X138353800Y-106327413D01*
X138331595Y-106329600D01*
X136026424Y-106329600D01*
X135808600Y-106111776D01*
X135808600Y-105855489D01*
X135845009Y-105825609D01*
X135904526Y-105753086D01*
X135948752Y-105670345D01*
X135975986Y-105580567D01*
X135985182Y-105487200D01*
X135985182Y-103837200D01*
X135998018Y-103837200D01*
X135998018Y-105487200D01*
X136007214Y-105580567D01*
X136034448Y-105670345D01*
X136078674Y-105753086D01*
X136138191Y-105825609D01*
X136210714Y-105885126D01*
X136293455Y-105929352D01*
X136383233Y-105956586D01*
X136476600Y-105965782D01*
X136776600Y-105965782D01*
X136869967Y-105956586D01*
X136959745Y-105929352D01*
X137042486Y-105885126D01*
X137115009Y-105825609D01*
X137160000Y-105770786D01*
X137160000Y-105918000D01*
X137162440Y-105942776D01*
X137169667Y-105966601D01*
X137181403Y-105988557D01*
X137197197Y-106007803D01*
X137216443Y-106023597D01*
X137238399Y-106035333D01*
X137262224Y-106042560D01*
X137287000Y-106045000D01*
X138557000Y-106045000D01*
X138581776Y-106042560D01*
X138605601Y-106035333D01*
X138627557Y-106023597D01*
X138646803Y-106007803D01*
X138662597Y-105988557D01*
X138674333Y-105966601D01*
X138681560Y-105942776D01*
X138684000Y-105918000D01*
X138684000Y-105830376D01*
X138750714Y-105885126D01*
X138833455Y-105929352D01*
X138923233Y-105956586D01*
X139016600Y-105965782D01*
X139316600Y-105965782D01*
X139409967Y-105956586D01*
X139499745Y-105929352D01*
X139582486Y-105885126D01*
X139655009Y-105825609D01*
X139714526Y-105753086D01*
X139758752Y-105670345D01*
X139785986Y-105580567D01*
X139795182Y-105487200D01*
X139795182Y-103837200D01*
X139785986Y-103743833D01*
X139758752Y-103654055D01*
X139714526Y-103571314D01*
X139655009Y-103498791D01*
X139582486Y-103439274D01*
X139499745Y-103395048D01*
X139409967Y-103367814D01*
X139316600Y-103358618D01*
X139016600Y-103358618D01*
X138923233Y-103367814D01*
X138833455Y-103395048D01*
X138750714Y-103439274D01*
X138684000Y-103494024D01*
X138684000Y-101727000D01*
X138681560Y-101702224D01*
X138674333Y-101678399D01*
X138662597Y-101656443D01*
X138646803Y-101637197D01*
X138627557Y-101621403D01*
X138605601Y-101609667D01*
X138581776Y-101602440D01*
X138557000Y-101600000D01*
X137287000Y-101600000D01*
X137262224Y-101602440D01*
X137238399Y-101609667D01*
X137216443Y-101621403D01*
X137197197Y-101637197D01*
X137181403Y-101656443D01*
X137169667Y-101678399D01*
X137162440Y-101702224D01*
X137160000Y-101727000D01*
X137160000Y-103553614D01*
X137115009Y-103498791D01*
X137042486Y-103439274D01*
X136959745Y-103395048D01*
X136869967Y-103367814D01*
X136776600Y-103358618D01*
X136476600Y-103358618D01*
X136383233Y-103367814D01*
X136293455Y-103395048D01*
X136210714Y-103439274D01*
X136138191Y-103498791D01*
X136078674Y-103571314D01*
X136034448Y-103654055D01*
X136007214Y-103743833D01*
X135998018Y-103837200D01*
X135985182Y-103837200D01*
X135975986Y-103743833D01*
X135948752Y-103654055D01*
X135904526Y-103571314D01*
X135845009Y-103498791D01*
X135808600Y-103468911D01*
X135808600Y-101126823D01*
X137821567Y-99113857D01*
X137827307Y-99172131D01*
X137891751Y-99384571D01*
X137996401Y-99580357D01*
X138137236Y-99751965D01*
X138308844Y-99892800D01*
X138504630Y-99997450D01*
X138717070Y-100061893D01*
X138938000Y-100083653D01*
X139158931Y-100061893D01*
X139371371Y-99997450D01*
X139567157Y-99892800D01*
X139738765Y-99751965D01*
X139879600Y-99580357D01*
X139905909Y-99531137D01*
X139907530Y-99547597D01*
X139917468Y-99580357D01*
X139933376Y-99632799D01*
X139975347Y-99711322D01*
X140031831Y-99780149D01*
X140049090Y-99794313D01*
X140575991Y-100321215D01*
X140575990Y-101510195D01*
X140573803Y-101532400D01*
X140582530Y-101621007D01*
X140595082Y-101662386D01*
X140608376Y-101706209D01*
X140632239Y-101750854D01*
X140610410Y-101739186D01*
X140536650Y-101716811D01*
X140520140Y-101662386D01*
X140466674Y-101562357D01*
X140394720Y-101474680D01*
X140307043Y-101402726D01*
X140207014Y-101349260D01*
X140098477Y-101316335D01*
X139985601Y-101305218D01*
X139360599Y-101305218D01*
X139247723Y-101316335D01*
X139139186Y-101349260D01*
X139039157Y-101402726D01*
X138951480Y-101474680D01*
X138879526Y-101562357D01*
X138826060Y-101662386D01*
X138793135Y-101770923D01*
X138782018Y-101883799D01*
X138782018Y-102433801D01*
X138793135Y-102546677D01*
X138826060Y-102655214D01*
X138879526Y-102755243D01*
X138951480Y-102842920D01*
X139039157Y-102914874D01*
X139139186Y-102968340D01*
X139247723Y-103001265D01*
X139360599Y-103012382D01*
X139985601Y-103012382D01*
X140098477Y-103001265D01*
X140207014Y-102968340D01*
X140217435Y-102962770D01*
X140227502Y-102977836D01*
X140328764Y-103079098D01*
X140447836Y-103158659D01*
X140580142Y-103213462D01*
X140720597Y-103241400D01*
X140863803Y-103241400D01*
X141004258Y-103213462D01*
X141136564Y-103158659D01*
X141255636Y-103079098D01*
X141356898Y-102977836D01*
X141436459Y-102858764D01*
X141491262Y-102726458D01*
X141506453Y-102650087D01*
X141606191Y-102749824D01*
X141606190Y-102864585D01*
X141496968Y-102973809D01*
X141447299Y-103000357D01*
X141378473Y-103056841D01*
X141364313Y-103074095D01*
X140904286Y-103534123D01*
X140887032Y-103548283D01*
X140854751Y-103587618D01*
X140830548Y-103617109D01*
X140788576Y-103695633D01*
X140762730Y-103780835D01*
X140754003Y-103869442D01*
X140756191Y-103891657D01*
X140756190Y-105138985D01*
X140754003Y-105161190D01*
X140756190Y-105183394D01*
X140756191Y-107678975D01*
X140754003Y-107701190D01*
X140762730Y-107789797D01*
X140788576Y-107874999D01*
X140810255Y-107915558D01*
X140830548Y-107953523D01*
X140887032Y-108022349D01*
X140904285Y-108036508D01*
X141197881Y-108330105D01*
X141212041Y-108347359D01*
X141252303Y-108380401D01*
X141285274Y-108442086D01*
X141344791Y-108514609D01*
X141417314Y-108574126D01*
X141500055Y-108618352D01*
X141589833Y-108645586D01*
X141683200Y-108654782D01*
X143333200Y-108654782D01*
X143426567Y-108645586D01*
X143516345Y-108618352D01*
X143599086Y-108574126D01*
X143639520Y-108540943D01*
X144124801Y-109026225D01*
X144124800Y-113647524D01*
X144111095Y-113651681D01*
X144016469Y-113702260D01*
X143933528Y-113770328D01*
X143865460Y-113853269D01*
X143814881Y-113947895D01*
X143789400Y-114031896D01*
X143763919Y-113947895D01*
X143713340Y-113853269D01*
X143645272Y-113770328D01*
X143562331Y-113702260D01*
X143467705Y-113651681D01*
X143365029Y-113620535D01*
X143258250Y-113610018D01*
X142745750Y-113610018D01*
X142638971Y-113620535D01*
X142536295Y-113651681D01*
X142441669Y-113702260D01*
X142358728Y-113770328D01*
X142290660Y-113853269D01*
X142279953Y-113873300D01*
X140398400Y-113873300D01*
X140360540Y-113802469D01*
X140292472Y-113719528D01*
X140209531Y-113651460D01*
X140114905Y-113600881D01*
X140012229Y-113569735D01*
X139905450Y-113559218D01*
X139392950Y-113559218D01*
X139286171Y-113569735D01*
X139183495Y-113600881D01*
X139088869Y-113651460D01*
X139005928Y-113719528D01*
X138937860Y-113802469D01*
X138900000Y-113873300D01*
X138772800Y-113873300D01*
X138734940Y-113802469D01*
X138666872Y-113719528D01*
X138583931Y-113651460D01*
X138489305Y-113600881D01*
X138475600Y-113596724D01*
X138475600Y-113179205D01*
X138477787Y-113157000D01*
X138469060Y-113068392D01*
X138443214Y-112983190D01*
X138401243Y-112904667D01*
X138344759Y-112835841D01*
X138327505Y-112821681D01*
X136415597Y-110909774D01*
X136476600Y-110915782D01*
X136776600Y-110915782D01*
X136869967Y-110906586D01*
X136959745Y-110879352D01*
X137042486Y-110835126D01*
X137115009Y-110775609D01*
X137174526Y-110703086D01*
X137218752Y-110620345D01*
X137245986Y-110530567D01*
X137255182Y-110437200D01*
X137255182Y-108787200D01*
X137245986Y-108693833D01*
X137218752Y-108604055D01*
X137174526Y-108521314D01*
X137115009Y-108448791D01*
X137042486Y-108389274D01*
X136959745Y-108345048D01*
X136869967Y-108317814D01*
X136776600Y-108308618D01*
X136476600Y-108308618D01*
X136383233Y-108317814D01*
X136293455Y-108345048D01*
X136210714Y-108389274D01*
X136138191Y-108448791D01*
X136078674Y-108521314D01*
X136034448Y-108604055D01*
X136007214Y-108693833D01*
X135998018Y-108787200D01*
X135998018Y-110437200D01*
X136004026Y-110498203D01*
X135981402Y-110475579D01*
X135985182Y-110437200D01*
X135985182Y-108787200D01*
X135975986Y-108693833D01*
X135948752Y-108604055D01*
X135904526Y-108521314D01*
X135845009Y-108448791D01*
X135772486Y-108389274D01*
X135689745Y-108345048D01*
X135599967Y-108317814D01*
X135506600Y-108308618D01*
X135206600Y-108308618D01*
X135113233Y-108317814D01*
X135023455Y-108345048D01*
X134940714Y-108389274D01*
X134868191Y-108448791D01*
X134808674Y-108521314D01*
X134764448Y-108604055D01*
X134737214Y-108693833D01*
X134728018Y-108787200D01*
X134728018Y-110437200D01*
X134737214Y-110530567D01*
X134764448Y-110620345D01*
X134808674Y-110703086D01*
X134868191Y-110775609D01*
X134904601Y-110805489D01*
X134904601Y-111090174D01*
X132927093Y-113067683D01*
X132913603Y-113065000D01*
X132770397Y-113065000D01*
X132629942Y-113092938D01*
X132497636Y-113147741D01*
X132378564Y-113227302D01*
X132277302Y-113328564D01*
X132197741Y-113447636D01*
X132142938Y-113579942D01*
X132115000Y-113720397D01*
X131622400Y-113720397D01*
X131622400Y-91569172D01*
X134321000Y-91569172D01*
X134321001Y-95273229D01*
X134351054Y-95578363D01*
X134469819Y-95969879D01*
X134662683Y-96330702D01*
X134922234Y-96646967D01*
X135238499Y-96906518D01*
X135599322Y-97099382D01*
X135990838Y-97218147D01*
X136398000Y-97258249D01*
X136805163Y-97218147D01*
X137196679Y-97099382D01*
X137557502Y-96906518D01*
X137873767Y-96646967D01*
X138133318Y-96330702D01*
X138326182Y-95969879D01*
X138444947Y-95578363D01*
X138475000Y-95273229D01*
X138475000Y-91569172D01*
X144481000Y-91569172D01*
X144481001Y-95273229D01*
X144511054Y-95578363D01*
X144629819Y-95969879D01*
X144822683Y-96330702D01*
X145082234Y-96646967D01*
X145398499Y-96906518D01*
X145759322Y-97099382D01*
X146150838Y-97218147D01*
X146558000Y-97258249D01*
X146965163Y-97218147D01*
X147356679Y-97099382D01*
X147717502Y-96906518D01*
X148033767Y-96646967D01*
X148293318Y-96330702D01*
X148486182Y-95969879D01*
X148604947Y-95578363D01*
X148635000Y-95273229D01*
X148635000Y-91569171D01*
X148604947Y-91264037D01*
X148486182Y-90872521D01*
X148293318Y-90511698D01*
X148033767Y-90195433D01*
X147717502Y-89935882D01*
X147356678Y-89743018D01*
X146965162Y-89624253D01*
X146558000Y-89584151D01*
X146150837Y-89624253D01*
X145759321Y-89743018D01*
X145398498Y-89935882D01*
X145082233Y-90195433D01*
X144822682Y-90511698D01*
X144629818Y-90872522D01*
X144511053Y-91264038D01*
X144481000Y-91569172D01*
X138475000Y-91569172D01*
X138475000Y-91569171D01*
X138444947Y-91264037D01*
X138326182Y-90872521D01*
X138133318Y-90511698D01*
X137873767Y-90195433D01*
X137557502Y-89935882D01*
X137196678Y-89743018D01*
X136805162Y-89624253D01*
X136398000Y-89584151D01*
X135990837Y-89624253D01*
X135599321Y-89743018D01*
X135238498Y-89935882D01*
X134922233Y-90195433D01*
X134662682Y-90511698D01*
X134469818Y-90872522D01*
X134351053Y-91264038D01*
X134321000Y-91569172D01*
X131622400Y-91569172D01*
X131622400Y-86004000D01*
X151333601Y-86004000D01*
X151333600Y-129921000D01*
G37*
%TD.AperFunction*%
%TD*%
M02*
