%TF.GenerationSoftware,KiCad,Pcbnew,(5.1.10)-1*%
%TF.CreationDate,2021-07-01T21:18:45-05:00*%
%TF.ProjectId,orpMeter,6f72704d-6574-4657-922e-6b696361645f,A0*%
%TF.SameCoordinates,Original*%
%TF.FileFunction,Legend,Top*%
%TF.FilePolarity,Positive*%
%FSLAX46Y46*%
G04 Gerber Fmt 4.6, Leading zero omitted, Abs format (unit mm)*
G04 Created by KiCad (PCBNEW (5.1.10)-1) date 2021-07-01 21:18:45*
%MOMM*%
%LPD*%
G01*
G04 APERTURE LIST*
%ADD10C,0.152400*%
%ADD11C,0.120000*%
%ADD12C,0.150000*%
G04 APERTURE END LIST*
D10*
X147447000Y-142800130D02*
X147398619Y-142860606D01*
X147398619Y-142951320D01*
X147447000Y-143042035D01*
X147543761Y-143102511D01*
X147640523Y-143132749D01*
X147834047Y-143162987D01*
X147979190Y-143162987D01*
X148172714Y-143132749D01*
X148269476Y-143102511D01*
X148366238Y-143042035D01*
X148414619Y-142951320D01*
X148414619Y-142890844D01*
X148366238Y-142800130D01*
X148317857Y-142769892D01*
X147979190Y-142769892D01*
X147979190Y-142890844D01*
X148414619Y-142497749D02*
X147398619Y-142497749D01*
X148414619Y-142134892D01*
X147398619Y-142134892D01*
X148414619Y-141832511D02*
X147398619Y-141832511D01*
X147398619Y-141681320D01*
X147447000Y-141590606D01*
X147543761Y-141530130D01*
X147640523Y-141499892D01*
X147834047Y-141469654D01*
X147979190Y-141469654D01*
X148172714Y-141499892D01*
X148269476Y-141530130D01*
X148366238Y-141590606D01*
X148414619Y-141681320D01*
X148414619Y-141832511D01*
X145874619Y-143132749D02*
X144858619Y-143132749D01*
X145584333Y-142921082D01*
X144858619Y-142709416D01*
X145874619Y-142709416D01*
X145874619Y-142407035D02*
X144858619Y-142407035D01*
X145826238Y-142134892D02*
X145874619Y-142044178D01*
X145874619Y-141892987D01*
X145826238Y-141832511D01*
X145777857Y-141802273D01*
X145681095Y-141772035D01*
X145584333Y-141772035D01*
X145487571Y-141802273D01*
X145439190Y-141832511D01*
X145390809Y-141892987D01*
X145342428Y-142013940D01*
X145294047Y-142074416D01*
X145245666Y-142104654D01*
X145148904Y-142134892D01*
X145052142Y-142134892D01*
X144955380Y-142104654D01*
X144907000Y-142074416D01*
X144858619Y-142013940D01*
X144858619Y-141862749D01*
X144907000Y-141772035D01*
X144858619Y-141378940D02*
X144858619Y-141257987D01*
X144907000Y-141197511D01*
X145003761Y-141137035D01*
X145197285Y-141106797D01*
X145535952Y-141106797D01*
X145729476Y-141137035D01*
X145826238Y-141197511D01*
X145874619Y-141257987D01*
X145874619Y-141378940D01*
X145826238Y-141439416D01*
X145729476Y-141499892D01*
X145535952Y-141530130D01*
X145197285Y-141530130D01*
X145003761Y-141499892D01*
X144907000Y-141439416D01*
X144858619Y-141378940D01*
X143334619Y-143132749D02*
X142318619Y-143132749D01*
X143044333Y-142921082D01*
X142318619Y-142709416D01*
X143334619Y-142709416D01*
X142318619Y-142286082D02*
X142318619Y-142165130D01*
X142367000Y-142104654D01*
X142463761Y-142044178D01*
X142657285Y-142013940D01*
X142995952Y-142013940D01*
X143189476Y-142044178D01*
X143286238Y-142104654D01*
X143334619Y-142165130D01*
X143334619Y-142286082D01*
X143286238Y-142346559D01*
X143189476Y-142407035D01*
X142995952Y-142437273D01*
X142657285Y-142437273D01*
X142463761Y-142407035D01*
X142367000Y-142346559D01*
X142318619Y-142286082D01*
X143286238Y-141772035D02*
X143334619Y-141681320D01*
X143334619Y-141530130D01*
X143286238Y-141469654D01*
X143237857Y-141439416D01*
X143141095Y-141409178D01*
X143044333Y-141409178D01*
X142947571Y-141439416D01*
X142899190Y-141469654D01*
X142850809Y-141530130D01*
X142802428Y-141651082D01*
X142754047Y-141711559D01*
X142705666Y-141741797D01*
X142608904Y-141772035D01*
X142512142Y-141772035D01*
X142415380Y-141741797D01*
X142367000Y-141711559D01*
X142318619Y-141651082D01*
X142318619Y-141499892D01*
X142367000Y-141409178D01*
X143334619Y-141137035D02*
X142318619Y-141137035D01*
X140746238Y-143162987D02*
X140794619Y-143072273D01*
X140794619Y-142921082D01*
X140746238Y-142860606D01*
X140697857Y-142830368D01*
X140601095Y-142800130D01*
X140504333Y-142800130D01*
X140407571Y-142830368D01*
X140359190Y-142860606D01*
X140310809Y-142921082D01*
X140262428Y-143042035D01*
X140214047Y-143102511D01*
X140165666Y-143132749D01*
X140068904Y-143162987D01*
X139972142Y-143162987D01*
X139875380Y-143132749D01*
X139827000Y-143102511D01*
X139778619Y-143042035D01*
X139778619Y-142890844D01*
X139827000Y-142800130D01*
X140697857Y-142165130D02*
X140746238Y-142195368D01*
X140794619Y-142286082D01*
X140794619Y-142346559D01*
X140746238Y-142437273D01*
X140649476Y-142497749D01*
X140552714Y-142527987D01*
X140359190Y-142558225D01*
X140214047Y-142558225D01*
X140020523Y-142527987D01*
X139923761Y-142497749D01*
X139827000Y-142437273D01*
X139778619Y-142346559D01*
X139778619Y-142286082D01*
X139827000Y-142195368D01*
X139875380Y-142165130D01*
X140794619Y-141892987D02*
X139778619Y-141892987D01*
X140794619Y-141530130D02*
X140214047Y-141802273D01*
X139778619Y-141530130D02*
X140359190Y-141892987D01*
X138284857Y-142769892D02*
X138333238Y-142800130D01*
X138381619Y-142890844D01*
X138381619Y-142951320D01*
X138333238Y-143042035D01*
X138236476Y-143102511D01*
X138139714Y-143132749D01*
X137946190Y-143162987D01*
X137801047Y-143162987D01*
X137607523Y-143132749D01*
X137510761Y-143102511D01*
X137414000Y-143042035D01*
X137365619Y-142951320D01*
X137365619Y-142890844D01*
X137414000Y-142800130D01*
X137462380Y-142769892D01*
X138333238Y-142527987D02*
X138381619Y-142437273D01*
X138381619Y-142286082D01*
X138333238Y-142225606D01*
X138284857Y-142195368D01*
X138188095Y-142165130D01*
X138091333Y-142165130D01*
X137994571Y-142195368D01*
X137946190Y-142225606D01*
X137897809Y-142286082D01*
X137849428Y-142407035D01*
X137801047Y-142467511D01*
X137752666Y-142497749D01*
X137655904Y-142527987D01*
X137559142Y-142527987D01*
X137462380Y-142497749D01*
X137414000Y-142467511D01*
X137365619Y-142407035D01*
X137365619Y-142255844D01*
X137414000Y-142165130D01*
X134825619Y-143223463D02*
X135841619Y-143011797D01*
X134825619Y-142800130D01*
X135841619Y-142588463D02*
X134825619Y-142588463D01*
X134825619Y-142437273D01*
X134874000Y-142346559D01*
X134970761Y-142286082D01*
X135067523Y-142255844D01*
X135261047Y-142225606D01*
X135406190Y-142225606D01*
X135599714Y-142255844D01*
X135696476Y-142286082D01*
X135793238Y-142346559D01*
X135841619Y-142437273D01*
X135841619Y-142588463D01*
X135841619Y-141953463D02*
X134825619Y-141953463D01*
X134825619Y-141802273D01*
X134874000Y-141711559D01*
X134970761Y-141651082D01*
X135067523Y-141620844D01*
X135261047Y-141590606D01*
X135406190Y-141590606D01*
X135599714Y-141620844D01*
X135696476Y-141651082D01*
X135793238Y-141711559D01*
X135841619Y-141802273D01*
X135841619Y-141953463D01*
D11*
%TO.C,J1*%
X141478000Y-86001200D02*
X142478000Y-87001200D01*
X141478000Y-86001200D02*
X140478000Y-87001200D01*
X133978000Y-100801200D02*
X133978000Y-85801200D01*
X148978000Y-100801200D02*
X133978000Y-100801200D01*
X148978000Y-85801200D02*
X148978000Y-100801200D01*
X133978000Y-85801200D02*
X148978000Y-85801200D01*
%TO.C,C1*%
X147165600Y-117002779D02*
X147165600Y-116677221D01*
X148185600Y-117002779D02*
X148185600Y-116677221D01*
%TO.C,C3*%
X147165600Y-119877621D02*
X147165600Y-120203179D01*
X148185600Y-119877621D02*
X148185600Y-120203179D01*
%TO.C,C5*%
X145125221Y-116939600D02*
X145450779Y-116939600D01*
X145125221Y-117959600D02*
X145450779Y-117959600D01*
%TO.C,C6*%
X142453579Y-116939600D02*
X142128021Y-116939600D01*
X142453579Y-117959600D02*
X142128021Y-117959600D01*
%TO.C,C7*%
X149278200Y-105935200D02*
X149278200Y-108645200D01*
X150848200Y-105935200D02*
X149278200Y-105935200D01*
X150848200Y-108645200D02*
X150848200Y-105935200D01*
%TO.C,C8*%
X139785600Y-101373800D02*
X137075600Y-101373800D01*
X137075600Y-101373800D02*
X137075600Y-102943800D01*
X137075600Y-102943800D02*
X139785600Y-102943800D01*
%TO.C,C9*%
X142077221Y-125880400D02*
X142402779Y-125880400D01*
X142077221Y-126900400D02*
X142402779Y-126900400D01*
%TO.C,C10*%
X140751779Y-140972000D02*
X140426221Y-140972000D01*
X140751779Y-139952000D02*
X140426221Y-139952000D01*
%TO.C,C11*%
X136979800Y-116518000D02*
X136979800Y-113808000D01*
X135409800Y-116518000D02*
X136979800Y-116518000D01*
X135409800Y-113808000D02*
X135409800Y-116518000D01*
%TO.C,R1*%
X141480000Y-121452421D02*
X141480000Y-121777979D01*
X140460000Y-121452421D02*
X140460000Y-121777979D01*
%TO.C,R2*%
X145086800Y-115326379D02*
X145086800Y-115000821D01*
X144066800Y-115326379D02*
X144066800Y-115000821D01*
%TO.C,R3*%
X142492000Y-115326379D02*
X142492000Y-115000821D01*
X143512000Y-115326379D02*
X143512000Y-115000821D01*
%TO.C,R4*%
X137098821Y-120800400D02*
X137424379Y-120800400D01*
X137098821Y-121820400D02*
X137424379Y-121820400D01*
%TO.C,R5*%
X137513600Y-115275579D02*
X137513600Y-114950021D01*
X138533600Y-115275579D02*
X138533600Y-114950021D01*
%TO.C,R6*%
X139139200Y-114950021D02*
X139139200Y-115275579D01*
X140159200Y-114950021D02*
X140159200Y-115275579D01*
D12*
%TO.C,U1*%
X145925200Y-119838600D02*
X145925200Y-118613600D01*
X142800200Y-119838600D02*
X142800200Y-123188600D01*
X146150200Y-119838600D02*
X146150200Y-123188600D01*
X142800200Y-119838600D02*
X143100200Y-119838600D01*
X142800200Y-123188600D02*
X143100200Y-123188600D01*
X146150200Y-123188600D02*
X145850200Y-123188600D01*
X146150200Y-119838600D02*
X145925200Y-119838600D01*
D11*
%TO.C,U2*%
X144983200Y-108681200D02*
X146933200Y-108681200D01*
X144983200Y-108681200D02*
X143033200Y-108681200D01*
X144983200Y-103561200D02*
X146933200Y-103561200D01*
X144983200Y-103561200D02*
X141533200Y-103561200D01*
%TO.C,U3*%
X134701600Y-107137200D02*
X134701600Y-110587200D01*
X134701600Y-107137200D02*
X134701600Y-105187200D01*
X139821600Y-107137200D02*
X139821600Y-109087200D01*
X139821600Y-107137200D02*
X139821600Y-105187200D01*
%TO.C,U4*%
X140892600Y-137260800D02*
X140892600Y-139075800D01*
X140637600Y-137260800D02*
X140892600Y-137260800D01*
X140637600Y-133400800D02*
X140637600Y-137260800D01*
X140637600Y-129540800D02*
X140892600Y-129540800D01*
X140637600Y-133400800D02*
X140637600Y-129540800D01*
X151157600Y-137260800D02*
X150902600Y-137260800D01*
X151157600Y-133400800D02*
X151157600Y-137260800D01*
X151157600Y-129540800D02*
X150902600Y-129540800D01*
X151157600Y-133400800D02*
X151157600Y-129540800D01*
%TO.C,U5*%
X135529200Y-119327200D02*
X135529200Y-117867200D01*
X138689200Y-119327200D02*
X138689200Y-117167200D01*
X138689200Y-119327200D02*
X137759200Y-119327200D01*
X135529200Y-119327200D02*
X136459200Y-119327200D01*
%TO.C,U6*%
X138202800Y-139762400D02*
X138202800Y-138562400D01*
X137002800Y-139762400D02*
X138202800Y-139762400D01*
X131612800Y-127742400D02*
X137952800Y-127742400D01*
X137952800Y-139512400D02*
X137952800Y-127742400D01*
X131612800Y-139512400D02*
X137952800Y-139512400D01*
X131612800Y-139512400D02*
X131612800Y-127742400D01*
%TO.C,C12*%
X133441221Y-121918000D02*
X133766779Y-121918000D01*
X133441221Y-122938000D02*
X133766779Y-122938000D01*
%TO.C,C13*%
X137251221Y-127129000D02*
X137576779Y-127129000D01*
X137251221Y-126109000D02*
X137576779Y-126109000D01*
%TO.C,U7*%
X135595000Y-126376000D02*
X135595000Y-124576000D01*
X132375000Y-124576000D02*
X132375000Y-127026000D01*
%TO.C,C2*%
X150238600Y-118346800D02*
X150238600Y-115636800D01*
X148668600Y-118346800D02*
X150238600Y-118346800D01*
X148668600Y-115636800D02*
X148668600Y-118346800D01*
%TO.C,C4*%
X150238600Y-121243600D02*
X150238600Y-118533600D01*
X150238600Y-118533600D02*
X148668600Y-118533600D01*
X148668600Y-118533600D02*
X148668600Y-121243600D01*
%TO.C,J1*%
D12*
X149856866Y-99579180D02*
X149856866Y-100293466D01*
X149809247Y-100436323D01*
X149714009Y-100531561D01*
X149571152Y-100579180D01*
X149475914Y-100579180D01*
X150856866Y-100579180D02*
X150285438Y-100579180D01*
X150571152Y-100579180D02*
X150571152Y-99579180D01*
X150475914Y-99722038D01*
X150380676Y-99817276D01*
X150285438Y-99864895D01*
%TO.C,C1*%
X147407333Y-114149142D02*
X147359714Y-114196761D01*
X147216857Y-114244380D01*
X147121619Y-114244380D01*
X146978761Y-114196761D01*
X146883523Y-114101523D01*
X146835904Y-114006285D01*
X146788285Y-113815809D01*
X146788285Y-113672952D01*
X146835904Y-113482476D01*
X146883523Y-113387238D01*
X146978761Y-113292000D01*
X147121619Y-113244380D01*
X147216857Y-113244380D01*
X147359714Y-113292000D01*
X147407333Y-113339619D01*
X148359714Y-114244380D02*
X147788285Y-114244380D01*
X148074000Y-114244380D02*
X148074000Y-113244380D01*
X147978761Y-113387238D01*
X147883523Y-113482476D01*
X147788285Y-113530095D01*
%TO.C,C3*%
X147534333Y-123547142D02*
X147486714Y-123594761D01*
X147343857Y-123642380D01*
X147248619Y-123642380D01*
X147105761Y-123594761D01*
X147010523Y-123499523D01*
X146962904Y-123404285D01*
X146915285Y-123213809D01*
X146915285Y-123070952D01*
X146962904Y-122880476D01*
X147010523Y-122785238D01*
X147105761Y-122690000D01*
X147248619Y-122642380D01*
X147343857Y-122642380D01*
X147486714Y-122690000D01*
X147534333Y-122737619D01*
X147867666Y-122642380D02*
X148486714Y-122642380D01*
X148153380Y-123023333D01*
X148296238Y-123023333D01*
X148391476Y-123070952D01*
X148439095Y-123118571D01*
X148486714Y-123213809D01*
X148486714Y-123451904D01*
X148439095Y-123547142D01*
X148391476Y-123594761D01*
X148296238Y-123642380D01*
X148010523Y-123642380D01*
X147915285Y-123594761D01*
X147867666Y-123547142D01*
%TO.C,C5*%
X145934133Y-115419142D02*
X145886514Y-115466761D01*
X145743657Y-115514380D01*
X145648419Y-115514380D01*
X145505561Y-115466761D01*
X145410323Y-115371523D01*
X145362704Y-115276285D01*
X145315085Y-115085809D01*
X145315085Y-114942952D01*
X145362704Y-114752476D01*
X145410323Y-114657238D01*
X145505561Y-114562000D01*
X145648419Y-114514380D01*
X145743657Y-114514380D01*
X145886514Y-114562000D01*
X145934133Y-114609619D01*
X146838895Y-114514380D02*
X146362704Y-114514380D01*
X146315085Y-114990571D01*
X146362704Y-114942952D01*
X146457942Y-114895333D01*
X146696038Y-114895333D01*
X146791276Y-114942952D01*
X146838895Y-114990571D01*
X146886514Y-115085809D01*
X146886514Y-115323904D01*
X146838895Y-115419142D01*
X146791276Y-115466761D01*
X146696038Y-115514380D01*
X146457942Y-115514380D01*
X146362704Y-115466761D01*
X146315085Y-115419142D01*
%TO.C,C6*%
X141133533Y-115673142D02*
X141085914Y-115720761D01*
X140943057Y-115768380D01*
X140847819Y-115768380D01*
X140704961Y-115720761D01*
X140609723Y-115625523D01*
X140562104Y-115530285D01*
X140514485Y-115339809D01*
X140514485Y-115196952D01*
X140562104Y-115006476D01*
X140609723Y-114911238D01*
X140704961Y-114816000D01*
X140847819Y-114768380D01*
X140943057Y-114768380D01*
X141085914Y-114816000D01*
X141133533Y-114863619D01*
X141990676Y-114768380D02*
X141800200Y-114768380D01*
X141704961Y-114816000D01*
X141657342Y-114863619D01*
X141562104Y-115006476D01*
X141514485Y-115196952D01*
X141514485Y-115577904D01*
X141562104Y-115673142D01*
X141609723Y-115720761D01*
X141704961Y-115768380D01*
X141895438Y-115768380D01*
X141990676Y-115720761D01*
X142038295Y-115673142D01*
X142085914Y-115577904D01*
X142085914Y-115339809D01*
X142038295Y-115244571D01*
X141990676Y-115196952D01*
X141895438Y-115149333D01*
X141704961Y-115149333D01*
X141609723Y-115196952D01*
X141562104Y-115244571D01*
X141514485Y-115339809D01*
%TO.C,C7*%
X149820333Y-105462342D02*
X149772714Y-105509961D01*
X149629857Y-105557580D01*
X149534619Y-105557580D01*
X149391761Y-105509961D01*
X149296523Y-105414723D01*
X149248904Y-105319485D01*
X149201285Y-105129009D01*
X149201285Y-104986152D01*
X149248904Y-104795676D01*
X149296523Y-104700438D01*
X149391761Y-104605200D01*
X149534619Y-104557580D01*
X149629857Y-104557580D01*
X149772714Y-104605200D01*
X149820333Y-104652819D01*
X150153666Y-104557580D02*
X150820333Y-104557580D01*
X150391761Y-105557580D01*
%TO.C,C8*%
X135748733Y-102592142D02*
X135701114Y-102639761D01*
X135558257Y-102687380D01*
X135463019Y-102687380D01*
X135320161Y-102639761D01*
X135224923Y-102544523D01*
X135177304Y-102449285D01*
X135129685Y-102258809D01*
X135129685Y-102115952D01*
X135177304Y-101925476D01*
X135224923Y-101830238D01*
X135320161Y-101735000D01*
X135463019Y-101687380D01*
X135558257Y-101687380D01*
X135701114Y-101735000D01*
X135748733Y-101782619D01*
X136320161Y-102115952D02*
X136224923Y-102068333D01*
X136177304Y-102020714D01*
X136129685Y-101925476D01*
X136129685Y-101877857D01*
X136177304Y-101782619D01*
X136224923Y-101735000D01*
X136320161Y-101687380D01*
X136510638Y-101687380D01*
X136605876Y-101735000D01*
X136653495Y-101782619D01*
X136701114Y-101877857D01*
X136701114Y-101925476D01*
X136653495Y-102020714D01*
X136605876Y-102068333D01*
X136510638Y-102115952D01*
X136320161Y-102115952D01*
X136224923Y-102163571D01*
X136177304Y-102211190D01*
X136129685Y-102306428D01*
X136129685Y-102496904D01*
X136177304Y-102592142D01*
X136224923Y-102639761D01*
X136320161Y-102687380D01*
X136510638Y-102687380D01*
X136605876Y-102639761D01*
X136653495Y-102592142D01*
X136701114Y-102496904D01*
X136701114Y-102306428D01*
X136653495Y-102211190D01*
X136605876Y-102163571D01*
X136510638Y-102115952D01*
%TO.C,C9*%
X140168333Y-125325142D02*
X140120714Y-125372761D01*
X139977857Y-125420380D01*
X139882619Y-125420380D01*
X139739761Y-125372761D01*
X139644523Y-125277523D01*
X139596904Y-125182285D01*
X139549285Y-124991809D01*
X139549285Y-124848952D01*
X139596904Y-124658476D01*
X139644523Y-124563238D01*
X139739761Y-124468000D01*
X139882619Y-124420380D01*
X139977857Y-124420380D01*
X140120714Y-124468000D01*
X140168333Y-124515619D01*
X140644523Y-125420380D02*
X140835000Y-125420380D01*
X140930238Y-125372761D01*
X140977857Y-125325142D01*
X141073095Y-125182285D01*
X141120714Y-124991809D01*
X141120714Y-124610857D01*
X141073095Y-124515619D01*
X141025476Y-124468000D01*
X140930238Y-124420380D01*
X140739761Y-124420380D01*
X140644523Y-124468000D01*
X140596904Y-124515619D01*
X140549285Y-124610857D01*
X140549285Y-124848952D01*
X140596904Y-124944190D01*
X140644523Y-124991809D01*
X140739761Y-125039428D01*
X140930238Y-125039428D01*
X141025476Y-124991809D01*
X141073095Y-124944190D01*
X141120714Y-124848952D01*
%TO.C,C10*%
X136898142Y-140819142D02*
X136850523Y-140866761D01*
X136707666Y-140914380D01*
X136612428Y-140914380D01*
X136469571Y-140866761D01*
X136374333Y-140771523D01*
X136326714Y-140676285D01*
X136279095Y-140485809D01*
X136279095Y-140342952D01*
X136326714Y-140152476D01*
X136374333Y-140057238D01*
X136469571Y-139962000D01*
X136612428Y-139914380D01*
X136707666Y-139914380D01*
X136850523Y-139962000D01*
X136898142Y-140009619D01*
X137850523Y-140914380D02*
X137279095Y-140914380D01*
X137564809Y-140914380D02*
X137564809Y-139914380D01*
X137469571Y-140057238D01*
X137374333Y-140152476D01*
X137279095Y-140200095D01*
X138469571Y-139914380D02*
X138564809Y-139914380D01*
X138660047Y-139962000D01*
X138707666Y-140009619D01*
X138755285Y-140104857D01*
X138802904Y-140295333D01*
X138802904Y-140533428D01*
X138755285Y-140723904D01*
X138707666Y-140819142D01*
X138660047Y-140866761D01*
X138564809Y-140914380D01*
X138469571Y-140914380D01*
X138374333Y-140866761D01*
X138326714Y-140819142D01*
X138279095Y-140723904D01*
X138231476Y-140533428D01*
X138231476Y-140295333D01*
X138279095Y-140104857D01*
X138326714Y-140009619D01*
X138374333Y-139962000D01*
X138469571Y-139914380D01*
%TO.C,C11*%
X133215142Y-115165142D02*
X133167523Y-115212761D01*
X133024666Y-115260380D01*
X132929428Y-115260380D01*
X132786571Y-115212761D01*
X132691333Y-115117523D01*
X132643714Y-115022285D01*
X132596095Y-114831809D01*
X132596095Y-114688952D01*
X132643714Y-114498476D01*
X132691333Y-114403238D01*
X132786571Y-114308000D01*
X132929428Y-114260380D01*
X133024666Y-114260380D01*
X133167523Y-114308000D01*
X133215142Y-114355619D01*
X134167523Y-115260380D02*
X133596095Y-115260380D01*
X133881809Y-115260380D02*
X133881809Y-114260380D01*
X133786571Y-114403238D01*
X133691333Y-114498476D01*
X133596095Y-114546095D01*
X135119904Y-115260380D02*
X134548476Y-115260380D01*
X134834190Y-115260380D02*
X134834190Y-114260380D01*
X134738952Y-114403238D01*
X134643714Y-114498476D01*
X134548476Y-114546095D01*
%TO.C,R1*%
X140828733Y-119857780D02*
X140495400Y-119381590D01*
X140257304Y-119857780D02*
X140257304Y-118857780D01*
X140638257Y-118857780D01*
X140733495Y-118905400D01*
X140781114Y-118953019D01*
X140828733Y-119048257D01*
X140828733Y-119191114D01*
X140781114Y-119286352D01*
X140733495Y-119333971D01*
X140638257Y-119381590D01*
X140257304Y-119381590D01*
X141781114Y-119857780D02*
X141209685Y-119857780D01*
X141495400Y-119857780D02*
X141495400Y-118857780D01*
X141400161Y-119000638D01*
X141304923Y-119095876D01*
X141209685Y-119143495D01*
%TO.C,R2*%
X144867333Y-113456980D02*
X144534000Y-112980790D01*
X144295904Y-113456980D02*
X144295904Y-112456980D01*
X144676857Y-112456980D01*
X144772095Y-112504600D01*
X144819714Y-112552219D01*
X144867333Y-112647457D01*
X144867333Y-112790314D01*
X144819714Y-112885552D01*
X144772095Y-112933171D01*
X144676857Y-112980790D01*
X144295904Y-112980790D01*
X145248285Y-112552219D02*
X145295904Y-112504600D01*
X145391142Y-112456980D01*
X145629238Y-112456980D01*
X145724476Y-112504600D01*
X145772095Y-112552219D01*
X145819714Y-112647457D01*
X145819714Y-112742695D01*
X145772095Y-112885552D01*
X145200666Y-113456980D01*
X145819714Y-113456980D01*
%TO.C,R3*%
X142327333Y-113456980D02*
X141994000Y-112980790D01*
X141755904Y-113456980D02*
X141755904Y-112456980D01*
X142136857Y-112456980D01*
X142232095Y-112504600D01*
X142279714Y-112552219D01*
X142327333Y-112647457D01*
X142327333Y-112790314D01*
X142279714Y-112885552D01*
X142232095Y-112933171D01*
X142136857Y-112980790D01*
X141755904Y-112980790D01*
X142660666Y-112456980D02*
X143279714Y-112456980D01*
X142946380Y-112837933D01*
X143089238Y-112837933D01*
X143184476Y-112885552D01*
X143232095Y-112933171D01*
X143279714Y-113028409D01*
X143279714Y-113266504D01*
X143232095Y-113361742D01*
X143184476Y-113409361D01*
X143089238Y-113456980D01*
X142803523Y-113456980D01*
X142708285Y-113409361D01*
X142660666Y-113361742D01*
%TO.C,R4*%
X138898333Y-123261380D02*
X138565000Y-122785190D01*
X138326904Y-123261380D02*
X138326904Y-122261380D01*
X138707857Y-122261380D01*
X138803095Y-122309000D01*
X138850714Y-122356619D01*
X138898333Y-122451857D01*
X138898333Y-122594714D01*
X138850714Y-122689952D01*
X138803095Y-122737571D01*
X138707857Y-122785190D01*
X138326904Y-122785190D01*
X139755476Y-122594714D02*
X139755476Y-123261380D01*
X139517380Y-122213761D02*
X139279285Y-122928047D01*
X139898333Y-122928047D01*
%TO.C,R5*%
X137374333Y-112847380D02*
X137041000Y-112371190D01*
X136802904Y-112847380D02*
X136802904Y-111847380D01*
X137183857Y-111847380D01*
X137279095Y-111895000D01*
X137326714Y-111942619D01*
X137374333Y-112037857D01*
X137374333Y-112180714D01*
X137326714Y-112275952D01*
X137279095Y-112323571D01*
X137183857Y-112371190D01*
X136802904Y-112371190D01*
X138279095Y-111847380D02*
X137802904Y-111847380D01*
X137755285Y-112323571D01*
X137802904Y-112275952D01*
X137898142Y-112228333D01*
X138136238Y-112228333D01*
X138231476Y-112275952D01*
X138279095Y-112323571D01*
X138326714Y-112418809D01*
X138326714Y-112656904D01*
X138279095Y-112752142D01*
X138231476Y-112799761D01*
X138136238Y-112847380D01*
X137898142Y-112847380D01*
X137802904Y-112799761D01*
X137755285Y-112752142D01*
%TO.C,R6*%
X139660333Y-112847380D02*
X139327000Y-112371190D01*
X139088904Y-112847380D02*
X139088904Y-111847380D01*
X139469857Y-111847380D01*
X139565095Y-111895000D01*
X139612714Y-111942619D01*
X139660333Y-112037857D01*
X139660333Y-112180714D01*
X139612714Y-112275952D01*
X139565095Y-112323571D01*
X139469857Y-112371190D01*
X139088904Y-112371190D01*
X140517476Y-111847380D02*
X140327000Y-111847380D01*
X140231761Y-111895000D01*
X140184142Y-111942619D01*
X140088904Y-112085476D01*
X140041285Y-112275952D01*
X140041285Y-112656904D01*
X140088904Y-112752142D01*
X140136523Y-112799761D01*
X140231761Y-112847380D01*
X140422238Y-112847380D01*
X140517476Y-112799761D01*
X140565095Y-112752142D01*
X140612714Y-112656904D01*
X140612714Y-112418809D01*
X140565095Y-112323571D01*
X140517476Y-112275952D01*
X140422238Y-112228333D01*
X140231761Y-112228333D01*
X140136523Y-112275952D01*
X140088904Y-112323571D01*
X140041285Y-112418809D01*
%TO.C,U1*%
X141046295Y-123302780D02*
X141046295Y-124112304D01*
X141093914Y-124207542D01*
X141141533Y-124255161D01*
X141236771Y-124302780D01*
X141427247Y-124302780D01*
X141522485Y-124255161D01*
X141570104Y-124207542D01*
X141617723Y-124112304D01*
X141617723Y-123302780D01*
X142617723Y-124302780D02*
X142046295Y-124302780D01*
X142332009Y-124302780D02*
X142332009Y-123302780D01*
X142236771Y-123445638D01*
X142141533Y-123540876D01*
X142046295Y-123588495D01*
%TO.C,U2*%
X144221295Y-102173580D02*
X144221295Y-102983104D01*
X144268914Y-103078342D01*
X144316533Y-103125961D01*
X144411771Y-103173580D01*
X144602247Y-103173580D01*
X144697485Y-103125961D01*
X144745104Y-103078342D01*
X144792723Y-102983104D01*
X144792723Y-102173580D01*
X145221295Y-102268819D02*
X145268914Y-102221200D01*
X145364152Y-102173580D01*
X145602247Y-102173580D01*
X145697485Y-102221200D01*
X145745104Y-102268819D01*
X145792723Y-102364057D01*
X145792723Y-102459295D01*
X145745104Y-102602152D01*
X145173676Y-103173580D01*
X145792723Y-103173580D01*
%TO.C,U3*%
X132613495Y-109383580D02*
X132613495Y-110193104D01*
X132661114Y-110288342D01*
X132708733Y-110335961D01*
X132803971Y-110383580D01*
X132994447Y-110383580D01*
X133089685Y-110335961D01*
X133137304Y-110288342D01*
X133184923Y-110193104D01*
X133184923Y-109383580D01*
X133565876Y-109383580D02*
X134184923Y-109383580D01*
X133851590Y-109764533D01*
X133994447Y-109764533D01*
X134089685Y-109812152D01*
X134137304Y-109859771D01*
X134184923Y-109955009D01*
X134184923Y-110193104D01*
X134137304Y-110288342D01*
X134089685Y-110335961D01*
X133994447Y-110383580D01*
X133708733Y-110383580D01*
X133613495Y-110335961D01*
X133565876Y-110288342D01*
%TO.C,U4*%
X138582495Y-137780780D02*
X138582495Y-138590304D01*
X138630114Y-138685542D01*
X138677733Y-138733161D01*
X138772971Y-138780780D01*
X138963447Y-138780780D01*
X139058685Y-138733161D01*
X139106304Y-138685542D01*
X139153923Y-138590304D01*
X139153923Y-137780780D01*
X140058685Y-138114114D02*
X140058685Y-138780780D01*
X139820590Y-137733161D02*
X139582495Y-138447447D01*
X140201542Y-138447447D01*
%TO.C,U5*%
X133350095Y-118070380D02*
X133350095Y-118879904D01*
X133397714Y-118975142D01*
X133445333Y-119022761D01*
X133540571Y-119070380D01*
X133731047Y-119070380D01*
X133826285Y-119022761D01*
X133873904Y-118975142D01*
X133921523Y-118879904D01*
X133921523Y-118070380D01*
X134873904Y-118070380D02*
X134397714Y-118070380D01*
X134350095Y-118546571D01*
X134397714Y-118498952D01*
X134492952Y-118451333D01*
X134731047Y-118451333D01*
X134826285Y-118498952D01*
X134873904Y-118546571D01*
X134921523Y-118641809D01*
X134921523Y-118879904D01*
X134873904Y-118975142D01*
X134826285Y-119022761D01*
X134731047Y-119070380D01*
X134492952Y-119070380D01*
X134397714Y-119022761D01*
X134350095Y-118975142D01*
%TO.C,U6*%
X138531695Y-128230380D02*
X138531695Y-129039904D01*
X138579314Y-129135142D01*
X138626933Y-129182761D01*
X138722171Y-129230380D01*
X138912647Y-129230380D01*
X139007885Y-129182761D01*
X139055504Y-129135142D01*
X139103123Y-129039904D01*
X139103123Y-128230380D01*
X140007885Y-128230380D02*
X139817409Y-128230380D01*
X139722171Y-128278000D01*
X139674552Y-128325619D01*
X139579314Y-128468476D01*
X139531695Y-128658952D01*
X139531695Y-129039904D01*
X139579314Y-129135142D01*
X139626933Y-129182761D01*
X139722171Y-129230380D01*
X139912647Y-129230380D01*
X140007885Y-129182761D01*
X140055504Y-129135142D01*
X140103123Y-129039904D01*
X140103123Y-128801809D01*
X140055504Y-128706571D01*
X140007885Y-128658952D01*
X139912647Y-128611333D01*
X139722171Y-128611333D01*
X139626933Y-128658952D01*
X139579314Y-128706571D01*
X139531695Y-128801809D01*
%TO.C,C12*%
X132961142Y-121285142D02*
X132913523Y-121332761D01*
X132770666Y-121380380D01*
X132675428Y-121380380D01*
X132532571Y-121332761D01*
X132437333Y-121237523D01*
X132389714Y-121142285D01*
X132342095Y-120951809D01*
X132342095Y-120808952D01*
X132389714Y-120618476D01*
X132437333Y-120523238D01*
X132532571Y-120428000D01*
X132675428Y-120380380D01*
X132770666Y-120380380D01*
X132913523Y-120428000D01*
X132961142Y-120475619D01*
X133913523Y-121380380D02*
X133342095Y-121380380D01*
X133627809Y-121380380D02*
X133627809Y-120380380D01*
X133532571Y-120523238D01*
X133437333Y-120618476D01*
X133342095Y-120666095D01*
X134294476Y-120475619D02*
X134342095Y-120428000D01*
X134437333Y-120380380D01*
X134675428Y-120380380D01*
X134770666Y-120428000D01*
X134818285Y-120475619D01*
X134865904Y-120570857D01*
X134865904Y-120666095D01*
X134818285Y-120808952D01*
X134246857Y-121380380D01*
X134865904Y-121380380D01*
%TO.C,C13*%
X136771142Y-125476142D02*
X136723523Y-125523761D01*
X136580666Y-125571380D01*
X136485428Y-125571380D01*
X136342571Y-125523761D01*
X136247333Y-125428523D01*
X136199714Y-125333285D01*
X136152095Y-125142809D01*
X136152095Y-124999952D01*
X136199714Y-124809476D01*
X136247333Y-124714238D01*
X136342571Y-124619000D01*
X136485428Y-124571380D01*
X136580666Y-124571380D01*
X136723523Y-124619000D01*
X136771142Y-124666619D01*
X137723523Y-125571380D02*
X137152095Y-125571380D01*
X137437809Y-125571380D02*
X137437809Y-124571380D01*
X137342571Y-124714238D01*
X137247333Y-124809476D01*
X137152095Y-124857095D01*
X138056857Y-124571380D02*
X138675904Y-124571380D01*
X138342571Y-124952333D01*
X138485428Y-124952333D01*
X138580666Y-124999952D01*
X138628285Y-125047571D01*
X138675904Y-125142809D01*
X138675904Y-125380904D01*
X138628285Y-125476142D01*
X138580666Y-125523761D01*
X138485428Y-125571380D01*
X138199714Y-125571380D01*
X138104476Y-125523761D01*
X138056857Y-125476142D01*
%TO.C,U7*%
X136017095Y-122388380D02*
X136017095Y-123197904D01*
X136064714Y-123293142D01*
X136112333Y-123340761D01*
X136207571Y-123388380D01*
X136398047Y-123388380D01*
X136493285Y-123340761D01*
X136540904Y-123293142D01*
X136588523Y-123197904D01*
X136588523Y-122388380D01*
X136969476Y-122388380D02*
X137636142Y-122388380D01*
X137207571Y-123388380D01*
%TO.C,J2*%
X132254666Y-144232380D02*
X132254666Y-144946666D01*
X132207047Y-145089523D01*
X132111809Y-145184761D01*
X131968952Y-145232380D01*
X131873714Y-145232380D01*
X132683238Y-144327619D02*
X132730857Y-144280000D01*
X132826095Y-144232380D01*
X133064190Y-144232380D01*
X133159428Y-144280000D01*
X133207047Y-144327619D01*
X133254666Y-144422857D01*
X133254666Y-144518095D01*
X133207047Y-144660952D01*
X132635619Y-145232380D01*
X133254666Y-145232380D01*
%TO.C,C2*%
X149312333Y-113514142D02*
X149264714Y-113561761D01*
X149121857Y-113609380D01*
X149026619Y-113609380D01*
X148883761Y-113561761D01*
X148788523Y-113466523D01*
X148740904Y-113371285D01*
X148693285Y-113180809D01*
X148693285Y-113037952D01*
X148740904Y-112847476D01*
X148788523Y-112752238D01*
X148883761Y-112657000D01*
X149026619Y-112609380D01*
X149121857Y-112609380D01*
X149264714Y-112657000D01*
X149312333Y-112704619D01*
X149693285Y-112704619D02*
X149740904Y-112657000D01*
X149836142Y-112609380D01*
X150074238Y-112609380D01*
X150169476Y-112657000D01*
X150217095Y-112704619D01*
X150264714Y-112799857D01*
X150264714Y-112895095D01*
X150217095Y-113037952D01*
X149645666Y-113609380D01*
X150264714Y-113609380D01*
%TO.C,C4*%
X149439333Y-124182142D02*
X149391714Y-124229761D01*
X149248857Y-124277380D01*
X149153619Y-124277380D01*
X149010761Y-124229761D01*
X148915523Y-124134523D01*
X148867904Y-124039285D01*
X148820285Y-123848809D01*
X148820285Y-123705952D01*
X148867904Y-123515476D01*
X148915523Y-123420238D01*
X149010761Y-123325000D01*
X149153619Y-123277380D01*
X149248857Y-123277380D01*
X149391714Y-123325000D01*
X149439333Y-123372619D01*
X150296476Y-123610714D02*
X150296476Y-124277380D01*
X150058380Y-123229761D02*
X149820285Y-123944047D01*
X150439333Y-123944047D01*
%TD*%
M02*
